<mxfile host="app.diagrams.net" modified="2021-02-14T22:38:01.170Z" agent="5.0 (X11)" etag="B4igh6kmETgyaLm5dYRL" version="14.3.1" type="github">
  <diagram id="piDafpqhtRUU5qUU-vj8" name="Page-1">
    <mxGraphModel dx="1422" dy="798" grid="1" gridSize="10" guides="1" tooltips="1" connect="1" arrows="1" fold="1" page="1" pageScale="1" pageWidth="827" pageHeight="1169" math="0" shadow="0">
      <root>
        <mxCell id="0" />
        <mxCell id="1" parent="0" />
        <mxCell id="8962rQQDY3VNNf6We3Pp-1" value="" style="strokeWidth=1;shadow=1;dashed=0;align=center;html=1;shape=mxgraph.mockup.containers.browserWindow;rSize=0;strokeColor2=#008cff;strokeColor3=#c4c4c4;mainText=,;recursiveResize=0;strokeColor=#FFFFFF;fontColor=#FFFFFF;sketch=0;" parent="1" vertex="1">
          <mxGeometry width="1150" height="1340" as="geometry" />
        </mxCell>
        <mxCell id="8962rQQDY3VNNf6We3Pp-2" value="Page 1" style="strokeWidth=1;shadow=0;dashed=0;align=center;html=1;shape=mxgraph.mockup.containers.anchor;fontSize=17;fontColor=#666666;align=left;" parent="8962rQQDY3VNNf6We3Pp-1" vertex="1">
          <mxGeometry x="60" y="12" width="110" height="26" as="geometry" />
        </mxCell>
        <mxCell id="8962rQQDY3VNNf6We3Pp-3" value="https://www.example.com" style="strokeWidth=1;shadow=0;dashed=0;align=center;html=1;shape=mxgraph.mockup.containers.anchor;rSize=0;fontSize=17;fontColor=#666666;align=left;" parent="8962rQQDY3VNNf6We3Pp-1" vertex="1">
          <mxGeometry x="130" y="60" width="250" height="26" as="geometry" />
        </mxCell>
        <mxCell id="8962rQQDY3VNNf6We3Pp-6" value="PHOTOS" style="rounded=1;fillColor=#F1F2F4;strokeColor=none;html=1;fontColor=#596780;align=left;fontSize=10;spacingLeft=10" parent="8962rQQDY3VNNf6We3Pp-1" vertex="1">
          <mxGeometry x="850" y="127" width="90" height="33" as="geometry" />
        </mxCell>
        <mxCell id="8962rQQDY3VNNf6We3Pp-8" value="NEWS" style="rounded=1;fillColor=#F1F2F4;strokeColor=none;html=1;fontColor=#596780;align=left;fontSize=10;spacingLeft=10" parent="8962rQQDY3VNNf6We3Pp-1" vertex="1">
          <mxGeometry x="740" y="127" width="90" height="33" as="geometry" />
        </mxCell>
        <mxCell id="8962rQQDY3VNNf6We3Pp-10" value="BOOK" style="rounded=1;fillColor=#F1F2F4;strokeColor=none;html=1;fontColor=#596780;align=left;fontSize=10;spacingLeft=10" parent="8962rQQDY3VNNf6We3Pp-1" vertex="1">
          <mxGeometry x="630" y="127" width="90" height="33" as="geometry" />
        </mxCell>
        <mxCell id="8962rQQDY3VNNf6We3Pp-12" value="STUDIO" style="rounded=1;fillColor=#F1F2F4;strokeColor=none;html=1;fontColor=#596780;align=left;fontSize=10;spacingLeft=10" parent="8962rQQDY3VNNf6We3Pp-1" vertex="1">
          <mxGeometry x="520" y="127" width="90" height="33" as="geometry" />
        </mxCell>
        <mxCell id="8962rQQDY3VNNf6We3Pp-16" value="&lt;div align=&quot;left&quot;&gt;live-sound-compound&lt;/div&gt;" style="text;html=1;strokeColor=none;fillColor=none;align=left;verticalAlign=middle;whiteSpace=wrap;rounded=0;fontSize=13;fontColor=#0066CC;" parent="8962rQQDY3VNNf6We3Pp-1" vertex="1">
          <mxGeometry x="160" y="133.5" width="100" height="20" as="geometry" />
        </mxCell>
        <mxCell id="8962rQQDY3VNNf6We3Pp-18" value="" style="verticalLabelPosition=bottom;shadow=0;dashed=0;align=center;html=1;verticalAlign=top;strokeWidth=1;shape=mxgraph.mockup.graphics.simpleIcon;strokeColor=#999999;fontSize=13;fontColor=#0066CC;" parent="8962rQQDY3VNNf6We3Pp-1" vertex="1">
          <mxGeometry x="680" y="800" width="50" height="50" as="geometry" />
        </mxCell>
        <mxCell id="8962rQQDY3VNNf6We3Pp-19" value="" style="verticalLabelPosition=bottom;shadow=0;dashed=0;align=center;html=1;verticalAlign=top;strokeWidth=1;shape=mxgraph.mockup.graphics.simpleIcon;strokeColor=#999999;fontSize=13;fontColor=#0066CC;" parent="8962rQQDY3VNNf6We3Pp-1" vertex="1">
          <mxGeometry x="780" y="800" width="50" height="50" as="geometry" />
        </mxCell>
        <mxCell id="8962rQQDY3VNNf6We3Pp-20" value="" style="verticalLabelPosition=bottom;shadow=0;dashed=0;align=center;html=1;verticalAlign=top;strokeWidth=1;shape=mxgraph.mockup.graphics.simpleIcon;strokeColor=#999999;fontSize=13;fontColor=#0066CC;" parent="8962rQQDY3VNNf6We3Pp-1" vertex="1">
          <mxGeometry x="880" y="800" width="50" height="50" as="geometry" />
        </mxCell>
        <mxCell id="8962rQQDY3VNNf6We3Pp-21" value="" style="verticalLabelPosition=bottom;shadow=0;dashed=0;align=center;html=1;verticalAlign=top;strokeWidth=1;shape=mxgraph.mockup.graphics.simpleIcon;strokeColor=#999999;fontSize=13;fontColor=#0066CC;" parent="8962rQQDY3VNNf6We3Pp-1" vertex="1">
          <mxGeometry x="680" y="890" width="50" height="50" as="geometry" />
        </mxCell>
        <mxCell id="8962rQQDY3VNNf6We3Pp-22" value="" style="verticalLabelPosition=bottom;shadow=0;dashed=0;align=center;html=1;verticalAlign=top;strokeWidth=1;shape=mxgraph.mockup.graphics.simpleIcon;strokeColor=#999999;fontSize=13;fontColor=#0066CC;" parent="8962rQQDY3VNNf6We3Pp-1" vertex="1">
          <mxGeometry x="780" y="890" width="50" height="50" as="geometry" />
        </mxCell>
        <mxCell id="8962rQQDY3VNNf6We3Pp-23" value="" style="verticalLabelPosition=bottom;shadow=0;dashed=0;align=center;html=1;verticalAlign=top;strokeWidth=1;shape=mxgraph.mockup.graphics.simpleIcon;strokeColor=#999999;fontSize=13;fontColor=#0066CC;" parent="8962rQQDY3VNNf6We3Pp-1" vertex="1">
          <mxGeometry x="880" y="890" width="50" height="50" as="geometry" />
        </mxCell>
        <mxCell id="8962rQQDY3VNNf6We3Pp-24" value="" style="verticalLabelPosition=bottom;shadow=0;dashed=0;align=center;html=1;verticalAlign=top;strokeWidth=1;shape=mxgraph.mockup.graphics.simpleIcon;strokeColor=#999999;fontSize=13;fontColor=#0066CC;" parent="8962rQQDY3VNNf6We3Pp-1" vertex="1">
          <mxGeometry x="680" y="980" width="50" height="50" as="geometry" />
        </mxCell>
        <mxCell id="8962rQQDY3VNNf6We3Pp-25" value="" style="verticalLabelPosition=bottom;shadow=0;dashed=0;align=center;html=1;verticalAlign=top;strokeWidth=1;shape=mxgraph.mockup.graphics.simpleIcon;strokeColor=#999999;fontSize=13;fontColor=#0066CC;" parent="8962rQQDY3VNNf6We3Pp-1" vertex="1">
          <mxGeometry x="780" y="980" width="50" height="50" as="geometry" />
        </mxCell>
        <mxCell id="8962rQQDY3VNNf6We3Pp-26" value="" style="verticalLabelPosition=bottom;shadow=0;dashed=0;align=center;html=1;verticalAlign=top;strokeWidth=1;shape=mxgraph.mockup.graphics.simpleIcon;strokeColor=#999999;fontSize=13;fontColor=#0066CC;" parent="8962rQQDY3VNNf6We3Pp-1" vertex="1">
          <mxGeometry x="880" y="980" width="50" height="50" as="geometry" />
        </mxCell>
        <mxCell id="8962rQQDY3VNNf6We3Pp-27" value="" style="strokeWidth=1;shadow=0;dashed=0;align=center;html=1;shape=mxgraph.mockup.buttons.multiButton;fillColor=#008cff;strokeColor=#666666;mainText=;subText=;fontSize=13;fontColor=#0066CC;" parent="8962rQQDY3VNNf6We3Pp-1" vertex="1">
          <mxGeometry x="204" y="810" width="200" height="210" as="geometry" />
        </mxCell>
        <mxCell id="8962rQQDY3VNNf6We3Pp-28" value="These companies&lt;br&gt;trust us" style="strokeWidth=1;shadow=0;dashed=0;align=center;html=1;shape=mxgraph.mockup.anchor;fontSize=16;fontColor=#ffffff;fontStyle=1;whiteSpace=wrap;" parent="8962rQQDY3VNNf6We3Pp-27" vertex="1">
          <mxGeometry y="33.6" width="200" height="84" as="geometry" />
        </mxCell>
        <mxCell id="8962rQQDY3VNNf6We3Pp-29" value="" style="strokeWidth=1;shadow=0;dashed=0;align=center;html=1;shape=mxgraph.mockup.anchor;fontSize=12;fontColor=#ffffff;fontStyle=1;whiteSpace=wrap;" parent="8962rQQDY3VNNf6We3Pp-27" vertex="1">
          <mxGeometry y="126" width="200" height="42" as="geometry" />
        </mxCell>
        <mxCell id="8962rQQDY3VNNf6We3Pp-35" value="" style="verticalLabelPosition=bottom;shadow=0;dashed=0;align=center;html=1;verticalAlign=top;strokeWidth=1;shape=mxgraph.mockup.markup.line;strokeColor=#999999;fillColor=#008CFF;fontSize=13;fontColor=#0066CC;" parent="8962rQQDY3VNNf6We3Pp-1" vertex="1">
          <mxGeometry y="1180" width="1150" height="20" as="geometry" />
        </mxCell>
        <mxCell id="8962rQQDY3VNNf6We3Pp-30" value="" style="shape=rect;fillColor=#ffffff;strokeColor=#eeeeee;shadow=0;fontSize=13;fontColor=#0066CC;" parent="8962rQQDY3VNNf6We3Pp-1" vertex="1">
          <mxGeometry x="425" y="1230" width="300" height="40" as="geometry" />
        </mxCell>
        <mxCell id="8962rQQDY3VNNf6We3Pp-31" value="BUTTON" style="shape=rect;strokeColor=none;fillColor=none;fontSize=12;fontColor=#2196F3;dashed=0;" parent="8962rQQDY3VNNf6We3Pp-30" vertex="1">
          <mxGeometry width="75" height="40" as="geometry" />
        </mxCell>
        <mxCell id="8962rQQDY3VNNf6We3Pp-32" value="BUTTON" style="shape=rect;strokeColor=none;fillColor=none;fontSize=12;fontColor=#2196F3;dashed=0;" parent="8962rQQDY3VNNf6We3Pp-30" vertex="1">
          <mxGeometry x="75" width="75" height="40" as="geometry" />
        </mxCell>
        <mxCell id="8962rQQDY3VNNf6We3Pp-33" value="BUTTON" style="shape=rect;strokeColor=none;fillColor=none;fontSize=12;fontColor=#2196F3;dashed=0;" parent="8962rQQDY3VNNf6We3Pp-30" vertex="1">
          <mxGeometry x="150" width="75" height="40" as="geometry" />
        </mxCell>
        <mxCell id="8962rQQDY3VNNf6We3Pp-34" value="BUTTON" style="shape=rect;strokeColor=none;fillColor=none;fontSize=12;fontColor=#2196F3;dashed=0;" parent="8962rQQDY3VNNf6We3Pp-30" vertex="1">
          <mxGeometry x="225" width="75" height="40" as="geometry" />
        </mxCell>
        <mxCell id="8962rQQDY3VNNf6We3Pp-36" value="" style="shape=image;html=1;verticalAlign=top;verticalLabelPosition=bottom;labelBackgroundColor=#ffffff;imageAspect=0;aspect=fixed;image=https://cdn3.iconfinder.com/data/icons/peelicons-vol-1/50/LinkedIn-128.png;fillColor=#008CFF;fontSize=13;fontColor=#0066CC;" parent="8962rQQDY3VNNf6We3Pp-1" vertex="1">
          <mxGeometry x="870" y="1235" width="30" height="30" as="geometry" />
        </mxCell>
        <mxCell id="8962rQQDY3VNNf6We3Pp-37" value="" style="shape=image;html=1;verticalAlign=top;verticalLabelPosition=bottom;labelBackgroundColor=#ffffff;imageAspect=0;aspect=fixed;image=https://cdn3.iconfinder.com/data/icons/peelicons-vol-1/50/Facebook-128.png;fillColor=#008CFF;fontSize=13;fontColor=#0066CC;" parent="8962rQQDY3VNNf6We3Pp-1" vertex="1">
          <mxGeometry x="920" y="1235" width="30" height="30" as="geometry" />
        </mxCell>
        <mxCell id="8962rQQDY3VNNf6We3Pp-38" value="" style="shape=image;html=1;verticalAlign=top;verticalLabelPosition=bottom;labelBackgroundColor=#ffffff;imageAspect=0;aspect=fixed;image=https://cdn3.iconfinder.com/data/icons/peelicons-vol-1/50/Twitter-128.png;fillColor=#008CFF;fontSize=13;fontColor=#0066CC;" parent="8962rQQDY3VNNf6We3Pp-1" vertex="1">
          <mxGeometry x="970" y="1235" width="30" height="30" as="geometry" />
        </mxCell>
        <mxCell id="5F5hi9juugYW_dB_1AY9-2" value="" style="shape=image;verticalLabelPosition=bottom;labelBackgroundColor=#ffffff;verticalAlign=top;aspect=fixed;imageAspect=0;image=data:image/jpeg,/9j/4AAQSkZJRgABAQAAAQABAAD/7QA2UGhvdG9zaG9wIDMuMAA4QklNBAQAAAAAABkcAmcAFC14WEVwWFZGTk9SQU40WlQtRkd1AP/bAEMAAQEBAQEBAQEBAQEBAQEBAQEBAQEBAQEBAQEBAQEBAQEBAQEBAQEBAQEBAQEBAQEBAQEBAQEBAQEBAQEBAQEBAf/bAEMBAQEBAQEBAQEBAQEBAQEBAQEBAQEBAQEBAQEBAQEBAQEBAQEBAQEBAQEBAQEBAQEBAQEBAQEBAQEBAQEBAQEBAf/CABEIBaAFoAMBIgACEQEDEQH/xAAeAAEAAgMAAwEBAAAAAAAAAAAACAkGBwoDBAUCAf/EAB0BAQADAAMBAQEAAAAAAAAAAAAGBwgEBQkDAQL/2gAMAwEAAhADEAAAAYHgAAAAAAAAAAAAAAAAAAAAAAAAAAAAAAAAAAAAAAAAAAAAAAAAAAAAAAAAAAAAAAAAAAAAAAAAAAAAAAAAAAAAAAAAAAAAAAAAAAAAAAAAAAAAAAAAAAAAAAAAAAAAAAAAAAAAAAAAAAAAAAAAAAAAAAAAAAAAAAAAAAAAAAAAAAAAAAAAAAAAAAAAAAAAAAAAAAAAAAAAAAAAAAAAAAAAAAAAAAAAAAAAAAAAAAAAAAAAAAAAAAAAAAAAAAAAAAAAAAAAAAAAAAAAAAAAAAAAAAAAAAAAAAAAAAAAAAAAAAAAAAAAAAAAAAAAAAAAAAAAAAAAAAAAAAAAAAAAAAAAAAAAAAAAAAAAAAAAAAAAAAAAAAAAAAAAAAAAAAAAAAAAAAAAAAAAAAAAAAAAAAAAAAAAAAAAAAAAAAAAAAAAAAAAAAAAAAAAAAAAAAAAAAAAAAAAAAAAAAAAAAAAAAAAAAAAAAAAAAAAAAAAAAAAAAAAAAAAAAAAAAAAAAAAAAAAAAAAAAAAAAAAAAAAAAAAAAAAAAAAAAAAAAAAAAAAAAAAAAAAAAAAAAAAAAAAAAAAAAAAAAAAAAAAAAAAAAAAAAAAAAAAAAAAAAAAAAAAAAAAAAAAAAAAAAAAAAAAAAAAAAAAAAAAAAAAAAAAAAAAAAAAAAAAAAAAAAAAAAAAAAAAAAAAAAAAAAAAAAAAAAAAAAAAAAAAAAAAAAAAAAAAAAAAAAAAAAAAAAAAAAAAAAAAAAAAAAAAAAAAAAAAAAAAAAAAAAAAAAAAAAAAAAAAAAAAAAAAAAAAAAAAAAAAAAAAAAAAAAAAAAAAAAAAAAAAAAAAAAAAAAAAAAAAAAAAAAAAAAAAAAAAAAAAAAAAAAAAAAAAAAAAAAAAAAAAAAAAAAAAAAAAAAAAAAAAAAAAAAAAAAAAAAAAAAAAAAAAAAAAAAAAAAAAAAAAAAAAAAAAAAAAAAAAAAAAAAAAAAAAAAAAAAAAAAAAAAAAAAAAAAAAAAAAAAAAAAAAAAAAAAAAAAAAAAAAAAAAAAAAAAAAAAAAAAAAAAAAAAAAAAAAAAAAAAAAAAAAAAAAAAAAAAAAAAAAAAAAAAAAAAAAAAAAAAAAAAAAAAAAAAAAAAAAAAAAAAAAAAAAAAAAAAAAAAAAAAAAAAAAAAAAAAAAAAAAAAAAAAAAAAAAAAAAAAAAAAAAAAAAAAAAAAAAAAAAAAAAAAAAAAAAAAAAAAAAAAAAAAAAAAAAAAAAAAAAAAAAAAAAAAAAAAAAAAAAAAAAAAAAAAAAAAAAAAAAAAAAAAAAAAAAAAAAAAAAAAAAAAAAAAAAAAAAAAAAAAAAAAAAAAAAAAAAAAAAAAAAAAAAAAAAAAAAAAAAAAAAAAAAAAAAAAAAAAAAAAAAAAAAAAAAAAAAAAAAAAAAAAAAAAAAAAAAAAAAAAAAAAAAAAAAAAAAAAAAAAAAAAAAAAAAAAAAAAAAAAAAAAAAAAAAAAAAAAAAAAAAAAAAAAAAAAAAAAAAAAAAAAAAAAAAAAAAAAAAAAAAAAAAAAAAAAAAAAAAAAAAAAAAAAAAAAAAAAAAAAAAAAAAAAAAAAAAAAAAAAAAAAAAAAAAAAAAAAAAAAAAAAAAAAAAAAAAAAAAAAAAAAAAAAAAAAAAAAAAAAAAAAAAAAAAAAAAAAAAAAAAAAAAAAAAAAAAAAAAAAAAAAAAAAAAAAAAAAAAAAAAAAAAAAAAAAAAAAAAAAAAAAAAAAAAAAAAAAAAAAAAAAAAAAAAAAAAAAAAAAAAAAAAAAAAAAAAAAAAAAAAAAAAAAAAAAAAAAAAAAAAAAAAAAAAAAAAAAAAAAAAAAAAAAAAAAAAAAAAAAAAAAAAAAAAAAAAAAAAAAAAAAAAAAAAAAAAAAAAAAAAAAAAAAAAAAAAAAAAAAAAAAAAAAAAAAAAAAAAAAAAAAAAAAAAAAAAAAAAAAAAAAAAAAAAAAAAAAAAAAAAAAAAAAAAAAAAAAAAAAAAAAAAAAAAAAAAAAAAAAAAAAAAAAAAAAAAAAAAAAAAAAAAAAAAAAAAAAAAAAAAAAAAAAAAAAAAAAAAAAAAAAAAAAAAAAAAAAAAAAAAAAAAAAAAAAAAAAAAAAAAAAAAAAAAAAAAAAAAAAAAAAAAAAAAAAAAAAAAAAAAAAAAAAAAAAAAAAAAAAAAAAAAAAAAAAAAAAAAAAAAAAAAAAAAAAAAAAAAAAAAAAAAAAAAAAAAAAAAAAAAAAAAAAAAAAAAAAAAAAAAAAAAAAAAAAAAAAAAAAAAAAAAAAAAAAAAAAAAAAAAAAAAAAAAAAAAAAAAAAAAAAAAAAAAAAAAAAAAAAAAAAAAAAAAAAAAAAAAAAAAAAAAAAAAAAAAAAAAAAAAAAAAAAAAAAAAAAAAAAAAAAAAAAAAAAAAAAAAAAAAAAAAAAAAAAAAAAAAAAAAAAAAAAAAAAAAAAAAAAAAAAAAAAAAAAAAAAAAAAAAAAAAAAAAAAAAAAAAAAAAAAAAAAAAAAAAAAAAAAAAAAAAAAAAAAAAAAAAAAAAAAAAAAAAAAAAAAAAAAAAAAAAAAAAAAAAAAAAAAAAAAAAAAAAAAAAAAAAAAAAAAAAAAAAAAAAAAAAAAAAAAAAAAAAAAAAAAAAAAAAAAAAAAAAAAAAAAAAAAAAAAAAAAAAAAAAAAAAAAAAAAAAAAAAAAAAAAAAAAAAAAAAAAAAAAAAAAAAAAAAAAAAAAAAAAAAAAAAAAAAAAAAAAAAAAAAAAAAAAAAAAAAAAAAAAAAAAAAAAAAAAAAAAAAAAAAAAAAAAAAAAAAAAAAAAAAAAAAAAAAAAAAAAAAAAAAAAAAAAAAAAAAAAAAPD9U9Bm3vmumc42fKfgfsAAAAAAAAAAAAB4fcPCy37BrpnmNnx34H7AAAAAAAAAAAAAAAAAAAAAAAAAAAAAAAZPtmIy+P6Z2wartaCeWzQQOfxO+hKFH5HGj8SacXkxW+JMR2HXQYxKxTxSmKVyJ1a2sOuYvNma2tap/wO26kAAAAAAAAAADzezteXVHXpXcsRQmcV3LERXcsRFdyxEV3LERXd4bF48SeLRmGgM+AAAAAAGXWnFSUyL2M9Ks5Ky3Gv8AOfOAHj8gxHTckhXLFG8gcr+s+uGHZzxJlw0AAAAAAABOsgjvi9CU5TbKycw1Bs/6AAAxXTcjhXLEm9AcqWAdbUIygFJqMoAAAAAAAAAAAAAAAAAAAAAAAAAP3+fv4827ZG0zdEad67BZv0sFdWSAAAAAAA+L9p9+NHnQtgHiualK5Ero3aXzJ8ITiDAAAAAAAAAbll3ESXeKtuhTF1gAAAI8SHjxZVYRmG8sDAAAAAJ1bnuXMD2AAAAAAAAACF80By1ao6tefAiyAAAABubbl/BHqW4AAAAAAAAeCuex8cn2KdQXPWaRAAAAAAAAAAAAAAAAAAAAAAAfuSEWlWrZW5b5cc7LCsrTAAAAAAAAAAAej7z6fKMkfbHcA0NnODzJsZ1PlIOXxQAAAAAANyy7iJLvFW3Qpi6wAAAEeJDx4sqsIzDeWBgAAAE/oWdQpnP7AAAAAAAAAABh2Yjl50z0E8+wAAAlfozpoMr+6B+f0AAAAAAAAANb7IHLtpzpi5rz5oAAAAAAAAAAAAAAAAAAAAH0fcmpWFofD2WYn3CHVduAAAAAAAAAAAAAB8uH81PDYVcVytyab2/hoO76MAAAAADcsu4iS7xVt0KYusAAABHqQseLKrGMw3lgUAAAC0+52K8qAAAAAAAAAAAAD1eWvqeojK7wADdhbJY56vtAAAAAAAAAAAACl+6DUJy4gAAAAAAAAAAAAAAAAAAAfa9Cbta2Z7+UmGd3Bw+cAAAAAAAMR5vAy5HnAbNq+YiCny5ZEp/oC/b+X2m+irtSCzzazxeWubHD8/sADxxIl34ZxA65WzNZ7vwQHa9UAAAABuWXcRJd4q26FMXWAAAAjxIePFlVhGYbywMAAA+r8qQZ0sfRAAAAAfJNC1QxJ1uWEW98vk5zoFAAAAAqvtQgoc/wAFxlOHTWSEAAAAANfEYa4oO+iT4tM5u9vnUaAAAAADmnjXaJV2AAAAAAAAAAAAAAAAAADe8fkGydwHn76Fh0vegAAAAAD5n2+H09V6O1JpfMWfYCaOzYHY9cAABkEkYnILOrIENJe442d7wglgAAfMgxPrALcp2Dz9/jb+GQ/QAAAG5ZdxEl3irboUxdYAAACPEh48WVWEZhvLAwAACbkI7Gy9EAAAACIEv65Ci4DcGn8tOr8AAAACLEp9GHMM8fkAPc60uXXqYAAAAAEJJt1slHIHh83jOsfKdK7qAAAAAK3KNujHnOAAAAAAAAAAAAAAAAAAMjnfq7b+J9vBTd1AAAAAAD0fp8fmwo82Ibbw4Fu1AAAAAAA2Hrx1nZ2L+zFiU+CPQAIbNQAIyR6sVgVsTGWPi+KEAAAA3LLuIku8VbdCmLrAAAAR4kPHqyqxjIN5YFAAAWe1hWlF0QAAAAFbVksBSg0DJMbyQ6yAAAAANY7O12cqPm9X2gCRvS/wA5vRkAAAAAKr7UKoinAAHTHImM8mAAAAADTPLr1jcnJ5AAAAAAAAAAAAAAAAAM+wGZNb2VtcYL38AAAAAAAinv+B+i82/gaxySAAAAAAAZZt2GzOO07vxmuYNRhSl5AANG7y8UhjdcjIMf9EvOQOTxgAANyy7iJLvFW3Qpi6wAAAEeJDx4sqsIzDeWBgAAFo1XNk5eKAAAABHiQ/rHIz+9w6eGSY3kh1kMV/hlbE/0ZUxT+GWMV/BlrFf4ZXrr7WAnLl7Xh8wBNfoV5/OgMAAAAAVQ2vVQlOIAOlOTMZpMgAAAAHj5Heubk0MeAAAAAAAAAAAAAAAABlk9I7SJxXtoKXu4AAAAAACL8f8AL8Q9DPOgJhDgAAD95r13YYOkBsmtrMh5sCZnvVXbEedr5eqK3wh01Mc0/LYdINg+cdFIA6/sQAI8xlsHr72Viz8C8qKAAA3LLuIku8VbdCmLrAAAAR4kPHiyqwjMN5YGAAATngxII6agAAAAAQ157utuJRzkNka3PTe4PTe4PTe4PTe4PTe4PT/fsgACfV+VC99AAAAAAqhteqgKcgAdKcmYzSZAAAAAHKN1c8p5gYAAAAAAAAAAAAAAABmXB50x8nPNz0uDicwAAAAAB6/sfI5PFr5/GZZP6GedOpkhMrikuigm5mcLmkFM4mIgk8jvnezVf2H6PvEJnQ+X+/x9RqDWNiVxK3DIa45bFSSX1NgK4KbCdQWRclYpStw5usKmt0ABCma0f7dpyL42/hoAADcsu4iS7xVt0KYusAAABHiQ8eLKrCMw3lgYAAB7npjrQ+5CGbwAAAAABg1M96I5E3SDSIR5AAAAAABYFfVQrfUAAAAAKoLX6oSnEAHSlJqMsmgAAAAByqdVfKoa+AAAAAAAAAAAAAAAA3zoaWtWWpusYW3oAAAAAAAAAPB/Xz87DcNlEX3IjRg05gc0Mdgx8Sf15L/XuhljVxmWGli1uPLzeH4mzdqQCwIvZfMjKahuKNe4syUzdIQidgAAMKzXxdj1lcj2fW9KPM0P7/gADcsu4iS7xVt0KYusAAAH4jxIePFlVhGYbywOAAABPq/Lkc6ezdAAAAAAAHzfpCqqoHrT0qcvqWMTgAAAACwK+qhW+oAAAAAVQWv1QFOQAOlOS8Z5NAAAAADlU6q+VQ18AAAAAAAAAAAAAAABOiC9hmdtGfUGTNeAAAAAAAAaD1Xl+gNsYdybHPwtmpA5fEP3lPC5mJtxZ5BZ3GHzTWzmvLGhRseTatbO1fsX21Y2iP503df1g2qZvBpH4xDrC7ipmTW+6+bEIzJ/6KLvoAACC+D7c1H6KecASiLAAbll3ESXeKtuhTF1gAAAI8SHjxZVYRmG8sDAAAAJxQdHXYq8tDAAAAAAAAPUqqtgHJD6PSJQUawAAABYFfVQrfUAAAH5/QAqgtfqeKdAAWY7NqBFvqoIW+/2oEW+qghb8qBFvyoEW+1R48AAAAAAAAAAAAAAAAPNY1XpYXlnVgZp04AAAAAAABrSNE4lp1PETJpKuTx9MZhm6ITD1PbIrLB4/wCf68jEMAlUS3cihriyK0m1rSIy0Kt3RrL4i1KoCSxoDcMv8EzvBG/grqygAAIraIkNHne/n6Fi1yABuWXcRJd4q26FMXWAAAAjxIePFlVhGYbywMAAAAB+7rKUPwdd/wCaM7rz74AAAAAAAGttkjmyjB1mc+xDwAAFgV9VCt9QAAAAAqhteqeKdAAAAAAAAAAAAAAAAAAAAAAAAAfYsIrusRyrq8M26ZAAAAAAAAHxeRxvtIQYzfufp6YfB/8AsxhcrsM0ImsH2JhXoJ3Aw7bqAfoAADdelJMVxZEiBgr0AAAAAjTHWQEf95YCCyq0AA3LLuIku8VbdCmLrAAAAR4kPHiyqwjMN5YGAAAAAAb70IOmKRXJJb+WuPS90AAAAAAAY9kI5qI1dQvMifIABYFfVQrfUAAAAAKobXqninQAAAAAAAAAAAAAAAAAAAAAAAACxyt+wTNmlsgGVtZAAAAAAAAARljzY/G7UeU44v3+NMZkD9/AAAAAAG7tI7zgM/laMA+hIAAAETdI7R1d6D+dgTWFAAbll3ESXeKtuhTF1gAAAI8SHjxZVYRmG8sDAAAAAAAASovT5hPrnWqqttFPdAAAAAAApguf0ccwgALAr6qFb6gAAD8/oAFUNr1UBTkAAAAAAAAAAAAAAAAAAAAAAAABNSFcnqauiQQxRuAAAAAAAAAADX0QLAIw6EzpH0a4yEAAAPt/D7fEbl2hXNkRKzuZf2qlt6OW5snU3dAQ6aAAAD531+MFsZ/n99LPMgOXxAANyy7iJLvFW3Qpi6wAAAfiPEh48WVWEZhvLA4AAAAAAAACV8UB1E7j5OrvSwgAAAAAAHMfoOzGs4AsCvqoVvqAAAAAFUFr9UBTkACcWcWcyXKL16QotXpCi1ekKLV6QotXpCi2v3rU5VDXwAAAAAAAAAAAAAAAG39QfU6CQWGPF5fOP0lD8/sAAAAAAAABhmZud19b6ReM7twTppJvNY7JIX5NOb6lfWFETYO+leWPiGXePB4XM89R21jP4BMnWcP/AA21Ue8MZ1r7ll1fYoPPr0QB+gANX7QjFYNdR8G+/PwAADcsu4iS7xVt0KYusAAABHiQ8eLKrCMw3lgYAAB7PrZGSldEg523RIOdt0SDnbdEg523RIOdv0ejLAjlN/freyWh3OckFkpeOAAAAACtOj/on52ACwK+qhW+oAAAAAVQ2vVPlOYAOlKTUZpMgAAAADlU6q+UkwkAAAAAAAAAAAAAAAAE1tlRMlngjfwV1ZQAAAAAAAAAA0RIY5vdDXCbcp+dOCQw/s/r6SOu9ZLDrj3/AECcwYPp8wHj8j9/LCfr4Dn3m16Xh0/dAAIES5g7qTKYaYzGAABuWXcRJd4q26FMXWAAAAjxIePFlVhGYbywMAAAyDH8jOskAAAADA88wI5R/Z9b2QDp03xVtaSAAAAAaI5h+rHlLPMCe9+vPp0FgAAAACp+2CqApyAB0pyZjLJoAAAAAcoHV/yVnxwAAAAAAAAAAAAAAAAe3YDXnJeib4kSMc7QAAAAAAAAAARqkrh83gsDx6C+eIAAAAAEvtxR6kLgP0ECv7EAGPcniRq0r5vD6K+cId90AAAG5ZdxEl3irboUxdYAAACPEh48WVWEZhvLAwAADIce+wdaj8fsAAAAYHnmBHKP7PreyAWUXic+vQUAAAAAY3yb9afJefgExuibms6UwAAAABVBa/U+U5gA6U5MxpksAAAAAeDka6veT48gAAAAAAAAAAAAAAAAH1Plvj9rD/oxik759ehwQ6aAAAAAAAAAAQRw2Ska/QbzuCbQgAAAADekrIYTPxXtoKXu4BFLfcFNGZs/A1hkoAAADcsu4iS7xVt0KYusAAABHqQseLKrGMw3lgUAAB5vD6x1xfTwjNwAAABgWe4Mcofs+t7IBMnoj53OiMAAAAA+JyXdXnKAfsG4eovkr6zTzgAAAAVT2sVgFKQHj8njOmqQ2mtygAAAAGnOXLo/5xAAAAAAAAAAAAAAAAAADzTjgtl9Y2fPF6nt4U3oH8fUAAAAAAAADGIDWQQa0zl7BBqPLAAAAAGUz3rosVynrD9DN+mHj8kdJPFNV6+PQPzzDsuuAAAA3LLuIku8VbdCmLrAAAAay2a7XqYvJQrDriLyUIi8lCIvawnhEiya10sNN5e6YJGQQneAAAAPkfXHIt+NtalALCL5K1LKwAAAADVXLF0o82gB4eqblf6GyaIAAAAFfNg0bzmjfj9jw+bZJ0+ZOAAAAAFeFEVs1TIAAAAAAAAAAAAAAAAAABuqW1b8k816XkaMr6xAAAAAAAAAR8kHj8th1f49D/OgAAAADx2D1+Tcz7oXYhh+Uta/Ehb9H5e78DBYFfAAAAAbll3ESXeKtuhTF1gAAAAAAAIkS3iRctL6WG18P26W8c5/RgAAAAAVnUm9ceOHJhM++LYJ8j64AAAAAV50P2pVWgC32oKWp0bgAAAAeHzDn0gx15YAcrF0tjeTAAAAAAxEoFh39X5QAAAAAAAAAAAAAAAAAAABKXfdb8k8t6pkaMz6fAAAAAAAAAhHruVMVt9+fAWDXwAAACXER9yVjZ8k4S/j4vy+4WnVIAAAAAG5ZdxEl3irboUxdYAAAAAAACJEt4kXLS+lhtfD/udUfKhbWXAgAAAAAAAAAAAEWCjqP/j8gA83hHUbt+j28IAAAAAAAAAAAAVYWC8x5hoAAAAAAAAAAAAAAAAAAAAAN1Srrqy+ir3niwjN8kbADr+xAAAAAAA+RXzY7C/R2atXjV2TAAAAAAAAAAAAANyy7iJLvFW3Qpi6wAAAAAAAESJbxIuWl9LDa+H31Pljpdkfyx9F5u0AAAAAAAAAA+cfjnD3bXsAAAebof52s0OrhHKRp+f0AAAAAAAAAD4vr0DHwolgAAAAAAAAAAAAAAAAAAAAAAB+9/x9RqS2HfSr0kFlzVEiXzPp0heofL7AAAAANI7u+dJIxXg83h9FfOAP7/kAAAAAAAAAAADcsu4iS7xVt0KYusAAAAAAABEiW8SLlpfSw2vh8BnODDoOm9yJz6L8mkd3AAAAAAABi9YBYtRLGbFwAAAADKr2Of0ddigq4U3gAAAAAAAYsZToiv2qM3fHkAAAAAAAAAAAAAAAAAAAAAAAAAAPc3Jo9HZFNjYdcn1KUvCwxD7YVUW1v9rXLYJPPuvH5Oj70Pz+x8z68f6bCMMlEX1FqbZms9xYUCWxIAAAAAAAAAAADL9rx5Q6ZyGR5dN3EhkeRIZHkSGR5EhkeRIZHkSGR5EhkeRIZHkSG1XhruOnCZQwAAD9zWhML3pn8qQ67HLtvw6DVIeaFxCojwlvqlfXJfd8bm8j8dCkCq0RleKAAAAAAAA83hE15/0Ujqi2VyJ7UOphzw7YLxlOH1S3pUVj5cqon0odGMYeeTGy0WuvEQAAAAAAAAAAAAAAAAAAAAAAAAAAAAAAA/H7fv5+/c9B8ft9f8/Kcfkeb1v25fDD+vwAAAAAAAAAAAAAAAAAAAAAAAAAAAAAAAAAAAAAAAAAAAAAAAAAAAAAAAAAAAAAAAAAAAAAAAAAAAAAAAAAAAAAAAAAAAAAAAAAAAAAAAAAAAAAAAAAAAAAAAAAAAAAAAAAAAAAAAAAAAAAAAAAAAAAAAAAAAAAAAAAAAAAAAAAAAAAAAAAAAAAAAAAAAAAAAAAAAAAAAAAAAAAAAAAAAAAAAAAAAAAAAAAAAAAAAAAAAAAAAAAAAAAAAAAAAAAAAAAAAAAAAAAAAAAAAAAAAAAAAAAAAAAAAAAAAAAAAAAAAAAAAAAAAAAAAAAAAAAAAAAAAAAAAAAAAAAAAAAAAAAAAAAAAAAAAAAAAAAAAAAAAAAAAAAAAAAAAAAAAAAAAAAAAAAAAAAAAAAAAAAAAAAAAAAAAAAAAAAAAAAAAAAAAAAAAAAAAAAAAAAAAAAAAAAAAAAAAAAAAAAAAAAAAAAAAAAAAAAAAAAAAAAAAAAAAAAAAAAAAAAAAAAAAAAAAAAAAAAAAAAAAAAAAAAAAAAAAAAAAAAAAAAAAAAAAAAAAAAAAAAAAAAAAAAAAAAAAAAAAAAAAAAAAAAAAAAAAAAAAAAAAAAAAAAAAAAAAAAAAAAAAAAAAAAAAAAAAAAAAAAAAAAAAAAAAAAAAAAAAAAAAAAAAAAAAAAAAAAAAAAAAAAAAAAAAAAAAAAAAAAAAAAAAAAAAAAAAAAAAAAAAAAAAAAAAAAAAAAAAAAAAAAAAAAAAAAAAAAAAAAAAAAAAAAAAAAAAAAAAAAAAAAAAAAAAAAAAAAAAAAAAAAAAAAAAAAAAAAAAAAAAAAAAAAAAAAAAAAAAAAAAAAAAAAAAAAAAAAAAAAAAAAAAAAAAAAAAAAAAAAAAAAAAAAAAAAAAAAAAAAAAAAAAAAAAAAAAAAAAAAAAAAAAAAAAAAAAAAAAAAAAAAAAAAAAAAAAAAAAAAAAAAAAAAAAAAAAAAAAAAAAAAAAAAAAAAAAAAAAAAAAAAAAAAAAAAAAAAAAAAAAAAAAAAAAAAAAAAAAAAAAAAAAAAAAAAAAAAAAAAAAAAAAAAAAAAAAAAAAAAAAAAAAAAAAAAAAAAAAAAAAAAAAAAAAAAAAAAAAAAAAAAAAAAAAAAAAAAAAAAAAAAAAAAAAAAAAAAAAAAAAAAAAAAAAAAAAAAAAAAAAAAAAAAAAAAAAAAAAAAAAAAAAAAAAAAAAAAAAAAAAAAAAAAAAAAAAAAAAAAAAAAAAAAAAAAAAAAAAAAAAAAAAAAAAAAAAAAAAAAAAAAAAAAAAAAAAAAAAAAAAAAAAAAAAAAAAAAAAAAAAAAAAAAAAAAAAAAAAAAAAAAAAAAAAAAAAAAAAAAAAAAAAAAAAAAAAAAAAAAAAAAAAAAAAAAAAAAAAAAAAAAAAAAAAAAAAAAAAAAAAAAAAAAAAAAAAAAAAAAAAAAAAAAAAAAAAAAAAAAAAAAAAAAAAAAAAAAAAAAAAAAAAAAAAAAAAAAAAAAAAAAAAAAAAAAAAAAAAAAAAAAAAAAAAAAAAAAAAAAAAAAAAAAAAAAAAAAAAAAAAAAAAAAAAAAAAAAAAAAAAAAAAAAAAAAAAAAAAAAAAAAAAAAAAAAAAAAAAAAAAAAAAAAAAAAAAAAAAAAAAAAAAAAAAAAAAAAAAAAAAAAAAAAAAAAAAAAAAAAAAAAAAAAAAAAAAAAAAAAAAAAAAAAAAAAAAAAAAAAAAAAAAAAAAAAAAAAAAAAAAAAAAAAAAAAAAAAAAAAAAAAAAAAAAAAAAAAAAAAAAAAAAAAAAAAAAAAAAAAAAAAAAAAAAAAAAAAAAAAAAAAAAAAAAAAAAAAAAAAAAAAAAAAAAAAAAAAAAAAAAAAAAAAAAAAAAAAAAAAAAAAAAAAAAAAAAAAAAAAAAAAAAAAAAAAAAAAAAAAAAAAAAAAAAAAAAAAAAAAAAAAAAAAAAAAAAAAAAAAAAAAAAAAAAAAAAAAAAAAAAAAAAAAAAAAAAAAAAAAAAAAAAAAAAAAAAAAAAAAAAAAAAAAAAAAAAAAAAAAAAAAAAAAAAAAAAAAAAAAAAAAAAAAAAAAAAAAAAAAAAAAAAAAAAAAAAAAAAAAAAAAAAAAAAAAAAAAAAAAAAAAAAAAAAAAAAAAAAAAAAAAAAAAAAAAAAAAAAAAAAAAAAAAAAAAAAAAAAAAAAAAAAAAAAAAAAAAAAAAAAAAAAAAAAAAAAAAAAAAAAAAAAAAAAAAAAAAAAAAAAAAAAAAAAAAAAAAAAAAAAAAAAAAAAAAAAAAAAAAAAAAAAAAAAAAAAAAAAAAAAAAAAAAAAAAAAAAAAAAAAAAAAAAAAAAAAAAAAAAAAAAAAAAAAAAAAAAAAAAAAAAAAAAAAAAAAAAAAAAAAAAAAAAAAAAAAAAAAAAAAAAAAAAAAAAAAAAAAAAAAAAAAAAAAAAAAAAAAAAAAAAAAAAAAAAAAAAAAAAAAAAAAAAAAAAAAAAAAAAAAAAAAAAAAAAAAAAAAAAAAAAAAAAAAAAAAAAAAAAAAAAAAAAAAAAAAAAAAAAAAAAAAAAAAAAAAAAAAAAAAAAAAAAAAAAAAAAAAAAAAAAAAAAAAAAAAAAAAAAAAAAAAAAAAAAAAAAAAAAAAAAAAAAAAAAAAAAAAAAAAAAAAAAAAAAAAAAAAAAAAAAAAAAAAAAAAAAAAAAAAAAAAAAAAAAAAAAAAAAAAAAAAAAAAAAAAAAAAAAAAAAAAAAAAAAAAAAAAAAAAAAAAAAAAAAAAAAAAAAAAAAAAAAAAAAAAAAAAAAAAAAAAAAAAAAAAAAAAAAAAAAAAAAAAAAAAAAAAAAAAAAAAAAAAAAAAAAAAAAAAAAAAAAAAAAAAD/xAA5EAAABAUBBAkDBAEEAwAAAAADBAUGAAECBzAIESA1QBASExQVFzQ3UBghNhYxMjMlI0Fg0CIkJ//aAAgBAQABBQL/AKy6lXROYZU4LAbaco8fo53dQRsOcKQhA+BOuuVE5TlPm510SigEYWAW8vmIkzndOVbXdFEhk9SAnXOVESnKf/ApfeYCMrGIDZy/XFDCVZxJgGY8vhInb8aK2CfgRkLlEDNpeAgYAcCfOUBiCz7qajuhuO6G47objupqO6G47objupqO6mo7objuhuO6G4rBGC5EoVNHzLesBcRckj6XkICE+x9sUuRVrtohTRRQHT0zlKcjKAhnJKVorbKcKumdjGpLemZ3kpL7MdbXqlOU5clOcpQ27aPp1wh6XVASErT1bZNggwWSk0gli5aW4ZQ0Y5JStHbdUhW0zsY3Jd0zvEjJeajla9fzZJGVVGCjBHnBVnIReACpUtLDXTKuRpuopyDTCKVwdaS0UiuiuivmGLxrbONs42zjbONs42zjbONs42zjbONs42zh/wDp8yGgLbmPs7TQXDkhttvtovlEDDGDdli2C6IeljXo0eQ/ebKsE7XNJqWeYbQllMAgGQnbp/Yzih7WjeTGnKcqvlgwxBxE5kqBiE9sIydyRtOJH6VBiBThQSVBNr5Zi8ZyP/0+W2Vj1Z5yb7aQ2on8k/7LNZ7w8GQ4mMoZGUw3E/FBgWdazDlyNVMq5XG0/orghbQ1duKXyVFFddaSyTRiCKYQTA+VroprpVGQSNQoJh5LE5Ri8ZyP/wBPjnOVMWYspSoUSlKmXKL7fR3Ol3QtcpW7UMVrLTH7gmUVFS26m8o9mG3n6mP1gLtvlb5BGbh5Ymloaej0cyOACZDWWROiK6K6K+SYvGcj/wDT47F2wpeCpsly64ipbjSX8yz7DcmC01szNw1ggQJpZPlnS10d3oz7ZCqwV742iiuutCZkqIlKVMucWW+RWqVRJOo4/IsXjOR/+nxIKIccay3UAg2EXmL9MqTpZcpynLebLcUncutVspbQROj7ctctgkrgto4TNJxz4smTMHzKE3CqLRz5omXPALzbMo1fIMXjOS4Hp8WmJr95UuZrDoFoeiDNru3e08sKlAb3NalWTSSP/FJycaVDSOjFUUv8DXRSJQ5WvWmTzsXjOR/+nwzn1ZWYQv0/bfmtS6TIk+N23TTm9HjRRQFRzT6bYTuaU5V0T+IT08wqGklJLI5X4OcpTk6G1NMrzMXjOR/+nwkCU1E+WAoKlsdwLkt+3ZBW1I3BOioupN9EhmQ+ER+ouPVInyEQ93TC3OwT8lyL2IjDFP6jbkG6k3UfcMmJbi6yFcYtku+ifp+43w5cuObHQ0UBFKcmdXElOg0/i8oHe64LAjjXRYmsK04pW1miAnWvgwXfh2iCTxRTkUV01ywV0UV0ORBrRjGVi8ZyP/0+G0xDxG5GM6bAIFHe6DrzcXRp4Xq0i4WPUUV7xbLcnPZK1aNJBt5jdC1Q3G6bOmlA30W+Xxmw9cmqFKkCvfDtRA8LL8krOxOTIUXMrKWIgqKCZWjPQobngOFQDxZWSx0c7kYvGcj/APT4dPJbt7n477Kc0u2HTbw1Ik/cd6QaR7XbhYtM8aADpAAx6gzsyVsekTb1EU139Gx6nE+kwyfhmah96G5E4cLEAFt2HFKeVAdJhLmAOAaB33AjUrRGuiuivGxeM5H/AOnw6YgpVvnHqbH7Nh9Ler7JxY7lgyHt/R/DpYpXvz3yanjHZsnpn/G3I3b2/wAd9CdJu1vwqSnCqx4AAIqByCmpFUoqrK5tZMZ2+vjIw4YgY4e+90bqTxsXjOR/+nw6XKJfqTHqep6zI6UTjmN60dozg/6+m0IPbXOyapqpSQOmf7Wlq61tcdwi9Jxi0fw+EZ6R4cn8gZMgkwFpXHWTfIsxc7uLvjghmAlRPESz2Ji8ZyXA9Ph0tcbx6jyva226UTjmN3fiYX9fTYgKQ108mqic/C9yzn3tjjWi8jKNL9vg20l+KKnIvVZmYM8lt2TQTwikl771S+9EsTF4zkf/AKfDpb47juukVrlu5TlOXQiccxu78TC/r6dPf3ulk1T8N3LN+2OOcpTgSidAnwbRTO4JPILalJLTZznVPkCSCrH4JMGucEW8kJ2GuikShWT5pihhYvGcj/8AT4dL4nVeWOsOgWh/NcZmu/oRpykt+OIkeOIseOIkeOIseOIseOIkeOIseOIkeOIseOIuzxxEh1rSMI1g/wCvp05y23Lyap9nhu5Zv2xyLAfZLHwSGn+JqnIv071h8odFYsyjTXDcFGEXlBJDSU/K+0/rhYWLxnI//T4dOpvu9y8l3rXBXCSDpI2nm+jsAI7ACOwAjsAI7ACOwAjsAI7ACOwAjsAI7ACOwC3dN/uLk1Ty/wAbuWb9scjklKTk+CYRHYDyK+Z74s4aJTrmVbS4cgqwTNUFWaiF4ALAFqd02qpxCR1+l6IbypWrJm+oFKT5KuiuivAxeM5H/wCnw2oUPC7kZbm2lRLhlnS0XCzFLkdNfuBk1T7PDdyzezyxyOuXUdXwSSSknJnIV1SoonXOue5L7zAR1Y1ADKXBoL2/Cgu0UItARcsXlvHV1IIQdfwVMHXMtHY/ecMAz98DuJdzWsDF4zkf/p8JY1WRMpx4FTT8q63kVzptwdPK2gTnKcq8+mv3Byap9nhu5Zv2xyO78t+Bb5PvqzyJ3bMkC21wWQLKXBYCt+POAmIl0QA1kEGAipUDAYOkycjT1RS8G32oCwcWFU7vMomfDU8D9KdcpgYvGcj/APT4rAuGS1brO+7QtR+Uvq2Drt+Lm01+4OTVPL/G7lm/bHI7vy34FhFuub5syrphODD4RwoNPw7VBpxLRyJ7Zz3SSAsH4JMGCSAkJ2JxFe9ouBi8ZyP/ANPi07uzwN5cgMAAaCuHpzJnJqKcopB7Jpr9wcmqfZ4ZuWc9scju/LfgWKB2SRytYgYUDuBFLwO+UUKB7gCQO8V0aB1BQNRslvBhiDzKNJcNQTYRWiCiKlkMs6ZVyHB7uPvsXjOR/wDp8QA45UdgO0s92ryLzYLZfafcS0Dkt+Jj01+4OTVPs8N3LN7PLDI7vy34FuA9gh8k4XSoJKgK8V8WBVpXMRXOuvAHQILMq1141BVgi1QVaCGVgEAEvLdOqyYnSPPwCmAa51hYHKD2K7vsXjOR/wDp8djLhyZrj5IQOgWi5mnouZkaLGSJnDpr9wcmqfZ4buMzUOC02x9VIMfVSDEtVIOz6qQY+qkCPqqAj6qgI+qkCPqpA2fVSBH1UgR9VIMLB+SqsfAkw+yKck/i2w1u0SnXACEsmoLMdZFgswSsoLNVCLwECEBLdnOUpHHGjEYNv6UHXGsn4/3KgzMGtkqcL3D6i5vsXjOR/wDp8c5SnKxF2qVgtydxLVN64ZR2s5eY6pg01+4OTVRwz5IOjricm604RRSAWsviwExVmuAmBALFRqIAbaGWgMEELAaU08lI0+EkCDT5VBoNKSgdnuMojM0rYX9R/kN9i8ZyP/0+SiusIS0d9AFqUf7ci5muiu9JuVa1Zt0e39NfuDk1T8M+SIS6x/nJzlTIyvIxODD7SwoNPtSFg0uK5yP999upfhKZhuBL/W32LxnI/wD0+WcpTi19+T7cmnqBBWJckpJpBXI3XtMct8b3tNfuDk1UcM+STeJcuIaKgyHdCEDAz7Sw4Hf52cDutdMQMZMmJ7JY2Yjd8OYrgfz32LxnI/8A0+diXHcdvzjDuW2rgFOSU00isELo25O27Xd3TX7g5NU/DPkic9hzlD/e+5jOpwiwKpKRiJ/efIME1OoLFcCf/s77F4zkf/p+QJHTqabtxqILHICFoGo5F+s8i+W2okDiQf3NNfuDk1UcM+SlPZOVUq5co8W/OivkmFVOSriftfWVN9i8ZyP/ANPyVvbuua39bKuC2n4R5HUuz5FFHc01+4OTVPwz5Kf7JQnbJnKuBnz2zlOU+QYYfWUcTyE66/vsXjOR/wDp+TIHz6UdtxqIKH4DEDGoz3EbNDvZn33NNfuDk1T7PDfk2iP26Byyy2yKxJUTDKSayS2zmUbK0dgkwQ6YT0lPSqMS2P3hX32LxnI//T8rbu7zjYFbOfTbfSdnukhSblwOnTX7g5NU+zw3cbdgXa6UL6YX1s+mJ97Ppifez6YX1s+mF97Ppifez6YX1s+mF9bPpifcfTC+9n0wvrZPTC/IUiQiYpfAsEztK8u/ik5D4NspQVTlA5BVjqw0FGKkgQVTiJKWQyLIsW2zrnvsXjOR/wDp+WRllWbyla++SW8J5tTyVIBz9Omv3Byap9nhm5Zz2xyO78t+BZBrsVnl15O8US/vLcl95lkRYNQXY6uLBVhJ9EFUJIIxL7S6BRwC1Jt5IpWDb7UBYSVY8YXcLwNd3QsDF4zkf/p8IAQhgfyAutHkBdaPIC60eQF1o8gLrR5AXWjyAutHkBdaPIC60eQF1o8gLrQZsVc8kWlOU5Ram/RhOmELQOHk1Opvbs3p01+4OTVPL/G7lm/bHI7vy34EkamSO0zlXLl3K1jQ58Bjq4sAW/AlADQQAYAJlCsumucqJGnKhk4NP4CUGnatmoEEEHn0FhJgmcL+N7R8DF4zkf8A6fCjcbxun8YB/p6LD3UMIqjkvySkctd06a/cHJqo2eG7lnPbHI5vyf4JqHe+ovNjnyRWRh4oQEGH/KDLvXTEDmjRqe9P9iAnbEcC0d8RVsDF4zkf/p8KNxvG6fxgH+no+8W3csneycdzSvfbeyntl0ab9kri5NVGzwzcs5P/AOY5HDOdbh+CYx7sFDmFp3jpZ0d6LosDqyqaif3njbAnaoW+5VDw5IwsXjOR/wDp8KNxvG6fxgH+np0vK1QzfxuoPtWwH/X0adRNlzsmqfhu5Zv2xyKVfaqXwRYcQqOTNBnSvLv0l98zHE66HvvZR7woYWLxnI//AE+FJnsWcbo/GAf6enTCa7N4Y1ejrpH7dNgRKQrqZNU+zw3cs57Y466pB0znOdfwbEUusHy68Q8RSs1vxP8AQ3lM8GmERBBBxMLF4zkf/p8KfPqKX7yxOn8YB/p6dO40w7nYz9PWIz+1fRZsfu90Mmqjhu5Z6XVtljXhu7Ikv2+DImxSBwqYCOF+XcBLuCvlYInVUN57K3eDWJi8ZyXA9Phor7IQpX1ymJ0/jAP9PTYGrq3UxqXDp/v0W9MyIv7Jqnpl4R0z/jaenqW2x3BM0lGLR/D4RkLHUE5d+ktoeVnCdkv7q4qUo6fXXXXXiYvGcj/9PhGltBbZiRtu4nNLrtsH+npsDT17qY14TskGie2XQmmu4qdNUq6MeqQLrtjpn/G3YPd2Djvga7pa74WiusKtAWKVhP5ZYJSUUzKgidis7k5ypk41mawoY2LxnI40ERbD8vzUeX5qPL81Hl+ajy/NR5fmo8vzULaPWimonFpjffba4jwHeiNdHZCdOmlP7y/cb4MSKM0OWwPoEltoZyj4u08epMrIS3XSJt6iOV7gk49S52kBg/DIiuIjHghQzAXLOUl3BayA1zCGlOU5dLzXepRkYvGeUfnF+jTooyOW1xv5I8Be/TprbVaY1sd5zdJO2G5YNTkp2xx3bSKly3Up7ZdDMSK1535NUyptMfDtFwSICcs/SPXL5J/xTBO2TuhxrtCKVrrrrryMXjPKPzi/RpbVsl9bSHnVWaAHID9oHFt7Nr70OlChZPKY9Sh+krb7c0uLUu7450yqldSziy0lPtA9pYMQ4PYy0ig2h8l+lilXuX8Q0nL15cqpk5H0+cpynkagnaoMLKwXRSh02YPmsrF4zyj84v0WLXJIdych9JS1Kgo1WyQry6o1iQipuWOcH6fuPlONdtKNRFHSEuWRbViqAkHz5lVP/EthzyNS5V1ku4rWRijddHVlYqjlVFRNKxrMxeM8o/OL9BYyORMtldLOZA5q6jjk6n9uBiDACMdzgPJqc1qUeUiiV8W23ZKvlX2R7UjkbK6WRiSgomlQ1nYvGeUfnF+nTU+aaOavC8pMtky3tOj7pRlrmXY6ExnILhXlF0rfxjfdghCAhQTAfJHytB4lXRWFXzjF4zyj84v0kTx1LO23uCn3DbnLmjRckBda4ItwXNvUViBCWhuSBcBC6Ptyp06UTSl2rmD3DWfjkhcPIoiOvkVqjkneS7mtc4xeM8o/OL7jPeCyx1pjPpCfqRyow4JUG894pvCvA3XCqtZZt3cVFuKk8qpqicjEbsXcNv0z8hRXWFWkPcQKCxoucC5B8Eu3TOcYvGeUfnF91uuNbaSrbe9TefHKOh3t9mp1zLxLT/niQ1xWbanbS9yI9eUe9xG0wSVwLluC4Z75MoeNpwyY+Q5wWNFTgeY0WpOFRA6wBObYvGeUfnF99i6gHI2qWlcNoPUHOqLKUhlHrqSKl5LK2rOE/lYd/nK2ZNG4jRe4WdUWEpDKPrUjLqqCgeVjvywBkcqInvk8DBJ1op6KZyrlkeRLuqzzaKrTRjfmCNHmCNHmCNHmCNHmCNHmCNHmCNHmCNHmCNHmCNHmCNHmCNHmCNHmCNHmCNHmCNHmCNHmCNHmCNHmCNC4rzWzeAOsQIRr3+fzehvakWMqQkOltL9GE4fIJ4S7fa3CHJyamHCdhZXFlxmuQDrECEa9/LgN2G/qTZSnCO7ms4KMI45crQv3pt03oc+plYNSW19cchr5sqeOkplXssgwXfxKqAHagDwGppw8Srpr3J/aKzhMKBnIhgQO+kgKF5x+O0fOUf8AhWmXDfaLSS1D3OKwW1QOsOkPVSZ2S1T0bK9VNcC6o12cjupK4pmFO79zFaDhw4fE5aUtlaY+nqjUkdQF0CcFtTzyDkHqoUJRRqo2xPVRKBtU6pVBvUy+h5KV7LnqclJYVlgSUpS/4FslEq65RI4clHiChEz5+cTEGnE5Sn/1mn//xABcEQABAwICBQMLDggLBgcAAAABAgMEBREGEgAHITFBExQgCBUiMDI2UFFhdcMXIyQ3QlJWYnFzgZWhtRAWGDNykdTVNENEU1RVY4KSorMldKOksLGDhZOyxOHw/9oACAEDAQE/Af8ApqNDwFjDEYSukUGc+wu1pjzfMoVvfCVNMdpweRouL+LpS+p3xC+Eqq9bplMG9SIjL9TeHxTn5izt8YcWP1bYXU64XaAM6s1yar3XJGFEbJtbuTGkuAeTlid91Hg1qK1dtgA02a8R7p2q1AH/AIL7I09RHVr/AFC8PkrVev8AbUzpI1Cav3gQ2xVYl+MeqPKP/NiUP1g6VHqcaQoE0vElSjK9yKhEiz08NhVH63qH6Q3eI6VfUJjaCFOU9dLrbYuQmNIMOWpPD1iahqPmPvRMPHbpVqFWqE6GazSp9NWSQnnkZxlDh/sXVJ5F++yxZcWk3Fie26vtTrGOMPiuOV56nKM2TE5sinolJtH5Oyw4uW0QV59qcthYafk2w/hXI+p2v2/T8m2HwxZIH/k7P7fp+TbD+Fcj6na/b9PybYnwtkfUzP7fp+TbD+Fcj6na/b9Maaj4uE8M1OvoxC9NVT0MLEVVNbYS7ysqPGILolulNg9m7hV7WttuPDYBUQlIKlKISlKRdSlE2CUgbVKJsEpG1R2DbYHCOpHE2IQ3Lq5/FymLssKktlypvN77swrt8gFbgqY40fdpjvJCb4Z1UYMwulC41LbnzkWPXGqhM2SFD3TKVjm8U+95qy0R742HaZUSLOZXHmR2JcdwZXGJLKH2Vg8FtOBSFf3knTFOonCtXDj9FK8OT1XUOajlqatXicgOOJDQJO6G9GSN5bXbLpizV3ijBy1KqkEuwM2Vuqws0inqv3PKuZEuRFngiW2yVH80XBZXa9QXeAjzzUvQdLXJ7XGJfmIf3pA8N4TwbXcZz+Y0eNmSgp53NezNwoSFW7KQ8U3zkXyMNoW+5a6GyjMtOBtVOHcGttyQgVWt2GerTGklTZttTAjkqRCbvfsklUpQ2OSFIyoT2x5lt9CmnUIdacQptxpxAcbcQsWUlaFdipJGwhQIIJFtMf6iYU4O1TB3J0+cc7jtGWeTp0lW9XMlk+wHlXOVokw1KICRFup3SbCmU2U/BnxnocyMstvxpDamnmljgpKhtBFlJWkqQ4khaFKQQo9o1Bd4CPPNS9B0tcntcYl+Yh/ekDw1q41Z1HHMrnLxcgYejO5Zc/L67JUmxVEp4UMq3eDsjsm4qTc5n8rWlDoVLw7T2aXSIjUOEwOwaaTYqVbs3XV7VvPunsnXnCpxat6twHb8f6uaPjmGA+BDq7LahCqzTSS83xDEkdjzmESeyZWvM3fPHW25cqxDh2q4Xqj9JrEYx5TJulQ7KPJYJIbkxXbDlWHQCQrKlSTdtxKHUONp6eoLvAR55qXoOlrj9rjEvzEL7KpB8M6tNXcrHVUu9ysegQHEGpzEiynSbKTT4qto5w+nKpbguI0dRdNnVMhVOp0Okw49Pp8dqJCitJZjRmU5W2m0bgOJJ3qUola1FS1KKlE9pqNTp9JjmXU5sSBGTvfmyWYrIPi5R5aEZjwF7nSqa8dX9OUUNz5dVWm+ymQnXEEjgmRJ5pFX8qH1AcTtF3eqPw+CeRw7W1gbi69T2bjx9i+/9v28I/VGYZWRzqhV6OOJb63v2+gzGCfov5bbL0bW3gOtqS2xW2Yb6rZWKqldNWok7kuSQiK4fI1IWfF49ELCwFJIIIBBBBBB2ggjeCNoPEbuhj3A1MxxSTBl2Yms8o5TKilAU9CkED6XIz2VKZLBIC02WjI8hpxFbotRw9VJdIqrBjzYbmRxO9DiTtbfYXYB2O+izjLg7pBFwlYUhPS1Bd4CPPNS9B0tcntcYl+Yh/ekDwxhbDk/Flcg0OnCz0td3X1JKmokVuxkS3rW7BlB2JukuuFtlJC3E6Ycw9TsLUeJRaW3kixEWzKtyr7p2vSX1Du333LuOKsNpypCUJQlPTkSWIjLsmU81HjsNrdefecQ00022My3HHHClCEITdSlKUAANMca/bKdp2CmkKylSF12W3nSeF6dEXa9iLpky0qbVvRGWmzmlTq9UrUkzKtUJlRkqv67MfW8Ugm+VtJPJso/s2UIRs7no4S1iYnwc60KdNU/Tkq9cpE1S34C0E9mllBUFw1kdy5EU0b2LoeAynAusOi45hrcg+xajHSkzqS+tKpMe9hyjagEiTFKtiZKEpAJCHkMu+tj8OtzV6jGFIE2ntJ/GKlNOLhWABqEYdm9THCdhK7rchlWxqTsult565BSSlQKVJJSpKgUqSob0qBAIUk3CknakixsbgdHUF3gI881L0HS1ye1xiX5iH96QPDGpfAwwzh9NWmNZazXm25LudPrkWAQVRIfZdklSkkSZIIvyq0sqKhGQR03324zTj7y0NMtNrdddcWEIbbbSVrWtR2JQhIKlKJASBt01o6zZWMZjlMprrrGGYjvrKElSF1VxtWybL3HkbgKiRTYIGV58c57Bjp0esVGg1KLVqVJXFnRHAtpxO4jctp1HcusPIu280u6FoUbjMEqTgPGEPG1AYq8dIZkA82qUTNmMSc2kF1u+8tLzB6Os92w42e6zdDXnggUWrt4np7WWnVx1SZyEJs3GrGUuLXsFkInthT/AIuctySdroB6OoLvAR55qXoOlrj9rjEvzEL7apB8L6qMJjFmL4TUlvlKZTP9qVIKF0ONx1o5vFUNx5zK5JLiSDmipkjtOv8AxkuFBi4QgOFEipt88qykGykU1K7Mxrjdzx5txTvjYjKbUCiQAe0ULV7jLEeRVLoM1TC7WmSkCBCseIkTCyl4DjzYPndYG401U6sK3geTMnVGtxnBUIyGpFIgtOuxi62sLYkqmPKYUXWAXmwlMNN0PrCnCAOhi3D0XFNAqNDlWAmx1pZdy5jHlIsuLJTxzMPpbcsCMyQpG5R0mRJFPlyoExssyoUl6JJaO9D8dxTTqfKAtJAOy9r2sRfoagu8BHnmpeg6WuT2uMS/MQ/vSB4X1EYbFHwh11dRaZiJ/nxURZXMWczEBPyKHLyh4jLV8p7RrArK6/jPENSUvO2qovxo224ESEeZxcvDKpllDuzetxavddGn0mq1dfJ0qmT6kvdaDEflEHy8ghzLx7q1rbdKRqRx7U8ipEGNRmVbS5VJbaVZdm0MQ+dvg/FdQyfHbhRep0pbWVyvV6XOXsKo9OYbhMA78vLPGU8sCw7JsRydvYjZah6vMG4dyLpVBgNyEWtMktmdNuOIlzFvyEn9FxItst+Cv4+wlhnOKxW4TD6P5G25zqefkhRg7J28CWwn42lJqkStU2FVoKiuHUIzMuMtSSlRafQFpzoO1CwDZaDtSsFJ3dDX3hsUnFEetMIyxcQRs7uUdiKjCDbEjcLAvRlRHdts6w+rgejqC7wEeeal6Dpa5Pa4xL8xD+9IHhamQHarUqfTI/5+ozYsFnYVeuS30MJJA2kJK8xt7lJ2jSnwWKbCiU+KnJGhRmIjCPesx2kstj6EIA7RNcLMWQ8lJUpph1wAC9yhOYbBtJuNgGkPBWMqlZUbDNffK9pdNLmNtqUQLqLzzTbQKjcm69pvpC1K6xJmUqozUFCvdz6hCbt8rcd6S+PLdr/6p/U6V13KaniClwhszCFGmVFQHG3LCnJvusTmG07Nm2ndTthSPZVSqtZqah3SUqjwWFbOKG2nZAHitKuNt1K2Wpmq/AdIymLhqmuLTudntrqjoPjC6guSUk/Ey8PENGWWmEBtlttptIslDaEtoSPEEoCUgeQAaSJLERsvSXmo7KQSt15xDTSAOKnFlKU/SdKzrhwDRcyV1tqovJ/iKOk1FRI4csz7ESfnJKNK51RrigpGHcOob32lVqRmNjb+Qw8vlsoVAg23aVzWXjbEOdE6vS2o67+xKcRTo1j7kiJybrqd38IdeO+5Nzp4z49p8ZJ2kk7ySbkk3JJO3TUg9McwBT2ZjEhhUOVOYY5w04yXYrkhcxh1sOJGZnJK5NtxBWhQbsFdj0NeVE67YFlSkIzSKFJYqrRA2hpKuazB8giSXXbcVMp3W6OoLvAR55qXoOlrk9rjEvzEP70geFtTFMFS1g0hSk5m6Y1Nqi9lwDHjqZYV8qZUlhY/R7W44hpJW4pKEjepagkfrOzSoY6wdS7ifiWiMLTcFnrjGdkXG8COy4t8kbLgNki+0btKjr4wFCzCM/UasscIMB1pJI32XUeYpI+MLg8L6VTqjnDdNFwylB9y/U6gVeLfFiMpHj3TTw2aVXXRj+p3CKozSmzccnSobTJCTwEiRzqWk+VL6dJ9UqdVc5aqVGdUnbk55suRKVcm+xT7rhT/AHbaIQtxaW20KccWcqG20la1q8SUJ7JR8iQT5NKLqsx3XcqotBkRWFWPOar/ALNZCT7rJJCZTg3/AJmM75L30oPU6JOR3EeICbWzxKMyAL+SfNSTu2Edb0KF7helA1bYMw0UOU2hw+ct2yzZiDOmhQ92iRKLqmT5GOSR8Xo1iA3VaXUaY7bkqhBlwnL2PYSmVMHfsv2ezy6ONrZWtlwZXGVqbcT71aDlWn+6oEdDUF3gI881L0HRIvprjFtXGJfmIX3pB8LdTlEDlcxHOKdsSmRIoV4ueyy99pp4/V2rWVi3G9MxjiCkjEtXjw2JxVDYiSjDQ3Dkssyo6AYoaWpKGnkoSpa1qOW9xe2kqoVCcbzp82aePPJb8q//AK61n6L22bAPwQ6dUKioIp0CbPUfcwoj8tV72taOhz9ZsN+lM1SawqpYow7Ihtm3rlTejQMt/fMvuiV/hjqPk2jSldTpWXsqqziCnQhvU3TmH56/k5SR1vSk7toQ6Nvc6UnUJgenlK53XKuOC38Ollhm4P8AM08RLj4rjjg0pWGqBQ0ZKPR6dTRbKVQ4bDLih8d1CA4vj3alaKUE7Tu4nxaVzWVgrD5UioV6Ep9FwYkJZqEsKHuFsQw8WT8+Wk77qFtK/wBUWz2TWG6Ctwi4EysPBtv9IQYilLcvbZmmsKHi01M4txPjN7EtRr0wPR43W2PCjMRmY8Rh1znjkkNJQkvFWQRgtTz7qrFIBG0noY4h9b8Y4oiBOVLdeqimx/ZPS3Hmv+G4noagu8BHnmpeg6WuT2uMS/MQ/vSB4W6mxu0PFz3FcqjtfQy1UFD/AFifp7Vi/VDQMaVpFaqM6pxXhDZiOtQDEbQ+GFuqQ6tUiLJPKBLnJcRyaEC1wSYeozV5EsXKdMnqHGbU5tlfpNxHYjSv8FvtvBwBgum2MLDFEaUnc4qnx3nvl5d9Dr9/Lyl9G2m2UhDSENoAslDaAhIHkCdmilBG1RATvJJsABxN+Hj0qmPsHUXMKliSkMLR3TCZrUiUCN6eaxuWkZt2wN38mlV6oTB8MKTTYlVrLgvZSGUQYxPldmKTIAvsuIavJfSsdUHimYCikU6mUZs7AtwLqctIsNocd5vFzb9ioLiP0tKzjHFGIM3XivVOa2vfHXJU1FseAhxwzFA3bORts2302bgABp/+43+gDTVRhVeE8HwoklGSozyarUkkWU3KlpTljq8sWMhiOsbuUbcItmt0dbbIZ1i4nA3LlxHfpdpcBxX+ZZ6GoLvAR55qXoOlrk9rjEvzEP70geFuptUOt+K0e6TNpaz8i48tI+1tXapcnmkZ+RyL0jkGXXuQjpzyHuSQV8kwglIW85bK0gqTnWQm9zpN6o3DzWYQcP1mSR/S3YMFN78eTenKH+AkHsSAQdJ3VF1xzN1tw9SoniM2TLqBG6xsx1uAO+4BP0cahrn1hz7pFaRAaV/FU6DEY8W55xt+ULW2ZZA/7WqFerlWv10rFUqNzcpnT5Mlvjb1t1xSABfcBt46AAbBsHR1SQKZUcfUOPVUqcaSuRJitWSpt2oQ47kuKh+/8UnkFv7O6cYbQrsFqHS1wKC9Y+JiOD1PR9KKPTkn7R0NQXeAjzzUvQdLXJ7XGJfmIf3pA8LdTdKtOxXCNrvxaTKHj9juzmifk9ltpI+T5O162tUUkyZWKcKxi+mSpcmrUdhPryXz2T82ntja6l4+uSYiPXA7nfjpdLq20EEGxuLbNoINxsIIO0EHYQQCCCCAQR2jVYlatYWFQ2CVdcVE/oJiSVOf5Arpax5PPMeYrfG7rzKZB/3NQheT+jfRe221+hqC7wEeeal6Dpa5Pa4xL8xD+9IHhbUNUBDx43GUbJqtKnwhe1uVb5GoI38csJy3E3t2zXjgajmgSsWQKelisxZEQzX4o5JMuK++iO85LZHrbrqC6gpfyh21wta0AJHQjRpMx4R4kd6U+dzMZpx90/I20lSz9CbDiRpRdT2P6zlUKKaWwqx5esvIggDyxvXZ9/F7Et41JuNKH1OcROVzEWIH5J2FUSksJjN772MuTyriwdm1EWMfFph7V9hHC6kO0ajRWJTYITPeC5c8ZklC8sySt19rOglCksraQUkpyWNui+8iO0484QltptbrijuShtOZRPkCQTpUJiqhPnz13zTpsqaobdipbyn1b91lLKbcLW6GoLvAR55qXoOiTbTXGb6uMS/MQvvSD4WwpVzQMS0KsXKUU+qRHnzc/wAFLobmg24KhrfHkvfRCwsBSSCCAoEG4IIuCDuIO8Ebx2uqU2LWKdNpc1HKRJ8V+JIRxLUhstryn3KwFXQr3KgDw0n6rsaxKxNpEWgVOoJiPqbansRVphSmCc0eQiU5kijlWShTjfLXadztqF07abqIx7NsZTNMpCePPqgl5wfIimNz0k/+IN4tfbal9TgxsNYxO+5uzM0yA2x8qRJluySrZsJ5qjfcZdulK1J6v6XZSqW7VHk2s7VpT0kXG4mKgsQT9MW2insL4Ui5VuUPD0RI2JKoNMZsPEn1lKjs9ynbbdpWdeuBKXmTFky628LjJTYyuSzDhzqXzaOsHb2TK3h2PlGlb6oeuysyKFR4VLQbgPzluVCVb36Up5rGbPHKpEpNwNpttXj3FVUrFMnViu1GY3EqcGZzfluQiDm0tl/+BRksxdmQb2fKc27QG4uNx6GtesCiYDr8gKyvSovWuN4y7U1CGSnytsuOvn4rSjw6OoLvAR55qXoOlrk9rjEvzEP70geF9U2IRiPA9IfWvPLp7QpM65usSIADaFL3m78Ux5O0nY9vNr9sxNiui4Qgt1GuyHI0V2QIra24sqVmfU246lvLGZeKMyGnCFOZEXTlzXIBqPVE4Xj3TTaTWKisbi7zaAyrZfui5JfsNub2LcbLA32VLqiMRv3FKotJp44Klrk1J0fGuhcFm/xS04B/3qutDHlYzJk4knMtKvdmnFumI28M0BEd1QH9o4u/us2jrrr7i3n3HHnnDdbrq1OOLPjWtZKlH5T+Ei+mHJfXCgUWde/PaTTpXj2vxGXSf1qPQ6orEIdeoeF2V/mQ5WZyQbjO4FxICSNnZJRz5Sgb3S60Rx6OoLvAR55qXoOlrk9rjEvzEP70geF9Q2KutOIpGHpK7Q8QoHN8x7FuqxUKU3a52c7j8q18d1uMjtmsnD/4y4NrdMQjPK5qqXAFrqM6CRKjoQPG+prm5+K6oWN+0ap5fPdXmF3b35OnCH8nW996D/8AH+jxn8M2ZHp8WROluJZixGHpMh5ZslplhBccWrZuShKieOzYCdmmKa89ibENWrj+YGfLW402rezFSEtQ2fF61GQ0hVtnKJWejqC7wEeeal6Dpa5Pa4xL8xD+9IHhePIeiSGJcZxTMmM81IjvNmy2nmVpcbcSeCkLSlQ8oF7i4OAcWR8ZYag1hrKiTl5vUo6Tfm9RZA5wi29La7pfjg747zSvdds1jUD8W8aV2nJRkjKlqnQrCyeZzyZTSEAbMrBcVG2cWSLC3T1Ay+cYCEe9+t1YqMW3vQ7yNQt/zpP0/h1+40EWAxg+C77KqITKq2RW1qnJWObxlW3LmvoKynfzdjsgOct9LUF3gI881L0HS1x+1xiX5iF9lUg+GNVePFYKr/sxxXWGqluPVW9pTHVmtHqKE7TniqUeWCdrkZTgspaGEhp1D6EutLQ404lLjTiFBaHG1pCkrQpN0qQoG6VAkKG0bO19UVh/1mhYmaTtbcco05QH8UsKlQFE+JDgmIN+6VIQLi23pdTfMzU7FFP/AJmfTpo+SZGeYJA4m8EX8Wz8GMsVQMHUOTWZ5zckktxIwWEOTZi/zEVvf3auycXYhplDjygUoOlXqs2uVOdV6i7y02oSFyH17coKrJQ02CTkZYbShlhF7IZbQjba56OoLvAR55qXoOlXKJT8RUyVR6q0p6BMShMhpDrrClBt5t9NnWVocTZxpB7FQvax2XGnqHauv6ok/WtU/a9PUO1df1RJ+tap+16eodq6/qiT9a1T9r01r6ssIYVwi9VqLAejzkToTCXVz50gBt9whwcm/IcbJIGwlNxw8K6ltZ6YfIYNr7/rC1paoE55dksKUbJpT7iv4txarQFq2Nq9iE5DGSjtWPaB+M2E61R0ozvyITjsPyT4pTJhEeL2Q02CfelWnkIsRsINwQfEQbEEcQQCDcdLqdZfJYkrkG49lUZqQLn3UKc0gf5Zy+ItbjfZUqlCpEKTUajIbiQobK35Eh02Q22jeTvJUSQlCEgrWshCEqUQDrFx5Lx1WOX9cj0eEVtUmCpW1DSlDNLfSDYTJWQFe8MtBthPcuZ+lqC7wEeeal6DtWvr2v5HnSmf6qvC2qjXElxMfDOLZFnxybFLrT67B8bENw6i4rc/uSxMUcr+xuQUvBLsjtWtKgfi7jetREIyRZj/AF2hbLDm9Ru8sAbrNS+cxwOCWUjpaoK7Cw7jWPPqUpqHAVTKqxKkPHKhLaYxmgeMqWuEhLaE3W44UIQlSlBJ1mazZuOJYiRQ5Dw5EczRYauxdmOJukTZ4GzPl2x4ty3FBzKzSLlPT1Bd4CPPNS9B2rX17X8jzpTP9VXhfVzrnm4dDFGxNy9ToicrTE0HlahTECyUpObspsNH80Vc5aTsZU6hLUUUqrU6twmajSpkefCfTmakRnA4g+NJ3KQ4g9i424lLjagUrSCLdp6onD/LU2i4kaT2cCQulzVBP8kmDlYylHfZmU0ptHDNNN79v1Bd4CPPNS9B2rX17X8jzpTP9VXhjDOL6/hGZzyhT1xs5SZMRQDsGWE22SYquwUbCwdRkkNjY08gXBwhr4w7Vw3FxEj8XqirKnllkuUh1W64lWzw8x25ZaQ0n+lud1pHkMymkPx3Wn2XEhbbzDiXWnEncpDiCUrSeBSSD08ZUJOJcM1miqCc06C8iOVdyiY3lehOE8A1KaZcJ8SSOOi0LbWttxCm3G1qbcbWLKQtByrQocFJVdKhwI7dqC7wEeeal6DtWvr2v5HnSmf6qvDVBxbiTDLmehViZATmzLjIWHYTp48rCeDkZy/FRbz+9WnbehdUTUWAhvEVDjzQO7l0p0xHR41GLIL7KydvcyI4Gyw2aUvXdq/qQTylSfpTptdqqQ32QlRtsVIYEiGnf3SpAB0g4qw3U9tPr1Gm7L2jVOG6q36CHir7NELStIUlSVJO4pIUCPlGz8DslhhOd95plPvnXENp4cVkDjpUMf4LpYVz3E9EbUne0ioMSH7jeOQjqdeuOIyX0x3IoszFlbm4ek86pU+Yqcy5zd+NZ6YBImIS3IaacyiWt4oVkAKVC27t1D1g4xw1B620OtOU+Dyzj/IJh0x8cs7l5VeeXCkO9mU3tnsNPVh1k/Ch/wCrKF+6tPVh1k/Ch/6soX7q09WHWT8KH/qyhfurT1YdZPwof+rKF+6tPVh1k/Ch/wCrKF+6tPVh1k/Ch/6soX7q09WHWT8KH/qyhfurT1YdZPwof+rKF+6tPVh1k/Ch/wCrKF+6tK3rCxjiSCabXK27PgqcbdVHVDpkcFxo5m1cpEhR3exPDPY+HbA7wPpAOjciQybtSH2iP5t1aP8A2FP2W0NSqJFjUJyh4lTJJH6uVsfpB0WpTn5wlw8c5Kr/AK9v2/8ATKv/xABaEQABAwICBQMMDAgLBwUAAAABAgMEBREGEgAHEyExFCBBCBUiMDI2UFFhcXWxFyM3QlJWYnJzgZW1EBYkQ5Gh1NUYM1NUVWN0g6OzwTREgpKisLJFZISU8P/aAAgBAgEBPwH/ALajXMd4Rw6VoqtegsSEd1DacMyYDbgqNCEh1snoLyW0ceyFtKn1QmH2MyaTRanUlcErlux6ayflAp5e9bztIP8ApM6oXE7pIg0eiw0dG2E2Y4N/whJjN38ftNuFgnfd3XjrCcN01GCwPgs0mnW/x475/XoNdWsgf+vNHz0WhW+7dI+vbHzP8Y/Splv5zS2U/rhqiHf02PQPrp/VE1dBSKnhymyU++VT5UuAvzjb9cAfm3APSrSka+MGTsqKg3U6M4bXW/G5XFBP9dDU6/l+UqInzaUqu0Wutbaj1WBUkAAq5JJaeW2D/KtJVtWTfdlebbVuNwO24/1vyME4gNEboTNQSmFFlcoXPXFVeRnOTZoiuiyMm5Wck336fwjZfxUjfbD37Bp/CNl/FSN9sPfsGn8I2X8VI32w9+wafwjZfxUjfbD37Bp/CNl/FSN9sPfsGmDddknFWJKZQV4fZgpqC30mSipuvLa2MR+SCGzEbCrlkJ7tNr36LHw2SEgqUQlKQVKUo2SlI3lSj0JA3qVwSN6rDfpi3XZhmgFyJSR+MVRTdH5M4lumsucPbZ3Z7ax4phtug9wqQyoqtiTWnjLExW3KqbkGCu463UoqhRsp966pCjJkjxiU+8k/BFzftEaVJhPIkxH3osho5mn47rjDzavhIdaUlaT5lDTC+vLFVHU2zWAjEUEWSeVK2FRQjhdE5tCi6QOmYzJWeG1QTm0wnrDwvjFIRTJwZn5czlKnZY89Nu62aM625SB8OI4+AN7gb7Xr47+1eh6b6nudqg90XDf0037rneG8V4xoWDoPLaxJyrcCuSQWcrk2atPvY7OYDIDbO+tSGG+C3AvKhWNtaWIcYrcjFZpdFJ7CkxHDlcSD2JnyAErmuW4pUERUne3HSvMtXbGnXGHEOsrW062pK23W1FDja0G6VIWnskKB3gpIIIBB0wHrymwSzTMYbWoQRlbbrKAV1CKLWHLUJsZ7I3ZnU5ZqUi6jL7FsQp0OpRGJ1PksTIclAcjyY7gcadQekKHAg3SpCrLQoFDiUrBSO0a+O/tXoem+p7naoPdFw39NN+653hrWLrLp+B4vJ2Q3PxBJbzQ4Gb2uMlW5MyoFJCkM9LUfc5KULDKwFO6VmtVPEFQeqlXluzJr57N1w7kpHcNNIHYMsNDsWmWwltCeA4k9vwHrErGCJl2CqbSH3EmfSXXCll3gC/GO/k0wAbnkCzgAbfS433OHsQ0rFFLYq9HkiRFeFlJNkvxnwEl2LKauS0+0VAKTvSoWcaUtpaHFc/Xx39q9D031Pc7VB7ouG/ppv3XO8M6ydYUXA9Mys7ORXp6FCmRFG6WgOxXPloBChHYVcNtmxlvgNp9rDxTPny6pMkVCe+5KmS3VPSJDyszjri+KlH9SUiyEICUISlKQO0wKbPqj4i06HKnyVdzHhx3ZLx8uzZStdh0m1h06UzUnj6opStynxqUhXvqpMbaUAelUeNyuUjzLYSfEONmup3r5A2+IKO2o+9bZqDo+tSo7H6gfq6ZHU8YlQDyauUJ89CXOuEe/18keA+vSs6p8d0RKnH6G/LYRfM/S1IqKAAOKm4ylykD5TkdCflaKSUkpUClQNlBQsQocQQd4IO4g2N+jmYFxxU8EVZM6Hd+E9kbqdNUspZmxwf8ADlM3UqNISMzaiUrzMrdQqi1mn4gpkSr0t8SIUxvO2rcFoUNzrDyLktPsLu262TcLSbZkFK1c7Xx39q9D031Pc7VB7ouG/ppv3XO8MYoxHAwpRJlbqBu1GRZlhJAcly3N0eI1e/ZvL4qyqDTYceUMjatMQ1+oYmq0us1RzaSpbmYhNw0y0NzMZhBJ2bDDYDbaL9BWoqWpSjz48d6U+1GjNOPvvuIaZZZbU6664s5UNttoClrWo7kpSCSd2mCdQ90s1HGjqk5glxFCiOZVgGygKhNRfLcblxoig4nguSg3b0plIpdFjJh0mnxKdGT+aiMIaCja2ZxSRneX/WPKWs9KubizV3hnGDSzUYSGKgUnZ1WElDE1C7diXVBOSY2Da7UtLoCbhpTRsoY31fVrA0xLU4CVT5ClCDVo7ahHkWudm4hRKosoJBUqM4SSAVMrfb9s5mqbWAvCFX5FPdV+L1UcQialRKkQJJIQzU0J6MlktzAkXdjdlZTjDIAIUApJCkqAUlSSClSTvCkkbikjelQ3KG8XFiebr47+1eh6b6nudqg90XDf0037rneGNcmNjiXECqVDdzUaguORmch9rlzxZMyb8pKVAxYx4bJC30ZTKcvz2WXJDrbDLa3XnnENNNNILjjjjighDbaE9kta1kJSlIJJOmrDVlFwdEbqdTabkYmlNXdcOVaKU24kXhROKQ8ASmXKTvWoqYZVydN3efWKRT69TZVJqkdEqDMbyOtq7oHih1pfdNPsqstl1HZIWAd4uk46whMwXXn6TJJejn8op0zLlTMgrJDbth2KXUKStmQ2O4fbWBdstqP4dR2NTWaS5hioO5qjRGgqCtarrlUnMltDfG6109xSGL8eTOxki4aURzdfHf2r0PTfU9ztUHui4b+mm/dc7wvrUxX+KuE5jsdzZ1OqXpdNKTZbbkhCuUSk9I5LEDy21DuZKox7TqFweibOk4untBUeluckpSVi4XUlICnpIHA8jZcQlo9D8lLiSFxyR2iu6wMH4czpqlehJfRuMOKszpuYe9VGhh5TJ4f7TsBxuRbTWlrMouN48KFTqLJaVT5K3o9VmvNIk7JxGR+MmIyl5KWXyGXCVzCQthCg0g8zCtfk4Xr1OrkW6lQpCFOtA2EiKv2uXGV0WfjrcbudyVFK+KRpDlx6hDiz4jm1izYzEuO4OC2ZDaXWz5yhSSR0Xte4IHM18d/avQ9N9T3O1Qe6Lhv6ab91zvC+vPEXXjF/WxpeaLh5jkVr9jy9/I/UFjyg7CKs3N1RPJYdowDRk0HB2H6cE5XBTmZUndYmZOTyyVm+Ul15TXkQ0hPRv5lQq1LpKNpVKlApqLXzTpbEQW3dzt1tlfEdwFaVbXVgOmBSY86TWXhuDdKhuKSVf2iZyNgjytuOn5PjrPVD1V3M3QaFDgo4JkVF1ya/b4WxZEVhBPwVmSB8I771vH+MMQ5k1SvT3GF3vDjuJhQrHoMOEhiOofPQo+X8FBwLivEuU0eiTZDCiByxxvksEeXlsktRjbpCXCr5OlVpkujVGbSpyAiZT5L0SShKgtIdYWUKyLG5aCRdCxuUghQ48zUPiLrphiRRHl5pOH5OVm5uo06cXH4/HeQzJTLa3XyI2Cekc3Xx39q9D031Pc7VB7ouG/ppv3XO8LVKczS6dPqUj+Ip8KVNe32OzisLfUATuBUEZB8pSdx0nTX6jMlTpKs8ibJflvr+E9JcU66fICtRNvL2iG2HpMdpRshx9ltZ4WStwJUbmwAsd9yBbSZjPB1OuiRiahM5Ox2YqcRxwAHsUpZadW6QkWAsg2FtJ2ubV9CzJTWHZy0+8g0+au/zXZDMZg/U7pP6oahtXFMw/VJh35TNkRKem+619gakq3G47E+JXG1R6oPFUi4ptMo9MT71SkSJz6d9+6ceajk+MmLbhZI33qeszHdWuJeJakhCu6bguIpjauG5Sac3GChu9/mtc+M3eedfWXHlrdcUbqccWpa1HxqWslRPnOjEd+U4lmOy6+8o2Q0y2p11Z8SG0AqUfMNKNqjx5Wcqm6I7T2VW/KKutFOSAenYvHliv7uMvSi9Tw2nK5iDEKnOBVEo0cJFwf5/NCvrSacDv46UPVtgrDxQuDQorshFrS6heoybi3Zgy9o0yr+zNMAbrDcNPEOgbgOgADgBwA8gAGmutmG3j6oPQ3476ZkWDIf5O828G5SI6Yj7Tim1KyvXihxxtYStJc7JIvzNSVa61Y5iRlqtHrcd+lugmydqpPKoZ85lRm2b/BeV47Hma+O/tXoem+p7naoPdFw39NN+653hbXLU+tuAKsEqyuVJ2FS0W4kSJCXn0+ZcWM+g+RXa0IW4rKhKlqPBKQVE/UNIGB8X1TKYOG60+hXB7rdKaj/XJebbYAPQS4L9HA6U7UZjyblMmPTqUg8TOntOKH93ThOXfyKCT8IDSl9Tq2LKrGJlq+EzTIGX9EqW8o793GEPPpS9TOAabYrpj9UcFjtKrMdeBUOkx43JIhHyVx1D9d4FLplKb2NMp0GntbgW4MSPFQQBYZkstoCunur8dFKQ2hTji0ttoGZbjighCE+NS1WSkeVRA8ula1o4GoWdMmuxpb6LjktKvUnioe9zxs0VB+mktHjcC2lb6ohfZt4doAF7hEusPlRtbiYEJSQD4iZ60+NB0rusbGWI86KnXJZjOXzQoihBhFJ94uPFDSXk+V/aq+VzaTPcpdTp1SavtKfOiTUWuDnivofTvHR2G/8ARo24h1CHWzmbcSlbavhIWApCvrSQbczXx39q9D031Pc7VB7ouG/ppv3XO8LdURMKKLh2CDYSqnLllPj5FEDN/q64H9PatW2E8FVLB9Aqxw3SJEx+EETH5URE1TkyK87FkOWmbdCS46ypwpShKeyG7SLAgQRlgwYUMDgIkViMP0MIbF/Lx8f4JlRp9ORnqM+FASOKpspmIB9b62/Je1zvG7Spa2dX9MzBeIY8xxP5umtSJ+b5rzDRi/8ANISPLx0qfVD0drMmj4fqEw+9cqL8eAjo37NgVFSxx7ErbP8ApVte+N5+ZEI02itG9uRRNs9Y+N2oKlpB+U000f1WquIq7XF56vV6jUTe4TLmPvNp+Y0tZbR/dpToATuG8ngBpRNXGNMQZFU+gzQwuxEuYgQIpSffpemFkPJ+gDqj0JN9KF1PDxyuYjryG07iqHR2itw+RU6YhCWrHcbQX0noVprjwnhnBzOGqdQoampEjrjJmyHpD0mU+03yJuMXVLVskIzmQUJYZZTmCioHscvMwRMM/B2FpRVmLlBpaVH5bMRph0fU625zNfHf2r0PTfU9ztUHui4b+mm/dc7wt1RrhMvCbXwI1Xc+t1ynIJ/wbfV2rCOtqv4Noq6LT4dMlM8reltO1BMtxbBfQ0lxpAjyow2ZW0XfHncXvtYaTNd+sGVfJUYcFJ6IdMhbuHBctqW4PPnvpOx5jKpZuW4mrbqVd02moSGWT/cMLbat4xlsfFo44t1WdxanFnitaipR86lEk6AFRsLkncABck+IAb76UvA2L6zlNOw5V30L7l9UN2PFPl5VJDMbL8ou20pWoHF8zKqpyqVR2za6VvqnSQDb83ECo2bf3KpqPKRpSOp/wvEyrq1RqlYWLHZoUimxVHjYttbeVl8qJyCejLpR8H4XoGU0ihUyE4ng+mMHpVx0mZJL0snjv219+4j8H/7eQBbTWlihGK8XTZkZeenwgml01QN0uRoilZpA8kmQt99B6WltDo5uqZ0u6u8ME8UxZbf1NVOc0n9CUDma+O/tXoem+p7naoPdFw39NN+653hbqjUnrhhZfQqFU0jzofiE/qWntUVjlUliPtmY+3eaZ28hRRHZ2q0o2jy0pWUNIzZnFBCsqApVt2kPqd8QOFPLq/RoyTxMRubOVa19wcZgpP8AzgHiCRY6Qep4ojeU1LEFUl+MQo8WAL9Ni91xJHCxKR08eiBqb1fQSFKoy56x7+ozZb9/Oy26xFV9cc+u9OoNEpNutlHplPI3BUKBFjOW+kabSsnylX+t+m5NyebrYnVKn4Crkilq2bqkR40p0EhxmnzJDcSUti351W2bZue5bdcWns0JI5uqFOXV1hoHpZnq+pVXqB5mvjv7V6Hpvqe52qD3RcN/TTfuud4W6oyNmhYVm77MyarGPi/KGqe4kHzmKsjteqfW3HTGi4XxTIDBjpRHpNYfX7Stodi1BqCzuYLIAbiy1+1lrIy+poMtuOAgi43g2IIIIIIuCCNxBBuCNxG8Egg9o1olA1f4pLhAHW9IF/5Qy44a/wCvLztXMbkmBMKM9PWaLIP/AM0GZ5f5f/Xdw5mvjv7V6Hpvqe52qD3RcN/TTfuud4W1608zMCrkpF1UqqwJp3Hc05tqevzdnNa3+K+7tmpDG9XRX4mFZs9T9ImR5SYbEr20xZTDC5DTcR5R2jLTiWlp5PmLRXlyIQtSlHmSJMeI0X5chiIwni9KebYaHnccKUD61XPQDv0rGt7AdHzJ68CqPC42FGaXOurxCT7VA8/5WT8FKrHStdUPLWFIw9h9iNxCZdWfVJctbiIkYtNoPG2aVIHjvbTEGPsWYnC26xWZT8VZBMFooiQDlUlaM8SMhpl3ItIUlTyXFhQvnvzWWlvutstgqcdWhttIFypxxQQhI8pUQNIERNPgQYCe5gw4sNPzYzDbKfP2KAb9N79PM18d/avQ9N9T3O1Qe6Lhv6ab91zvC2KqR1+w3XKPa659Llss36JQaLkRQ3jemUhoj9GiklJKVCykkpUDuII3EEHeCDuIO8HtdMqMmkVCFU4askuBKYlx19AdjuJcRmHvkEpstPvkEp6dIGs/BkujwqvKrtOpypUdDj0CRJSZsV8DK+wuK3tJStk6FBC9kQ41kWkkHdUNemBIeYRXqnVlDhyGnrabPnXUVwSPOEKHHyXqfVFSDdNHw0w3xyu1Oe4+T5TGiNRQnyDlK+m5OlU1z4+qeYJqrdMbV+bpUVmKRw4SVh6cn/hlC+iWsTYqlXQit4glE71BM2qPC6vfL9uWAOHZEW6TpSNR+OallXJjRKKwbHPU5KNrlP8A7aHyp5J3jc8lm195GlG6nyhRsi65WJ1UWLFTEJDdOi3+ApajKkuD5SFxVcdwvojAeF6XSKnCo9Dp8R2XTJsPlGx20s8piux98ySp6V+c6HvInLzdVtHNax1QI+XM1GlipyPFsqaDMAV4g4800yPlOpHTbm6+O/tXoem+p7naoPdFw39NN+653hfWrQDh7GtWjoTliT3TVoNhZGwqBLq0I8jErlEf+54Dh2zDWFqzi2cum0SOiTLbZMlaFyYsYJYDjbSnM0p5kKCVvNgpbzuWVmyWB0p3U94nfsalVaRTkHiGjJnPj/gDUeOT4vyoDjdSemm9T3h1nKqq1qq1BXFSYqI1OZPkstE94p8ocRfxHoperHAlIyqi4cguupt7dUNpU17rb7T1yG0k/wBW2jL722jTTTCEtMNoZZQLIZaQlttA8SEICUpHmH4RuIPiOmIYnW+u1mD/ADOq1GMPmsS3Wk7ujcgczqesPltqtYmeRueKKNCUQQShpTcuepJ4FKl8hQFDgpp1PN18d/avQ9N9T3O1Qe6Lhv6ab91zvC+vbCxqmHo+IIyM0vD6iJOUdmulSVoQ4TYb+SSNi78hpySrtmrqvjDWMaLU3F5IvKhEnG9kiFOBiSFr+Syl3lHzmUntGtOJyPWBihq1tpUeWW9IR2J3rkH17uH4YcSRPlR4URtT0qW+zGjsoF1OPPuBptA+ctSRfgL77DfphehMYZw/SqHHyqFPiobedSLB6Wu7st7x+2yFuOJvvCFIHRc8zXx39q9D031Pc7VB7ouG/ppv3XO8LyI7MuO/FktJejyWXY77Lguh1l5Cm3W1jpStCik+Qm1jYjHeFZGDsRzaO5nVGCuUU2Qr/eac8TyZy/AuNhKo8i3CQy6no7Zq7r/4x4NolQWrNJRFTBmkm6uWQAIrq1njmfDaJO/oeBub8/XzE5Pjrb2sKhR6dKv8ItbanE/oggfV+HUNgwy572L5zX5JTVKjUrOnsXagpBEiSm+4ohsLCEq/nD9xZUdRHN18d/avQ9N9T3O1Qe6Lhv6ab91zvDGtHAqcZ0EmKgdfKUHJFLXuCn0lKeUU5ajuyykoGxJ3NyktKJShb6i42tlxbTqFNuNrU2424kocQtBKVoWhQCkqQoFKkkXCgQd47X1PNfs/W8NOq3Ott1eEkqFtq3s4k8AcbuNmGsW7kR1mxzXHO6ouHlqWGJ1v4+DUIRP9ikMPAH6pxy+QeT8GEMLT8YVyLRoN07VW0lySnM3ChII28pzgOwT2LSLguvLbZSQV30pFJhUOmQqRTmtjDgMJYZTuuQm5W44QBneecUt59w73HnFr3XsObr47+1eh6b6nudRK1UMPVOLV6W6lifDUtUd1TTTyUFxpxhd2nkLbVdt1aeySbXuN+/T2bdYn9MMfZVL/AGTT2bdYn9MMfZVL/ZNPZt1if0wx9lUv9k01U6ysXYpxc1Sq1UGpUFVOnyC0mDBYO1YQ2ps7ViO24ADxSFAK6ejwrrm1ZqlcoxjQWLvISXK7AZRveSkXVVWG0j+MQkXnoTvWgcrCStMlTnasC144ZxXRaxmysx5jaJlumDJBjTR5RyZ1wgfCCdN1gQQQd4I3gi3EEbiD0EXBG+/O6oaJtMO0KdbfFrLkc/MmwnFn/qgo89/Jvp1OmVabGp1PjuSpst1LMaO0LrccX0eJKQLqWtRCG0ArWpKQSNXeBImBqPsPa36xNDTtWnIFwtxIuiLHKhfkca5SjgXnS4+repvJztfHf2r0PTfU92rUR3/s+iKp/lt+FtamqFTSpGJcJxipg7R+p0Vhu6mDvW5MpzaRvj8VPw09kxvcjBTJU1H7Vqur34w4Jo0pas0qGz1pmm9zyinBLKCfK7EMaQfGp4np52tyhzcQYMfg06K7MnJqVLfjMMpzLUsyhDJ8QShuYtTi1EIbbC3FqShJI1batIeB4vLJRbmYilNBMqWOybhNKAKoUHNvyXumRJsFySLJyRwEr5+vjv7V6Hpvqe7VqI7/AJn0TVP8pHhfWJqbh4gL9Yw2GKdWVZnZEKwap9TX3SljKMsOYs8XbcmeV2UhLa1OStKnS6hRpjtPqkORBmsGzseS2W1p8ShfcttXFDiCptxPZIUoG/aep6r+xqdZw26vsKgwipw0k/71EIZkoTfdd6K6h1fTlhAi2/t+vjv7V6Hpvqe7VqI7/wBn0RVP8tvwxiTCNAxbE5JXIKJOQKEeWj2qdEKt940pN1oF95ZVnjuHe6y4bEYu1GYho5clYfV1/p6bq2KAG6synjlVFJCJYQN2aGdsvpiNndo+w9GdWxIacYebUUOMvNqadbUOKXG1gKQodKSLjn4QrisN4lo9aTmywZzK30p7pcNy7M1oeMuxHXmx8pQPRohaHEIcbUFtuIS42tJulaFjMhaT0pUkhQPSD27Xx39q9D031Pdq1Ed/zPomqf5SPDVewnhzEzeSt0iJOVlyokqQWprQtYbOawW5SAPgJdCD75J3WrnU9090rcw9W34R3lMWqtiY15EplRwy82ButmjyCd9zpVNSuP6bct0xiqND87S5jDxIvbdHfVGmE+RMc26eI0m4YxHTSRPoVYh2NiZNNmNJv5FrZCT+nRSSk5VApUOIUCkjzg7/AMDLD0hWRhp15XwWm1OK/QkHSBgPGVTy8iwzWnQrg4uA/HY/+xJSyx/iW8umBY9ah4TosHEEfk1UgRBBdRyhiTdmKosw1lyM681nMNDGdIWSFA37dXNX+D8STuuVbojc6bsW2NsqZU2Dsms2ROSJOjt7sx35L6exBq3+LDP2nXf3rp7EGrf4sM/add/eunsQat/iwz9p13966exBq3+LDP2nXf3rp7EGrf4sM/add/eunsQat/iwz9p13966exBq3+LDP2nXf3rp7EGrf4sM/add/eunsQat/iwz9p13966UTV/g/Dc0VKiUVuBODa2g+mZU3zs3LZ07OXNkNb7Dfkv4dBt4/qNtHGGHdzrDLgPw2kL/APNKv16Cm04G4p8IHxiKxf8A8NEJS3/FgI+YAn9Ftw/R/wBsq//EAGkQAAAEAQUDEQ8QCAMHBAMAAAECAwQFAAYREjATISIUICMkMTIzNUBBUlNyc3STsxU0QkNQUWFiY3F1gZShsRBUdoKDkZKVoqO0tcHT1eQlNkRklrLDxFXC0RZFZYSk4/BghdDSpdTh/9oACAEBAAY/Av8A4y6qlEpjbCWQsXiu4aO1JZDN6Nq7iEu5XT/ZWcdXZ8yXcqyk3I8Xdwl3Kqswfpbtg7TlVUGru8j1ZhHKWWRt11dwgqpLK8CjKu4hruQmLNWcZi+CXcqyk248Uvgl3Kq4h0RS3bB2nLJMi3eR/wDoOqXC3EshhzwxdncLmnLCapJbtdKWSOmJeNPLCiSHkin+stOC+QfmZYMWT8k/MSwH7M27TVJLBxGruF/vZYUMXNvFycclKqsgukbtyKp6tqpkMqbYEJdJc6uuIVlzq64hWXOrriFZc6uuIVlzq64hWXOrriFZc6uuIVlzq64hWXOrriFZc6uuIVlzq64hWXOrriFZBdklUt2S56hIzh7V1EHRjVCNmKCrhxxKUiKumLObrY1OFGVqri9rDD2l3WJTrVzFCRTx+ccUiZwzUGCSELbeICXQfRLBmu3en1jxJRy+P84cwfIkAMpvQZrvMMYpj74JgPnlVIUCgHQlxlAhIQdwWFOt/h7RX+dIZGFzNCEFUN0xsiLNT32op+gZUwx/HIMbXErwr8nwHxVP55CeBReExsu0OQVhDnjSCdL5chCcEAicOJ65VRurJTenqN3bSrF1IQ0Im4+FqemiIviczGA0ZtVR/fMPYKAjIqk5Z0N2+yawRqdyPeF5ERr+8mMgFeHPYyoGvFIi4OQe8m3FEA94e/KrDpqQFsHawtoajxqEE3vDKq3QRQLsUUk0/wCUADGiDqEQtzTm4ph7Venv3RMZGM6mhB7oYKLq2QxIoG5FqKfolTC30bgh+uV0ERR4p+VTlJCpA4rCo6XalrpB3XGFEyXy6ZXOcEDiULDoF3LVUWym9PedurmU2K5i7cfI0+OVkBnz1NLuTVOufjlZX2xnZtk6PdJVUG6LfcJpksqpwKYuxPIbtD29bZokuCnzVEhMxdrtzbFbJ05CYrcr1PZNT1/mZCmoBim2ByXNTVKvAF+Vb2sN4Qt6Atyw2Aw1zFHo5qbYlAJd1dr87N0JJPZ9RI7lWgf0NCTik1Je/a39FdYQzb1UtGYemWJIBB2MJb65WTdNIT74oGTLd84mHs2xklSFVTMWqYhy1yGDshfpkqsix/2eiJv22BVGt/ujIC4kNxRevTJV23RCccIIFIvYUnVdph+9QzMMAZlYgmLTr6gApQMYxjVCEJoiikknsbpmtCTZou0rrGHN6nIYfnEqQvhdDFrX6tMk1GUIJEIgH+9ouBIg9H25ygFHeJ7a2O3copuEFC1VUViEWSOTuqal4Q7FAyVcQxFSbMSHMXhNAMzH7vDqbkf2tSjrDI675nzThGvGIXdV2ocLQ55Yh2QwR1hHquCKJDKqmzhSEuikgO/OVgnsNEcSAybUq6m3OsnU8+oqrxqi43ZJCpDHBkjet3OSJ8bKq9aqJF6FbRG5/dtTq8BX5Vvaw7hC3oC2QjMdFxA5tGw0wDAikYAQGgzQf2VsNF4RzehAaBkSFwCGoQ1kQKaiBMJZSjRXCl9ddYb+EYRHNzAvBqJV6gmWBTgNnYswRDLA0BQWItqClWL36DhmiY2dDmfH2tzut5lEUMOGRIubXbqDfKYKb5TABg1wC1xDAmlDdIxMXRRyAlhkNGgRqmOWkxzCADQQgGMbWAZJO0kebEfoC7R2IplMuUb9YIelhFYEzMFMa2vXv1dRCUwVimCqYsnEWmpcZvxswHOo1AtSDxAb14xCh+j1R1lUAq61zAAE8loTHGK0OiCIUigrfAQHMWRX/aG/VMCJgYyps4QmGopIqsTOZqn63Jo5/uJXNk3TS2RumH3xXUwkUIUxTZ4p8MkhVhw8z19qz7NTxSuT1uZLYH0RupvS2pVeAr8q3tYdwhb0BatZ4Tya1mh6jmCQJe/d8wUYpFA11BAaSk9sa9QBgAA1K5g8cYpRCHugyRFYKaDdCokI30lUs0hgooHrgJqQMF1fTbfKASHRQelKazF8PS3RqBqKBgnDMvgIBZc0HorQ2arVQSLvSjQvFFAzWMMG/VIW9WPQNHWEwlKLWEQZihD4c1LURboAAFDtza6qiuuY1Jh6+YAakGHRtrWOnSLGIo0Efw1e9Qu0XzSGDXC+UetTfDmfFS3ZqvdDQyLop5UiRdcBD9nceuW2uFAhSAgPVEFChidn0Ts/9Lb5UNk6y3RuD4bhTx6qFJwkmqkbPEOSunIXEFGsXomBz/RVZCmoQxVSmqHIfI1E9Rq8BX5Vvaw7hC3oC0GckbQrTcgzihFA+hxmMJ5pR67GH6wdEagNcRDU72CxdsR5D4gidBwifrCFFYg9LUTHCKYL5TBr3wk6gbwTrtxy1C3o0UxGGGvEMagRADkMAkOFI0GAQsRF1dEZsQs5DRdyUaDujUCKMKYjQaqXXMagaA1hG8LaHQ5sizYs0iItWrclzQbpJ5hSgF4AD05tIjTqd1Ao43K4ZOS005izdcmhPGyvSV0BpEpwv+1pAysGiWSpKZPC4iXOxJhrmMGsYo4Jg1jAIdTgTTAxjGNUIQmiKSI7jIVjZ8jHpafCevIClApSlzpdW0nC5OylwHZNE9125HvyuTsm8uSc7r6iV4Cvyre1h3CFvQFnC4DD6BdxR2izTEcxID6OstweUMgMLTubKGNk2yIa5qoBdF1KM1VY1Ywj1zDrapWftUgNF5tXSLM9mo2IFMQbB2FEQrdYKnZlWx8Om9CS0uoisICfpbNslfXiCvcEJMYDCErkzYpAFa9dHKxgyZ24EM1Zc9JjD4swAo1QvCj1UYihXdQV9rs39GCfe1c6p2KB6G+6h8QQM0fsnS7V42PojdwgrclkuphGrRIyq5vm+6qyuhqrh8YuE52Hcm3WDqAds7SKqgfNIeQrJ1nEOMbBV6Y37m67GoVeAr8q3tYbwhazjc8HKeDDycx4Zwl1k0VV8Y1Se31UYihQOmcpinIbOnKfNp8UpwzfHOQ6JLFbduyVyZkr5Nj/APamIIhzXnMikogA0V2cGorNSANN7FdALHvU0VKBoE2q2E+mKQAhEDJQuOUaz0ulT4eyWgSDuKdfqWDZoSsboz9Lbp7arK4oBWUPzw4Poi6nUISKAU5TlqGIfOHkZ6yKY0ONn0ujaf8AY1ArwFflW9rDuELegLObjYQquHrTmu64VExxQbzCTVcPioXwjcDKH/Nw1W4J/NGJjoPAjX2grYqiY00UQxpkjooU65jUFDsiEiJkKBUylqlKXOEIXVcdgCgFMo+YrFbCPQPUyiqzN2KFSkp7URkJDhVVKaocm1qE6kkaNgrKmz5+loJ7arIGyAdsqqfRF1OuPUQSiFYppGfsgrQ4xsmJ60P9xbq8BX5Vvaw7hC3oCyYQ0oVjRB+0Y+WO7lJu2T0NqikgTcIpgmXzBaJLxMx3UQeXoZB2t94/HMwQvgk2KOac14Myg2EACaGEg0ER6FMrMX6g99R7VL7xQDsSKMYbwmOthz5StuZi/uR0KyY+2IMiRiDKGCqe4vWTjnuHO9du4LrHDWELxgzKKBC0mtFAzzOMOGZt7ftBL/T8+Oj061yYb5wSDMR6zVjkjn31RJRuTBajCWyBo3OMSVxh6Slzaw8KAoPE3mYkHYvm3OuJmh4LCy7U3hZ3I+/ERpkBnxYNGUaMIjiHmZGDxw8fTekqVqQ8PjLIpDPoQ5MBlSlH9oaKhQDluI5hwCkMw2yG0nO1KQCpO3XNhtRmAEWyycPEakPF1ISbIEuq6pqhSyBIuEurhu3G2KakquXqRTbUTJFOJSkIMmCqvbOT4nlkYtWu4QunKyvxRyTcZHLTN/x6ssGKv+PlgvzK7+RJSWXGSC5dkgdVBTzyADqmZKbF0S5k43MkBiCUxTZ0xLESKFKYpi1DFPnDkldUgMaHuDZEb1up61U7FsrwFflW9rDuELegLKZ6NFYqcXK8PvbJG7Wjt86MBGzNus6XPsEEEhVVHxFKIyic43xjCL9ahqj0tnDk+c2qf+vqow66ADScLBwxWJRTlpqGK2VHWpCktPWEbR8oBaRZxWDu/gPCpf1MaJpTSh9UCqcyG71fhMSpiC/jujkweK0jUdUq1YTDHbwANeKZVJEwpF7xj1S+2k6iL9ZRd8/crvXbgx6513C6t0VUU9WbUZTOcpEYk1aPO3h0QVxI8TUtZsRopaAew55DVz9u1UByh/PR1IxW5J+kXRb/AHBPatRmRTHFjzaUM4TfVswJCUXGJ0PW7XAsqzJ0qlskdEbqe4yI3fgVk52X7Ip4+k+P37FRo5JXQVLUOSR2iuEXPtlvXDe1V4Cvyre1h3CFvQFlD1vWcLjK/Htgb/5rScZiYJ4gVpCij1jRF2i3/lEQxkzHQ5ic4ocA95VW42k8Q1yQy6h30nKRv/tjWrEueevGjHyxW5SRRKFBU0iJFL2CEoo94LSLlLnoi7hUL8qeE/8ArjBqyhD715C2Dryhqit/mtIVEOihs4W4F7z5s5bm/wAvUfms5JkDc2VCbNxtvuGojunapUkC5855HbtKzJj/ANQvvlsRB0JnUO2PTGm9yTXQUKqgqWuQ5LAUi1SOUskaK902veVsyR01AMVUhqhyH6WonaK8BX5Vvaw7hC3oCyjS20zXVDjIlDbSHI+uJysC/AbPVPsxk3FNjOCA/Wze0nekOYeBRDzJGH7JBucZNBrts5YT/wBO7utrCG/rqcjYOKau1MYMplKGzRmtAyj7nDW6Q/y2k5w12qTN4TdIRBqPoE3UZBkl0WGsfYNyaKpJNqgSoggWoQuoTu3RsEmcITRFz7UlK6uRqpF52bE0NBPUFU9ZWHqmywltfdUpEVSOVVJUtchy9GQ9gEabhgmqEfl5F1aK8BX5Vvaw7hC3oCynSp1oI1J8KICb/LaQYdjOhr9XxPGQLw9BfrVvaTrJRTWm5G73/trmRNyTGTNDYRYy/Fs3NrNAnXjzo3Fw1Uftxsyx/wCBNA94BD7LSd7ceim5F1OIZKLekoSDc9RcUrBlyIVDn7m36SlqFRy4PckEC1znkLg+CgXAaN9gnqIIQ5PkDg2UzbBfXRsFW6xa6SpTkMXtDycMlOlGyE+2N1NBVs1eAr8q3tYbwhaynb4MhvKjaKqlzWcbgyod4zjE39UuMgXh6C/Wre0nP7Ho19WuZJbkmMm93NKKrfAho2szQ1uasS+gkxszvBX9y4tIs1o55hb9DjWqiVHnDqKkRQKzVvlpx/RS1FzKbjkDQ1dz3Rx/2NRgYo1TdAeTd0sQxV6tRWuSpXUJ0ywCIpFyeH6L3Rnr2avAV+Vb2sO4Qt6Asp1+CWP0obSdrBIKy4whw5Q31kGKy8iIeOQG2XqwLw9BfrVvaTo9j0b+rXMktyTGQztYTHPo4WszPCkS+glxszvBX904tBAcwZKpmzxV1ycWr1EIscKq7/LR9x0lP3tQuHnTClqNybY4PoQSExhrGMauc+2KKahAzVivV24+V0+OVkBok99xZffKyAyDJK6bctk6nzliKZwrFMWoYsnTE2dSVyHt26mg2SvAV+Vb2sO4Qt6AspwIdebAG4uLNy/5rQyahQMmcpiHKa+BinzZRqAKAa4ouTrw023Qt3kjQ40U3yjSBg1hAQ9WBmMNUpY3BTn+MG8tOIX8YNPvZacQv4wafey04hXxg0+9lpxC/jBp97LTiF/GDT72WnEK+MGn3stOIX8YNPvZacQr4wZ/ey04hfxg0+9lpxC/jBp97LTiFfGDT72U5SEi0LMY0340AFCINL/6Oc90H0XpE3JMYkbYwSK/zBazM8KRL6CTGzO8F/3Ti1iyO1RSJE4t246htWnS61dzwdPUTOHFHBSLipbfD6DbVUSGVNsCEukgNiXEhdk6PU80gF+9VV7k1JidOWVmKBDbadO6KcapTatYmmGEkbErje1NCsleAr8q3tYdwhb0BZNkPX8GirbiiBEbUjhlc205oSQ5oU4PoTlIaTHhj393WNfpzCn7BxqumERarsnzJQ6Lto6JUcIHJ0tX1dAS4uWgJcXLQEuLloCXFy0BLi5aAlxctAS4uWgJcXLQEuLloCXFy0BLi5aEl8DGn8AvuVJazMH/AIpEvoJMbM7wV/cuLWcZS50sei31g46hvIiYMJU2JUt7T0bUURV6HFR0Cb23yKyqpgZU2wIndJYDBUhdm6yvysgM9fppdo1TryAyiCj02ydH/pJ0Sqt0UkC7FFOp6MdS8doN+1OpknFZshLDmarg22usrpySeLFKVescipSbYnYOmamdcIHTkdNQMJIxyH3xOxV4Cvyre1h3CFvQFlM90I1SqRYrBU/c4iGJLbFNJYXONskJWMaSKFaii82fAAUuWY9EQb5dbMqyGFziYGZrDzs50RnECbYweawhmCGaA3h1E78ALcqS1mZ4UiX0EuNmd4L/ALpxazoLsZxxr6wcdQ2bSjCSQJX3w+SLefUJz7EpzyFQ2eMY5z+6Y2qXCN2ksrw54YuzuFzTlkgNmu/L3TkpUvIiqbtWqFz5XFEuc8UG2To6q8qEEE0t7TTJjxK5foVtqJk6nFJUyEGDIyvdnR7mnxSd+Qgo8M3T2prkEhMbCNs/UiLPeHROSW89i4MAZG7KR0T2+jWKvAV+Vb2sO4Qt6Asmr5HRWTpB6TfGat1kxiCAgZJ8zbPE6u1uUiql8xrZWFR2Ht4kxXC+i4JnTbYkfRUVe2KYDBmdeleJTOxROCEZ8YYOHHGVGuQf977k1VS8NJKL8jpmAxVSmqHIclzUTU2pVHUDr2PrcqS1mb4Tif0EmNmd4K/uXFrOz2Sx76wcdQmCIhglXu6u4QyXUTygKxsSrVC+5SCrDHRd/Jc5ZIRq33a9fkrvLLETSLvCFeWTOHjj26aZJXockrv51V+VGWRN0UtwmmSwrOnSDcvd1Ek5CVEy703cU8j41SiQgzaoNS7M+WFJZafLql2Fe5p8SljsUmarlZmbLImWOS5p5tNizegHO650T724sVeAr8q3tYdwhb0BZw9odQp3c3VFIGruG1GIxHdImKUNxqA67pA0LjYhgRyHJpkdU/vaY5C+Lm3lQp7cACiQnirXFcJrARvHGWExNTmXco4UPXGi9SF/Wt3XsfW5UlrMwf8AikS+gkxszvBf904tZ2eyWPfWDjqE9eGDndBNEu7Xv6sy0/apdrd5ZXBy7N2idQnvqyErRkgh2y51F1PNIbrEVyl2CGV0/mpVjCYxtmfJFMcBm7FWrty+V0/nZAaIvfcWX3ysqzZilW24+TqcarSNlEEaKxsTnWJviGS/ZYq8BX5Vvaw7hC3oCzPAnSgAwnUkminT/jDLDYgHZOiZQgdk2oVEHCKS6C5aiqSxAOmoTYKJKXh7wh4pLxWYRkYe8HDUgDg9SGOB6zJXNhxvfJeHCC8ElobFmTmGxBEaq7VySouSnrWrr2PrcqS1mb4Tif0EmNmd4K/uXFrOz2Sx76wcdQlVuiXeKfN5FqbDOmXdqVJZLEm1bYkUrnlkOLHe4QufK3CWVYaUvbOl/wCklIaqyTcuxRQlll86V3a6uPqt0lVTbBAl0kAmblaF2To9SQGfPF3BtijldOWVmKBDbOpXU41S1Eo9EWpJdv63XOhxatgrwFflW9rDuELegLNB41VM3dNF03TdYnS3DdW6oqyhU4UaoKOErk9Q9axJvkT1DvlUpo7QwdnUWIo8xBU6RDAziCFCUSYGHo2bugTpj2L5Rv3qRpkq7Ep4zNymksabp0Gb9mKI5jMt+iuQTEEcww2jr2PrcqS1mb4Tif0EmNmdRmcyv7lxazs9kse+sHHUKGE7hX4zJdRnZIN2xilTTOVVe6nz8sFwmkXtEEpZLE3hu0u9zlkhzK7s90sKqJDKm7RO6SwWJki7J0dJCVZ9ESl7RqnX+eVkBjNzOjbJ0e6SqoJJpF2KZBJjstvEEjbCvXU4lO/ISw1oZwbbXWRpyTObPGTIc1jEw2a934ywV4Cvyre1h3CFvQFoMJiS4FgE41SJKnHQ2MUpBNs6EdYixQuZ828NagRKGozJKEA6ahTEOQ5KxDkNeEhw6w0yXjcwSFauqBUczbMe5sHdX/C71Vk5H4A0DQIDQWS7F83XaPGip0HLN0TE7huptSqKtk69j63KktZm+E4n9BJjYNNs00l34whoVmLwkaQRIrVERAaBho378v1GcfxCl+ES/UVx/ECX4RL9Rl/4hS/CJfqMv/EKX4RL9RnH8QJfhEv1GcfxAl+ES/UZx/ECX4RL9R1/4hS/CJfqOv8AxCl+ES/UZx/ECX4RL9RnH8QJfhEv1FcfxAl+ESi0UKlifmnFH8RuNe6YnxY7cOrl1CapbU2QJ8BLUbB3tqaiB98Jfx1VMDK7gl0lkUMc1dmclzT+dlkx2bXdnuinzUstv11e1QIk3lgsCqm2To6rjlZVUkk0i9oS546kZCVV6kZTakMnU+akJWDD3V6f+ilf88hBV6oRPamuQEkJpNW5c84XQJxisqAsRU21mgfi8isFeAr8q3tYdwhb0BaVTSQmTON1+mmiVWCvljgHNdmnQGJBMIh+k2pQoOWnCLRRfLQbUYquC8zo6gkJGUbbFC7FvYKLu8GLmQ65DjmXyjeEojCY+0uCmfaPCYcPiSGudioN8pgzDFGgxRvCADYuvY+typLWZ3hOJ/QidU0k9kqQmpFStyGVcoKEWRITPnEP/PNLBhxi7+ok3lkirNvuzqqclLLEU9qg1CWSi8cbte58lILnDGpjbI5LvyssiTTS3BEiWFZ08bN92eQg2I6em7QlzT45WQlapNmRfKFJZbeOXHaHPkeNFyYMjYJ1v+YUyNLzWTA+yZqE+ArYK8BX5Vvaw7hC3oC1IsicySqSpF0VkD3NRNRPQVUlpNJtTzXTax28hD4wbImcaooAE3NIgVrFL2GmOCfNCqatX1GvBY8yTeMlvarNlulOWa2ag4RzSnLf69IUlNWUrRKbzlSpD4wUl8Kcxi/2l2agapwpKbWGwdex9blSWszvCcT+hE6psS7J405XVtJhKUsssRFsU2xIpdD/ADUsrIuXZtxicnzshBs1bNS8epIbvEVzF2BD4nT+alW6KwSbmDJ1cnd74eyhY9q7sFeAr8q3tYdwhb0Bbt4HPJReJwMAIm3it88ShfWxRRz9DaLxVQwyXs0oVBQiMNdt3zB0mVVs7bKgsgsmOYYpijVH36evQOo3MMibRB8weJGRdNHJK6S6R80pg63nDrhIH7AVn803iwEbPDjSpCnA00MomNAVkzUDUPQFagbwGAxS4517H1uVJazO8JxP6ETqnDuHtOW1RSq5QS3xdIksKJIG3m6OOSlldu8ce0TQJ74jLKrBqlv51XH3EufTJF/dU0k5VnDhdxu11VLTmiuTKzI2Q9u8/wCxZwvcu7BXgK/Kt7WHcIW9AagukJWK4hzg10ewNzeYuRoopKbNbOOyEq8KXxPEUi1n8FeGqRFnuydNS7cuD16uYOonUMibVF5D3yJ27tssWumskpeEpg63oGgQliTJVoBEhUVgkQ2RQ/3e6/fGV4xRvViCU2vjnXsfW5UlrM7wnE/oROqbM2xdIcrqVxiASYrKlWb1066d0kIGfGS7UiCTeWTv3iu7XVlWNhG1C/YiOCkYiyX/ADFnDC9wXsFeAr8q3tYdwhb0BqFu/hzteHvmqldu7anVQcIH7mslJCDT9ubF3RUQnCnQWGuvCCdIYjOPXvkG9SBRpPIiqJiqpqlIcihD1iHIbMOQQpCjUT+APQKQyxLswedGwiSIUs3ZOyQ+bm4FN6mrQ9hURRMg+hrldk7S2C6Ctzxrr2PrcqS1md4Tif0InVMDbE0gMHRFr6lPGGRME3P6JPpWo3hNkx/kVb2bVPYsf51rBXgK/Kt7WHcIW9AajSapHGLzepEykEdqUGCn/ClsxkGvVOBiCIBWKMsVQF7WWSAuLIa4oSiTER1nDcREwboKQ7IDe1FDJ7NE6qUSog8a4SkFMKdeK+Ts1adfGuvY+typLWZ3hOJ/QidVIcrs2aHJBqY72EE7dVj/APq9mQlMBimKaoch9QvVdixAnw1rNwG1JNyWCvAV+Vb2sO4Qt6A1I3iMKeuWEQamrN3bY9wcEklBp+XGHvKKiM4iFucKeUev0xo5muB1yiNzG9nL5pEVROVVNUpTkOQ9YhyH6Mg372oJwQMCV3Dlmooy64P22WWQk7N1KUgboZYQVTdGTGOvY+typLWZvhOJ/QSdVGfcrohxaup6yhcTu+gdoaJ7pt0haOqpjVa5DE0NRO1qlAxjbAkgEjMySe2usryAYi9MfuLUlzT41SQgyblSrVK58+opU2xVSziauyeH+byKwV4Cvyre1h3CFvQGpk2oGPGZuibJoK4UoMj4KWzGQa9Q4GII0UlGiXNCAPSrCUpcVslQub9goPSnjWmumb3yj16bwW854YROoiMQO+ahm0NIoji9MPENIYx17H1uVJazN8JxP6CTGwycDGLzcQaRZuDxuk8VixHQANIBSKUPvZgy07ml5TGfwiWnc0vKYz+ES07ml5TGfwiWnc0vKYz+ES07mjx8Y/CZadzS8pjP4RLTuaXlMZ/CJadzS8pjP4RK/G5peUxn8Ilp3NHj4x+Ey07ml5TGfwiWnc0vKYz+ESiMLcHSMvDH7uHLHQ0NRRorcllUuoT9ttS5Fi7241QwfBnTpKNTbsmShZZVZOXHbkJkcgM5O2ZF49T5uQGcqLvTeTp8SlKqzaIN97JauHA51JBQ/wABOQqGzxjVz+6WCvAV+Vb2sO4Qt6A1OhFoG+Whz9EKAXbHpAQHNRWD9obj1pIwOcGJ4LOYaCJFpqQ6MD14ecTYDjXMibvkEbxAtpvxsmZEoSuwW3yFuwXD3iqgHixjr2PrcqS1mb4Tif0EmNmd4L/unFrOz2Sx76wcdQriOdetTk90TyXVDhsXRKt2b8ITzJVTBVMTPkxlUuEbYEkGJ4c6MXZnJc0/nZZYO2ae3u6nzUsuPHTrtSXJBORTN2CBTbM5LopxqsqC+rXcLJpF2Zz1JCCaqj02xak/qqXpCDJug1Lsz5YU/wBJQtV28XcVniZMM+Rp4oyKydF6J0YjUvulirwFflW9rDuELegLJu1RCsu7XQaok2xwurckZaQMPj+FS0gYfH8KlpAw+P4VLSBh8fwqWkDD4/hUtIGHx/CpaQMPj+FS0gYfH8KlpAw+P4VLSBh8fwqWkDD4/hUnDxzA2JW7VFRysPNuEqCUjconve1ARkBi503qNpuT7cGcMMBFlOFSk67K9QCcZGkK7fMAqwYRQvDWAAoIsicqiapSHIoQ1YhyGCmuQQpC1g0S/wALnCjTuH6DhE3oDGOvY+typLWZg/8AFIl9BJjZneC/7pxazs9kse+sHHUJq7D9nXItIDlGsUxa5TaoxZCkbqV1zylXudRxtssmOzb7s905KWWYiubtESJJ8rd5c54oN+9HUUlVbtUG+9opJ4yscSlLsjyEFH6RzbBDJ1PmpCDJgqr2zo9zkIFcFal2LUlQffzZXRwqqqbZrnunqt1i9KXQP87ZMWJR0Ip3SvumRI2KvAV+Vb2sO4Qt6AsoH4dgv1s3tJx+Aov9XuJJb0T1WcyY4vXgkRVxPA3Cp78GfGGlFnrBzNe0iKIiIVFBppApj02k4x9YgwiHkj9A3+uMdex9blSWszfCcT+hExszvBX9y4tZyeyCNfWDjqG1pHJGuVT+56srOHjZLfF05XnRnBv3VBVSVDSHG3bpf+ilf88hquEmpdi1JKs6cLuDd3OqpYM1tk2QP81YvnPQnXqI72hkSNirwFflW9rDuELegLKCeG4L9bN7ScfgKL/V7iSW9E9WsUTFMQ1chyaImoTQVUpQCNqiUzpdmCMQo1ogzEWT2nvqpmHvGotJ4t82vN+IDxaBlv8ALIDeqbtoG/5QtrM3wpEvoJMbM3wV/cuLWPm2Ubi31g46hrMDDgvU7oThDfVKzAkOKcyVzqqrL6IQ8sBVBrvKH3t3lk8ReKl2F3lWNhGtIabYIVOLsHSpRqrqlxK331eyV4Cvyre1h3CFvQFlA/DsF+tm9pOPwFF/q9xJLeiYyc0FMIDzNi7Z+n17nFkDFN4gNDx71NpORLbIDGE+Mh7gPtkTck9VoXbYHGR94QG1mb4Tif0EuNmd4L/unFrEVNlEX5+Md9Q0HSOit1SLk9zk3eJaE4TIoTVDKIlD91W5VG3ue0PFyf1PtsEmCY5GwLh8IUsleAr8q3tYdwhb0BZQU2wjcJ+sG9pOLwFF/q9xJLeiYyPNBzHM3wOG+NH6BB+ScbSKEza8Oel79ZsqH2yEvbH9WBhsmMbR+FD6Q9FrM3wnE/oJMbM7wX/dOLQxxzClMYfFI5jdEqfqItClBwkstN97U0VPxDqh42KGS3Oujv6GSo+cLeJobFdBbjEse4en6Qngk2anSk5KrLDWVVMc5z90UsleAr8q3tYdwhb0BZQw2xikNPxcQb2k4/AUX+r3Ekt6JjGaO3QWNB8Aa/2Wj0NcWjkoD30TfbI++n5X1Zod1fLNeMhrm1mZ4UiX0EuNmb4IJ8pdX/W0jLjaIREluKaKH/y9RW71LRG6lffNuSki6QGskumQ5NUPkChVTMrdkt7XyW2epbazTPxCuPJDERyNrhuN/wBazV4Cvyre1hvCFrJJTal0D8WrJqfZt0D/AA0yjZzj8Axf6vcSS3omMgIddhHA/wDxto/4E65A8j76p6sznQ5ic4oaA+6q3G1mafYxiI+eHYwZTLL1oCy85afttJ4Lj0M2oyHHMF0g85g96QbnqKeELjgq112O76clqhpEShnDYlV5VG2bl21N2j81dcco6HR843Ltjg8jqKDWVMY5zn2xRSzV4Cvyre1h3CFvQFkqXuR5QJyGY4g8MV4xmiP22c4C7KCRYvvsXASS3omMgXasI4b4MOotI2rtcJiR+LaLj9kgN6sMfU85RSGvvI3bdWRTh0QFN79+0murtM5B+XDHgfZjBlMtIbwlmtAhHvnhrc4/zWk6zdEu1atSbpw/ak9Am6jEUTExVUjEOQ+1qJyI4zq5cB2ltamp3jTolUMi3ZMkR84W0MU/fECH3tTGiYw1SlkJiDlNvgNC8sraK8BX5VvatSJuSt8TqnPhkulevLTFDiFZaYocQrLTFDiFZaYocQrLTFDiFZaYocQrLTFDiFZEaqLlcGMgmvXIS5+rM1asBzFgTJuejZtSYnHk7N62zcUNXCHfuqRk/tkqjtSq5OLVuWMevR/3TAHIl77xds29ADaTrcGzCTfi/wApiuQPTIhe1J6py7MsptROkBF9AoU7HdrMkzG+VT57QjgAwmUehKoe3OdIfSXGDVlCmPrOGsmnk7ZFH/LaNmdNB4hH2BQ3DdNwuf8AlJ1HBctYyBsB2ls05JuEDlVSVLXIcnRk1O8IUKqbg2KktwvaoKF6FUh5AYM6bGDBmh8I3Px9rT9beO1V4CvyrfUrfwcnyrj1Wram/CYvFocPjXxf/eD71pOqFVKhG0aei14E5UxWyVxj+cTkpSLzleEFrTm8zIeBkkfEYRU+DaTxUpvqwo7Ym7dKpoh/OONgZTCFeFKvoSfvtHhzE+QclHetJ1sUQrOCwxR8gHdYcKb0Pko+eQG9WbEGIFYH8aYlPwZNXFb3/pkLWZ8FAc6WJRc3iKVol8qt1ILDnZ8puDZEf1o4P/RX1O1iJQwm5sSq724tRkwV2bRDkvVqkqmfOC5WLsP3lXsSOooJjKnNXOc/TFFLVXgK/Kt9St/ByfKuPVnbAjGpoND4uh3jEM1d/OglaJTsmuiReNNm2JonDeji7NK+iLbWB82G8nsi0BmhfO1iDdeHui59s+QVZuE/cVZaIWTd3FWjmDTYKJFHTx0RVu8iifraGJX6peuYbwdkb0m7Jkgm2ZtEU2rZumFRJFBAoJIpJh1gKAAH2jaIsuji8ehrcO83FZ+bzoBjZ0zfOem5rtowhuVC4ld/OkStBKYAMUQqmLJ1E4ExXic1nap3CYsyKuF4KF7KbtHo0jU4BwvCA0DQakAEtcsiNWaSr10rnGzUirhwp7ilI87pzoYljCrc7WFQs1AqQxssOTrOf3k+do1i05g1bWLlLfQgrdrBgDuyaeKHPyjD1JJCn58LOMXB+mfuynZ1M7aG/aEFCF3fSvPISmCqYpqhyWsO7RM6PwFfUFdbCUNgN2/TF1OtJV25PWXVNxfckrZXgK/Kt9St/ByfKuPVgwHNQlGyLwY4du4Gu1+WUBtasQhrB8HWeNEHAfOkH0yFRjN6DNVKdEQhrNM/wipgPntprwApqStmjyLuSds5UBi0+WUw42C3Q9VrGirQJbduRA8P+WAW1d9N+DO1Nk4hrNU/wjJiPnlVhsLYMA6zNmg35EhbWJRt6NDSGMnD5briVukY9QndFc4XtjAEn0UeDWdRN47iLk+2OHit1W6lEh0RPVeZxu4P+19zU7vqZxVCqm7y0l7fRrU6e0PFyfDyX7ZC6dDvSRNEcKbWlI7tyOF0CPS26e1JW6vAV+Vb6lb+Dk+Vceq3fNRqumS6Dpsf94bq3VGUIjzMQM3ijBB2XtRUIUVCe1PWL4qdVziiaSldom6CGw8QvVmsMyqY1HbGpN48ak4bnMku3VIu2W2tw3VuqKsoLOFGpS/ZpGcpbQ9TyN+j7RUFAANjR19VsJjs1ctxeh/GO5wlsbI0lOHOgq0dpTr9TCMIqrhZxu+P0zubns6lbvyhhNFKivB1821iV2rGVMqgdu3288hcuz1jdATpbdPaktQK8BX5VvqVv4OT5VxjHcwogsGEKkTm+a9fJmxFlukj0HL7ei+bVUSdoq1IrEimhUHDrvHZRKJ+8gjXUpzaQLj15mv1gLD48riiFibMSjQ6In34oXDL25C5gaqiEfip6rVilSCYUXV0uYMhZtwHNWXNQUgUD18wBlEpwxU9Z9El7sba26ehItEu4INuppGkREzhjnCK59w0+/QkRZuqVVJUtchyYaZ9RumZ864QOSR01AqqpGOQ++J6tV4CvyrfUrfwcnyrjGNInDnBmr6HuSOmjgmiIOEJJxJGqhEm9RrGobmiyf0YRdcRbKjSKZtcoiA5lI6nWeOlk27ZqkddwuqeomggmF0VUOOsAFCn/wAokd2gJuYMNujOAonCisiOjxBQL+SvswoUjVKAFpGjHkWROZJdJUi6KxD3NRNRPJUVUpAm8OVOckJSTRjLcKKFs6CUURCjQlaKb2dPT1yUancv37hFoyaIqLunK6gEQQQTCkVFBG8AAH/lNASArQVUZsQw5ywhtmYuHp0ZchrFLmEL0Jb1IjSI9TqzYayBtFaH0M8srnqrlz7Q+iJ6jVUAMjelI6LyS2rVeAr8q31K38HJ8q4xqMcgylJy5C8Zn5zibQBpUYuRzQMUQAxTBQJTAAgICEiRWDLYZKhIhDVuf4W7Gmls8LrHDWHMEL9NNJQ1Kou4VTQQQIZVVVY9RNNMl9RRRU94AANcZKTam0sYs2EVMvvgwBnCcnQEzP0T1zUAJxviAABSlsGUegrnE0QZjQUOluEunNHe3oOJA8ZDiWJNQIWKwdQ4YpYKj18y6tlegPRVovGwqBHUrmJxV4hD4e0Tujl25Pc0Ek+uYf8AwetI0LhV3YzTbKV00aLm4jZ/XjzYpF6AlI0dcTCIj1QBRM5klS5w5MjUTkDeLgZUvr4mf91RkC7VZNdI3RkPqFJ2AYTJbC4OvkQ/Zq1XgK/Kt9St/ByfKuMcjGoC8UYPUM0B52cpetHaP7QhJvDn1zgU5RvczVzZWe0BnoQuoOTF7WgD9avTe1GaJzhiKTFvmJENhO3Sm1MmgUuHC3alKPZopkaHNgPBpsFNehpT5ZiHbxhXoCdYgXgzb5hERsm0Zgjw7GJNBEE1yhSAgN4UVkBvOG7gM0Bk3hUVFKBznEKMRnNVZRMb+HCllb6odcmf6wjTQGo8VRx3lhUpsRQttksSfiGs3b0gYe+NAd8b0gPEhBnCEDAeHwVupS2b0dOcG/aX/mDMKABe6qXVk4Ubq9poam+oyBKKo3I3rhrkifuiWtIFmbhNwlsyHr27hqpnXCJ0T+6SVbqaKkqogffE9WK8BX5VvqVv4OT5Vxjw7U1ckkodOMh5zwgoCBFTHqRtreoDLGcVAO2CsAZwxZApAIuguvUrqQ5bK0TQ7C7JUQUKPeAxe21Ad9GIg0hbJLPOHq6SCQeMwgH29iSrGYzXFrigA5uRIopsScEYjQot46oUZ4gjfkpFI5EHMUfqBQK7k9YAAMxFEP2duFslD5xApOaDhgFUOepG2RKKAyxeKsUOsa+AZ0xc2VeARZFdcApWhzjKsTb78yUyQO+ACFHRagUfxiINIWyS0Ry9XSQSD2xh/wD72JLQ+YSFc2cNOGIIiKeYGl0OHCWHtlL2vcwNfktEYm7cxCIOjV3Dt0e7uD9VwWarqN1dmge5yAj9FN6XbSZAv72ZIAK6xOptTrIB88gMUQMXZEtTOALkcQTIv7poS2rBdlRK4rIHRq17nLShPyv8vLShPyv8vLShPyv8vLShPyv8vLShPyv8vLShPyv8vLShPyv8vLShPyv8vLShPyv8vLShPyv8vLShPyv8vLShPyv8vLShPyv8vLShPyv8vLShPyv8vLShPyv8vLShPyv8vLShPyv8vLShPyv8vLShPyv8vIjszcreqgRCrXuliRZE6qS6Rq6KyB7monvSyUiJPnSM52OslGBqv/jNG8ajWA4GDsSIlGUohNtyPrpPFzMP+eZgYPm/HIp4LHYVEwPnQZvW6xx9yA9098lldog9aMUdsduEW6fwljFL55CARrmy49bQJHF5/kiBflGko3mtCWsERooxbEB5pv8AM1kQoS71YpjBspYsj0UfRdwAUAo8WVXBIAzARQ6wahIsidVJdI1dFZA9zUT3pZKSaLxyjOdiUKLlGRqv8z/E0c9RrAYDB2JEJG28Rm45HXWT5oMe/itkA+9c/HIDQacEJiVbMBs9ROcfcRPdPkWRlnK6TZEueVXOmikTvqKCUPPIxXM4UXzkueZQYOabj4KeD8sO9JRCaMFShJb36Si4kePA70PKNHwxP35C+j0VfRdwF4DPVq6SXYRQ52b9XKWjpdvuDyocA2el7clzU+alllk5b7ydJwnLn4qW/EUTlkT9of3dL/WWCJTbjG5I6bF3a6UsOJtdyRSvLISPHW4TqcrJFPERUCt1TnKevXUw+rt0TEySuzIe5qSKWGztjiKRM42VeqOW/Eu5AC72DxPhkJSS+rsTyAHc2pvrD3BeItuVrh5pZNMVH3OclHKQaQUzLX+OEPuZZHMT4c4w/BZUNpowlPhMUcOOSISVDdCbsOENduxcq/T3S4eaWWJ4RJEuxhQIwcffYN0BGQrRB46eqmz53y6rjldT3QuCbZkyNSQEhc7I+zRL0gsRUVbcQtIAUi7GJBsX8Jh5fn2eJpZbgE3HPZTGKNR+WJg80snmQ0HepwLJ8rBpYUylPaRpv9xLBmOr7aOpfhssrzJZJ79HFXHJw1GVDOEzaYdtcYo8N8GtR5pCU86FGRdjC2TNiPlCd+QrRiKxGJqmz53z9285WWCH/oLMlgnMX28sF06L7urLTB5x6ssJ4649WWEqqb26v/xmp//EACwQAQABAQQJBAMBAQAAAAAAAAERIQAxQVEwQFBhcYGRofAgscHxENHhYND/2gAIAQEAAT8h/wCaTzPYccewqIdEsHO+XB+Nd+HPKknBW/m707wh9vwr+KVh9Y/CO8Wnut7sY29QwaPzT25rrr5rr55rrrCOtK40DsKlhC5mXJVmEoZ85pKHMtm/llx8VbKx8d4v+u2CnwgcinoqrGVi4SXe+zolsRS+TFqmfwKThubtgvS0GfynutWssjoLzVRHPHOBUG5EgxjCQBULQZaTIXI3OG0NcV++zb2FsJeVvwqrbcl5vTt3pwsXl8CU75tBykE7/C3nN1nrnf1O052VTY75nU4A9yw1smknRim+Q+G3cOpHz+bfi3PYf9beEd9xopOxgH9sVFfdis8uZzMdrb3lxdYO1hT2Y1VVVWhvHkQBeyC4tpmIKDkxnoBSh3ADiW5/reGuShqaZHPNlLBAftdUmy1Jaz28wMXAt2JOVbyrSyqCK4Ieo8/gQgoqQypcFVgyFiWILt4qG8hzRpkrnU54D4pUq7o1QkVV4B2mWrg2jmtTb7W/UJqkDbHdnXN383u3HNLAZAz9btz1KJj4/wDe9uZ1195wrvbQJXfPaSXcuwB68MywAtVxJPXBi+E3gX/AwammVXgIkRzUauZOtiCkKrRogCOTlYZTS3fDCBBBcmUQ6lhIDK9ioY5EpI0YNRmsLmBv9/m0oWPULW4atXNwgSOlwBIlGIRKJU2oLdM8dv6+2rui1233fZ5fbVsz4+uIkeYW6x594eJ0xt4b4Lzls+Xc6h0DgGIGYyoiLV0wWqwHBCQRlk1MzmGAsVmp3LzRgYhYC6MS7r4Mig1aUBQLAVweAI0YZTBYy9RquCvURdcrCkQLRZ1U3BAeDVG5RSjaHjZN5cbXY73cb3SOetYxSfuTbeU9fxdzs0U7kS7jx4xxu4PIrJTLFQ3auMN4r6xN3JUCpBarUnsbBJk/U0IlvDoQXEA0HqRrQ8aPgLv5FeyZDV2ApIiDGVxldGqwmUFRYtDFj2XLGps8U/kO7JicsKl31r3Jj4N7tGFzhckXW8hw1Ph2VLuAUr4FQQ0AVVuL7BDf6AZAvYot0wmsNKd4ZZSW9rVhWv1/U3uOo8ASojQFcCbAcGFRZMEcgsrgf5eL9Wilt3uxMIWMFubOGCSTg1WogVFGVoJxMeGOv3cbBTzyLeagsqrBu5kGuy/G5GjA5JU3gRc+gyw1ohkMSVRuNHN3NpBCXaJJGTi9aiJiU9VJVAUlNTWiY7eFuWxElqQ7LfrXQOZdnb9heyfOuGwYJoEAsmfn4tgFs3l/CabIl3Nro8LvHwjcR1sW5b3DDq+fqLqXjFW1QODiYq2JF6PCYAwIKfSutRtYUiYFSRrbk3bL39wm+iL/AH/PA7eGw392lSPW97/FNjy7jp4FFyaPqr0g1xY4WUpBEEUoS1InQFbzXK+wCw8eqB75P4HdY8HHABxfGOMsg9GZdU+HuS31IHCeRMAgvlxUkzmlL30UqyEpvCKRKyLCoa7qle6zw4ic6kl4NxzCUtEXUvlBNw3ohRpQxL8nATXDcvKHZFdMDwz+7c9qfHa6px1u9wepaVx3e8lff1Qpt1ZyPu3jLqobUDr8RdXYteen2h/sse1t5vsxvRRx4zsWXc5DeEn4aRX7qJ4qtDSTQysW1NS3v1VcVKrVVa/hdpLBCJDeoCsK5R0dMBbmT0Pb1fOGLcype4nujpK1sdlJ8alzOik1+v1+AZH5g7v9+6nS8cHS7yOXJnLsbI5N03wXu8jPU+LDE+YUmd0W6jfWM1q89Gxkm84ndbz04sGh5M455FvpH4fG0JdwLZLgZpICb+QL6DYkEzQuzpFXe+ETseoUcW5AXwwOEHLSe2mwR7vTonr/AC5xHTSTgpJmuck6tjxFGe9e0b92pjLxhIv9PAoU93TfR1VzlWjm2w15ATP96DKsonFeCq5XRsQQ5kS7mJYXi72HXKhiZm6XN5Lq4tOCCOyU5uPcnVpHF5dW7ttjLXFOYgcdYDNTG3L9HTzvqPxDIkG9nzP+v9K379Q8k1t582v6wVD4aD5GHeoXOw5dxRdJct+P6l8agzwCXvMwdY9Ofva/pcpMajxt1ssUM0/s9jFRr4cMr+JqPIGHMfi33u90al3vi/ue8TTQbxiLzj5mW8nsB76xL8bkas6MzEXXVT2OWoMyePWX0zADS5AGvT+nU5xr0lWmoWZ1QFy2vus/+WoDA4tU84vHZX0juYnjO7QQnFSu8lHz1y2FLuUFpDMmDVwnNgGeqn1npmZeW6npb9u/S1aTJtWcRsW4+VC3wGdlTz1G8U7hj1tT7PwHGh7LL8na3OjX5/SuhgltmzYTBGS7gZZ/H2BaQpGZQaA1uSn6a2nU3sTf7ALKOKD0eH1xX8/9OxDLx/lhacJbm+OFiG98MLSGXj/LC04S3N8cLEN74YWyhLcz4HQLUaw50PYWK549PrAtN2Ktsx9bRJRSIzZF5PTndUuo/OlqDl+kq43aClYx1/VWpeKJH5jp5ntdML5vorby+Y4va1wR+w7S97GnxG/ibBl3PH4z20rAkPBfoqoQFq77bmcC+3seJsBCEIQhCEIQmhyh+HHarThv4yt3ONdHoXnp4WV4i3mfjfFo+re16CO1t0C58Xquvb+Z+FvDIzn7cLZKjfXnbQX/ABrp+42CKfiXchjba6RVurXTJUBLmZT4dFRVaWJkCR0VRZVAoACAka/IrD6dUsunG0HicQYIvGvdNR/inq6C8+c9PTur1sPSM9ZOzatcRXuxbxezu9fH673p7WyLv5J91qDhi/8ANvfzzeUn0NlDd3LuIixMBMVIwXjFDORL9Nei6ZPMUBVEcCSibGKqaPoThzLABIAlrvp3MBMrT6UxeEOhf4GXVt1I9dcZVOOX5LFIPfPV74t5ZbgDbz4XMt5X/kaAz4AEtvNpyuPe1MxXvYKdvWI0bzb3YAdwjQ/pXkfGwZdw2AW31T8aOM7lNQiihpHERjPKFAkEImAk0qGSiggTIrrkzlD8OPpUz3znjV77Pl0ueZ6XY7651AY/c9bceJJ1w9rUen9XAOuhLMHnpMIP12+49rctSaIij8xuS2Cl3BgbvreRGMNoC0iTUJDkbpw5BFqCaopYQz3ubfGZCSFlAMM8KoUURIRL7zWphCOR6Ry/mLTs6XmYjzg1bsllrPLp25fa3lDcdnlX87vah0Urnq176Eo/wMozZnXQl7fg4O+fVsd76XGtl32FYzLufCLVFJ9aqz0MES0JgMyjUgCSEvBBPCrZ6hFoRNIOlGs6CfxG1mZWn0opu497Z8vhD6j8tTVPtz8cU8xt5Tnz0fTFfVPnMC16FW2/g/0Xtbfsu/r828G/WPVcjVFI6vZbzpt597e496Tso0JdyKeDxLOzgFEFAdSi3bAyqJEEI0SbGO0RiBaQAySyg5rHAaRoEytPpS493iTzFSpAgUmWwto5a2KZcuxhJj3WNCbYyVsMlbAS2b1y7GhNsUJtjLXYZJCUN9OvHxqfhKN76Bz7LY7op1rej7T5tzMkOrTtbgVV/T1q96G7tS97e0qncsfxfvy48/zry7VbLwgZdw4AUoLVGQVrm7h1TLmCWgKGqMugO0T0iRUOkKZoIKITUZmXpoXcf4esvgwfZw5Ly/JjKiZHecq7o9reDu3LeQH9ZfFvI78jQc2iz+28b2lA7W4vE9i7oHqHR5gX8SemF5aLycT/ADsOXcDOoQAyOSsAEILcAVSB+PjrqRlFugNIqSt2hKLbUQ3gpSIdKooxXhjVJlK7j/IyG5oQ3n+Ym2Hc+6vi3FOz2iDtouzYPvwjf9LtFwH7A7El3PVYmGHggdEXT0NoALByhK4HQaANTJUT0pDtFbsBFLZ0idgWBp8AdUfTKF3H+LiPJ7G9sTyH41t5R7iPxaN63WloZuYj++r48U0flstiy7k+oVJZQ1GLCXKNFGT0OalxoE0hKi6Q1MO8vUhICFTN0yAStYlFM45IJOhwKAdTmUruP8RMX/dk6Dnd8aoGfJ68+nT7/qNH4hpsaXcRyVavhLTHoXIAkkJqSkkgsAVIYflIiGSKJjqS/SsJoxaz8hhlNYPAAMkJRGESo3OpTKF3G1L7wrYdtVxZbvHuMdT8U5PnR7xvvbIl3LqjLbJdsqqIxyLLgTq0Xnlm5FpKDUpy6OkX40iUXy1ddKmZemldxtS95M6atfPM47NzUvz+freJ+NqchLuPh5Eo0RG8cRvtg/eLBSYLoktRUGQBhWQBChkSiagJZF1hqVSby6+zNRuTK07UTw8k1e4oaKOTSO5628lvo003nvP++6WoG1/YGs8rXA/hc5mL2zN21XeS7jTqVlIl21MgMo6wOKggBrEFuSpA1CAfGMwrHzncREYjUZlafSjmgx+0m1NFWK3NkaOZbRwObbRwObbI0cy2uxzrKOBzbZGjmWyNHM/Gzrsc6yRo5lsjYbmSxAw+K/8A1Gsd30Fexo+jHA3MKdeJaIP5/oe9uRyP3pfZlTPs355LuPJ8cEQtQiiqJfYpJZlI1Fr4gjMhpxfyw4MA/wBOtRmEI5HpGMOey/4aW7oQurk5SPcxxfXnDNGtjDm8zRbwRlcfstHD/sk2vV+d+b33tqWlp7yLoUthHqXsHwtFeJ0THy0q/wCOzJdz86jgIIIIIIIIIIMwL6oxC9h3ACuX5/OBzFyAwkTRzQgNoAOHxsUQRkwjF0sBgu/ezbzHfqMzlD8OPpUz3znjV77Pl1ExMwbD9589YWZsMb7wvyt3YD8L+5uWgv8AdmO1vCmS49G97V9W37pPmWprOEHeXo2hnxRHUVddN0MnTfbxvsxS7kgRn+jQw0tJjIKuRtAQ0tNYJvYzv0ajMqDkemju9oL/APu3MD29tc8OM4s9redmsrTuWj5LHN669b9D81v7cwfOh8lonPZku5RHM7/pAz2RBnLbeQr1ThDRcaMYnruI+fD0fIAvd0XS1ly/SFN5iTaDr+ebTmdl1mb/AAjhczn3jdb3q/TYVOe5Z6zoPi1hT55xs2XckQ3Xp0J7Rs3qt30QNE3F0gejcNnwQM9tLePSK6/aKFosCGV6GP8AdY8OmJzHT+YmTQWPruy6FOWzZdzx8aN3pgL6TzHJD2hruHobYWEcffhpa0+lI0M+ke3I2J+Ni+l+U3Se+GVcdYqby7ryDfp5PDP8euPuu+Vyps7I3hLucW7wdfShY13SDSKBwYsqfUWvmm9enUO/1WbSQGj96M9u1ufO2sfMr2tN5uOfPriNv+Ixwzod5cdYl+NyNGJ6f8lF+dHhtz6UP3IyNJD0AYEaQDMkHTSqxPS/w9Nmj+g0gEw8ZlH1mxhQf318sax8FKvyDpvobfUn7c6cnnzsQU3il3GG5/5598NHmv4i5+kIyvlXHdNIHpGjPKaK6UN4Q1En+26ECy7nKdIMxDHuqbHgJ1g+rXr5v1cc+2/HGpmcPZxFutLHrPLmaV00YaMQQQQQQQMXGnJGhFYhuRDumdHABKPzQ/Oj0iWpdASbFCHMcB0l7Q7x7mPp+emr7hzTOb6dIpoLd3sq9OhgO2ULs0lRyNh7pwbH+P73NcrYfsSHdGrwa015/empEF6tGXuzsiov3QZ7FluYt0k5LqdZpHZcpr4rIuYfRW+gCItleLBN010dFjfX5UYR6XvFZYlwd8PSArJGMeexyej6aQfcJw8NLlBjvvshnQ7ntF6xk7pHVv06Vvf40133vsPywlZc5h3DLPcV2KIcyJbn+fmffxaQEjLqlLNUTKEGTfl+dGiaoT93oiVZRbiFZQzd1AFZyxEqS6OKnl8lIHF9LJLyiebtCdJjaJgRvOEO5tf2YOUKqqUoBA/K9thTpp45AMZqDBLENklpFa3XDS2TfJrTdsMyjgmqxLcl3/a035+eL5j8fou7Q9/7T6Y0NjctyYRVGBNJw9y0qbDXo92os2W1S5nB+Q024Pnk+fTJ6SQUvmCaHcLeGmgMvzf1Lbu3uvnL0qS4IxggWqFJFC9dlgGUUu1x5/zGPvqvytXpfOzrcsYKmHbpvvN1vOOAY7IluSTeUb+KkV4ysPFA4jWwCEihcWxRMVSyr6shyFCbiMBSTIud6Zb2tljViRCBFuCGFKFNmfLa6vTK8nM1SLz2PdD76XfqUbmDgzGyldAJbl2ZLULySkoqsAiItaCgkpLCTcZLI96nquL25EAXbR3dZ7I61OGZMJC6H4oMGFGYIMOdNWzc3WnhXkVKm8kbtxgxmP61O9J30/cbXBN4lud+NbYZLELNksJvYKhG9J6wlYjVOJoJKkw3yJgTeoDIpOWHRdAWfRgCKheVd+JgxIuD8/F+qvGWIgfwKy8QZIrA1Es1mNSKAbPBVq9nnPc2zYPuL/FSfrLc0ySkQMIhSCIZJBhJAQmKTkiNOGrKGwslSg1MqBBKokVAh41zUKFKUtDoy7toq4jKSxc3eGBQuKTShFqwRcjjEvaxFYoKuDZxh8NhB1WTRJq7STAnSCre73NjZx2u7ajEPz/+t1bYluRAlABzhsGIDJEdCB06JwEmqIU2S1LUmCzUUpStwEBJr6gpd6y0Yw19IHqnSooEkSLQJlo7FT4FW8XXqnRnSEQuTVCjAZgiXX4aiC+XkXDSYNqc8Viv/wBx9xkW8TOe/vp+1JcI21kIEtz6+UZVUpJJUKwFs2qO8UmqXEwZKEvTGnBVHmpyhYlo0wyEKxFIEurjJQGDCkDUBABQCDTC/wDceDpgACiIa2G5xQhkyPHCqLvXjUDTVPGEGPAeRYkXiOBQUwNEIGJAW0Jdm0wi7bF4hUf5/ffCd9oLMH+U6tvFjrPS+eVh765Q+l8JnG33Gz7jZ9xs+42fcbPuNn3Gz7jZ9xs+42fcbPuNn3Gz7jZ9xs+42fcbPuNn3Gz7jZV+ndFVl8QIvIIkEkC8AA7kzc1jNwqpyvzLEWNvWSXQaL9YByqrdVZ94F5lyYDeliKpGTG4u9iqFiVbPRCHgQFABABAFI1KsviIY3SUqQFpXKE5hRCx9ZPFYDfdc2jPBHB47pogkP6LjM74b7F3p6T7hmWgjuAiZkqHJJBF6T7kAQFwKRgFDbrtPi3Bl628T6YRbwC28t2bvVLX9gZe7aA8m+VLHeLdy1YrOOHwA7bfRzaLy2fdOO9duaonYoXIWLf2TDoNqK6+Ms+9rk07gdjbz0alS81tKY6OO9rnAG62ACCiF1d/CquLrI4UZxp/TwJgWXzht5qnnNoshYjnku+fZvdn724V8N7WUhjc1rx51bWNFru4Y+b/AM0dPEgPfL5X0kej/wD/2gAMAwEAAgADAAAAEAAAAAAAAAAAAAAAAAAAAAAAAAAAAAAAAAAAAAAAAAAAAAAAAAAAAAAAAAAAAAAAAAAAAAAAAAAAAAAAAAAAAAAAAAAAAAAAAAAAAAAAAAAAAAAAAAAAAAAAAAAAAAAAAAAAAAAAAAAAAAAAAAAAAAAAAAAAAAAAAAAAAAAAAAAAAAAAAAAAAAAAAAAAAAAAAAAAAAAAAAAAAAAAAAAAAAAAAAAAAAAAAAAAAAAAAAAAAAAAAAAAAAAAAAAAAAAAAAAAAAAAAAAAAAAAAAAAAAAAAAAAAAAAAAAAAAAAAAAAAAAAAAAAAAAAAAAAAAAAAAAAAAAAAAAAAAAAAAAAAAAAAAAAAAAAAAAAAAAAAAAAAAAAAAAAAAAAAAAAAAAAAAAAAAAAAAAAAAAAAAAAAAAAAAAAAAAAAAAAAAAAAAAAAAAAAAAAAAAAAAAAAAAAAAAAAAAAAAAAAAAAAAAAAAAAAAAAAAAAAAAAAAAAAAAAAAAAAAAAAAAAAAAAAAAAAAAAAAAAAAAAAAAAAAAAAAAAAAAAAAAAAAAAAAAAAAAAAAAAAAAAAAAAAAAAAAAAAAAAAAAAAAAAAAAAAAAAAAAAAAAAAAAAAAAAAAAAAAAAAAAAAAAAAAAAAAAAAAAAAAAAAAAAAAAAAAAAAAAAAAAAAAAAAAAAAAAAAAAAAAAAAAAAAAAAAAAAAAAAAAAAAAAAAAAAAAAAAAAAAAAAAAAAAAAAAAAAAAAAAAAAAAAAAAAAAAAAAAAAAAAAAAAAAAAAAAAAAAAAAAAAAAAAAAAAAAAAAAAAAAAAAAAAAAAAAAAAAAAAAAAAAAAAAAAAAAAAAAAAAAAAAAAAAAAAAAAAAAAAAAAAAAAAAAAAAAAAAAAAAAAAAAAAAAAAAAAAAAAAAAAAAAAAAAAAAAAAAAAAAAAAAAAAAAAAAAAAAAAAAAAAAAAAAAAAAAAAAAAAAAAAAAAAAAAAAAAAAAAAAAAAAAAAAAAAAAAAAAAAAAAAAAAAAAAAAAAAAAAAAAAAAAAAAAAAAAAAAAAAAAAAAAAAAAAAAAAAAAAAAAAAAAAAAAAAAAAAAAAAAAAAAAAAAAAAAAAAAAAAAAAAAAAAAAAAAAAAAAAAAAAAAAAAAAAAAAAAAAAAAAAAAAAAAAAAAAAAAAAAAAAAAAAAAAAAAAAAAAAAAAAAAAAAAAAAAAAAAAAAAAAAAAAAAAAAAAAAAAAAAAAAAAAAAAAAAAAAAAAAAAAAAAAAAAAAAAAAAAAAAAAAAAAAAAAAAAAAAAAAAAAAAAAAAAAAAAAAAAAAAAAAAAAAAAAAAAAAAAAAAAAAAAAAAAAAAAAAAAAAAAAAAAAAAAAAAAAAAAAAAAAAAAAAAAAAAAAAAAAAAAAAAAAAAAAAAAAAAAAAAAAAAAAAAAAAAAAAAAAAAAAAAAAAAAAAAAAAAAAAAAAAAAAAAAAAAAAAAAAAAAAAAAAAAAAAAAAAAAAAAAAAAAAAAAAAAAAAAAAAAAAAAAAAAAAAAAAAAAAAAAAAAAAAAAAAAAAAAAAAAAAAAAAAAAAAAAAAAAAAAAAAAAAAAAAAAAAAAAAAAAAAAAAAAAAAAAAAAAAAAAAAAAAAAAAAAAAAAAAAAAAAAAAAAAAAAAAAAAAAAAAAAAAAAAAAAAAAAAAAAAAAAAAAAAAAAAAAAAAAAAAAAAAAAAAAAAAAAAAAAAAAAAAAAAAAAAAAAAAAAAAAAAAAAAAAAAAAAAAAAAAAAAAAAAAAAAAAAAAAAAAAAAAAAAAAAAAAAAAAAAAAAAAAAAAAAAAAAAAAAAAAAAAAAAAAAAAAAAAAAAAAAAAAAAAAAAAAAAAAAAAAAAAAAAAAAAAAAAAAAAAAAAAAAAAAAAAAAAAAAAAAAAAAAAAAAAAAAAAAAAAAAAAAAAAAAAAAAAAAAAAAAAAAAAAAAAAAAAAAAAAAAAAAAAAAAAAAAAAAAAAAAAAAAAAAAAAAAAAAAAAAAAAAAAAAAAAAAAAAAAAAAAAAAAAAAAAAAAAAAAAAAAAAAAAAAAAAAAAAAAAAAAAAAAAAAAAAAAAAAAAAAAAAAAAAAAAAAAAAAAAAAAAAAAAAAAAAAAAAAAAAAAAAAAAAAAAAAAAAAAAAAAAAAAAAAAAAAAAAAAAAAAAAAAAAAAAAAAAAAAAAAAAAAAAAAAAAAAAAAAAAAAAAAAAAAAAAAAAAAAAAAAAAAAAAAAAAAAAAAAAAAAAAAAAAAAAAAAAAAAAAAAAAAAAAAAAAAAAAAAAAAAAAAAAAAAAAAAAAAAAAAAAAAAAAAAAAAAAAAAAAAAAAAAAAAAAAAAAAAAAAAAAAAAAAAAAAAAAAAAAAAAAAAAAAAAAAAAAAAAAAAAAAAAAAAAAAAAAAAAAAAAAAAAAAAAAAAAAAAAAAAAAAAAAAAAAAAAAAAAAAAAAAAAAAAAAAAAAAAAAAAAAAAAAAAAAAAAAAAAAAAAAAAAAAAAAAAAAAAAAAAAAAAAAAAAAAAAAAAAAAAAAAAAAAAAAAAAAAAAAAAAAAAAAAAAAAAAAAAAAAAAAAAAAAAAAAAAAAAAAAAAAAAAAAAAAAAAAAAAAAAAAAAAAAAAAAAAAAAAAAAAAAAAAAAAAAAAAAAAAAAAAAAAAAAAAAAAAAAAAAAAAAAAAAAAAAAAAAAAAAAAAAAAAAAAAAAAAAAAAAAAAAAAAAAAAAAAAAAAAAAAAAAAAAAAAAAAAAAAAAAAAAAAAAAAAAAAAAAAAAAAAAAAAAAAAAAAAAAAAAAAAAAAAAAAAAAAAAAAAAAAAAAAAAAAAAAAAAAAAAAAAAAAAAAAAAAAAAAAAAAAAAAAAAAAAAAAAAAAAAAAAAAAAAAAAAAAAAAAAAAAAAAAAAAAAAAAAAAAAAAAAAAAAAAAAAAAAw4QMURCygAAAAAAAAAAAEgUQcQRgAAAAAAAGMEAEEABAAAAAAAAAEEMAAEAKAAAAAAAAAAAAAAAAAAAAAAAAAAACoQAAAAAAAE0xAAAAAAAAAAAAAAAAFwAAAAABAAAAAAAAAEIAAAAABAAAAAAAAAIDAAAAAAAAAAAAAAAAAAAAAAAACwAAAAAAAAAAAEoggAAAAAAAAAAAAAFwAAAADIAAAAAAAAAAACAAAEIAAAAAAAAAAEIAAAAAAAAAAAAAAAAAAAAAGQAAAAAAAAAAAAAAAJiAAAAAAAAAAAAABgAAAAKAAAAAAAAAAAAMAABIAAAAAAAAAAAAFAAAAAAAAAAAAAAAAAAAAHAQAAAAAAAAzyDgAwAABQgAAAAAAAAAAAFwAAAAIAAAAAIMAAAAABAAFAAAAABMJAAAAAAKAAAAAAAAAAAAAAAAAAAYwAAAAAABWgQAAAMjgAAEQQAAAAAAAAAAFwAAABAAAAAAAEAAAAAFCAAAAAAAAAFAAAAAAKAAAAAAAAAAAAAAAAAAEQAAAAAAByQAAAAAAEqQAAIQAAAAAAAAAAEgAAAEAAAAAAAAAAAAAAKACAAAAABAAIAAAAANAAAAAAAAAAAAAAAAAFAAAAAAAACQAAAAAAADiwAAEiAAAAAAAAAAFwAAAEAAAAAEAABDDDDGKACAAAAAAAACAAAAAAAAAAAAAAAAAAAAAAAKgAAAAAAAKgAAABw0IwDSAAAAAAAAAAAAAAFwAAAFAAAAAAJAAAAAAEAACAAAAABAAIAAAAAAAAAAAAAAAAAAAAAABoAAAAAAAFDyBg0QBx2AwIgAAFwAAAAAAAAAFwAAAACAAAAAAACAAAAAAAAAAAAAEAAKAAAAAAAAAAAAAAAAAAAAAABgAAAAAAAAAAzAX4shgkAwAAABQAAAAAAAAAFwAAAAJAAAAAAAENAAAAAAAAAAAAFAAGAAAAAAAAAAAAAAAAAAAAAAFgAAAAAAAAGIQBx1s0BSGdAAAAIQAAAAAAAAFwAAAAACAAAAAAAAAJAAAAAAAACAFAAIMMMMMIAAAAAAAAAAAAAAAAAQAAAAAAAAE4IYghgwAgAKgAAAAgAAAAAAAAFwAAAAAEBAAAAAAAAELAAAAAAAAABAAAAAAAAAAAAAAAAAAAAAAAAAAgAAAAAAAABCqIYQAAAAAwAAAAAgAAAAAAAAFwAAAAAAACCAAAAAAAECAAAAAAAABAAAAAAAAAAAAAAAAAAAAAAAAADwAAAAAAAAACQAAAAAAAFgAAAAAgAAAAAAAAFwAAAAAAAAMDAAAAAAAAAAAAAAIABAAAAAAAAAAAAAAAAAAAAAAAAAAgAAAAAAAAAAFQAAAAQSsgAAABKwAAAAAAAAFwAAAAAAAAAALAAAAAAACAAAAAAAFAAPMIMIEIAAAAAAAAAAAAAAAAFQwAAAAAAAAAAzTW0EzoMQAAAEgAAAAAAAAAFwAAABAAAAAEAMAAAAAACAAAAAAAAAAKAAAAAAAAAAAAAAAAAAAAAAAIwAAAAAAAAAAAj6EwgAECgAAEwAAAAAAAAAFwAAAFAAAAABAACAAAAAJACAAAAAEAACAAAAAAAAAAAAAAAAAAAAAAAMQAAAAAAAAAAFAAAAAAAAAAB4QAAAAAAAAAFwAAAACAAAABAAAAAAAACAIAAAAAFAAIAAAAAJAAAAAAAAAAAAAAAAAEAQAAAAAAAAAAKAAAAAAIwAAAAAAAAAAAAABgAAAEKAAAABAAAAAAAAAAJAAAAAEAFIAAAAAOAAAAAAAAAAAAAAAAAABQwAAAAAAAAAIwAAAAAJwBQQAAAAAAAAAAEAgggAIAAAAAAAIAAAAAAABAAAAAEAFIAAAAAAAAAAAAAAAAAAAAAAAAAIwAAAAAAAAAEQAAAAAMBCAAAAAAAAAAAAAAAAAQAAAAAAACIAAAAAAABAAAAAAJKAAAAABAAAAAAAAAAAAAAAAAAAAAIQAAAAAAAAAKQAAAAF+AAAAAAAAAAAAAAAAAAwAAAAAAAAAAAAABKAAAAAAAAAAAAAAACAAAAAAAAAAAAAAAAAAAAAABQAAAAAAAAIwAAAAAAAAAAAAAAAAAAAAAAAAQELAAAAAAAAAABAAAAECAAAAAAAAAAAAAAAAAAAAAAAAAAAAAAAAAAAEYygAAAAABggAAAAAAAAAAAAAAAAAAAAAAAwAEACAAAAAAAAAAAAAAIDAAAAAAABDAAAAAAAAAAAAAAAAAAAAAAAAAAAA5ASSwAx6QAAAAAAAAAAAAEM888888884QAAAEABDACCAAAAAAAAAAABDBCAMIAAAAAAAAAAAAAAAAAAAAAAAAAAAAAAAAAYAwAAAAAAAAAAAAAAAAAAAAAAAAAAAAAAAAAAAAAAAAAAAAAAAAAAAAAAAAAAAAAAAAAAAAAAAAAAAAAAAAAAAAAAAAAAAAAAAAAAAAAAAAAAAAAAAAAAAAAAAAAAAAAAAAAAAAAAAAAAAAAAAAAAAAAAAAAAAAAAAAAAAAAAAAAAAAAAAAAAAAAAAAAAAAAAAAAAAAAAAAAAAAAAAAAAAAAAAAAAAAAAAAAAAAAAAAAAAAAAAAAAAAAAAAAAAAAAAAAAAAAAAAAAAAAAAAAAAAAAAAAAAAAAAAAAAAAAAAAAAAAAAAAAAAAAAAAAAAAAAAAAAAAAAAAAAAAAAAAAAAAAAAAAAAAAAAAAAAAAAAAAAAAAAAAAAAAAAAAAAAAAAAAAAAAAAAAAAAAAAAAAAAAAAAAAAAAAAAAAAAAAAAAAAAAAAAAAAAAAAAAAAAAAAAAAAAAAAAAAAAAAAAAAAAAAAAAAAAAAAAAAAAAAAAAAAAAAAAAAAAAAAAAAAAAAAAAAAAAAAAAAAAAAAAAAAAAAAAAAAAAAAAAAAAAAAAAAAAAAAAAAAAAAAAAAAAAAAAAAAAAAAAAAAAAAAAAAAAAAAAAAAAAAAAAAAAAAAAAAAAAAAAAAAAAAAAAAAAAAAAAAAAAAAAAAAAAAAAAAAAAAAAAAAAAAAAAAAAAAAAAAAAAAAAAAAAAAAAAAAAAAAAAAAAAAAAAAAAAAAAAAAAAAAAAAAAAAAAAAAAAAAAAAAAAAAAAAAAAAAAAAAAAAAAAAAAAAAAAAAAAAAAAAAAAAAAAAAAAAAAAAAAAAAAAAAAAAAAAAAAAAAAAAAAAAAAAAAAAAAAAAAAAAAAAAAAAAAAAAAAAAAAAAAAAAAAAAAAAAAAAAAAAAAAAAAAAAAAAAAAAAAAAAAAAAAAAAAAAAAAAAAAAAAAAAAAAAAAAAAAAAAAAAAAAAAAAAAAAAAAAAAAAAAAAAAAAAAAAAAAAAAAAAAAAAAAAAAAAAAAAAAAAAAAAAAAAAAAAAAAAAAAAAAAAAAAAAAAAAAAAAAAAAAAAAAAAAAAAAAAAAAAAAAAAAAAAAAAAAAAAAAAAAAAAAAAAAAAAAAAAAAAAAAAAAAAAAAAAAAAAAAAAAAAAAAAAAAAAAAAAAAAAAAAAAAAAAAAAAAAAAAAAAAAAAAAAAAAAAAAAAAAAAAAAAAAAAAAAAAAAAAAAAAAAAAAAAAAAAAAAAAAAAAAAAAAAAAAAAAAAAAAAAAAAAAAAAAAAAAAAAAAAAAAAAAAAAAAAAAAAAAAAAAAAAAAAAAAAAAAAAAAAAAAAAAAAAAAAAAAAAAAAAAAAAAAAAAAAAAAAAAAAAAAAAAAAAAAAAAAAAAAAAAAAAAAAAAAAAAAAAAAAAAAAAAAAAAAAAAAAAAAAAAAAAAAAAAAAAAAAAAAAAAAAAAAAAAAAAAAAAAAAAAAAAAAAAAAAAAAAAAAAAAAAAAAAAAAAAAAAAAAAAAAAAAAAAAAAAAAAAAAAAAAAAAAAAAAAAAAAAAAAAAAAAAAAAAAAAAAAAAAAAAAAAAAAAAAAAAAAAAAAAAAAAAAAAAAAAAAAAAAAAAAAAAAAAAAAAAAAAAAAAAAAAAAAAAAAAAAAAAAAAAAAAAAAAAAAAAAAAAAAAAAAAAAAAAAAAAAAAAAAAAAAAAAAAAAAAAAAAAAAAAAAAAAAAAAAAAAAAAAAAAAAAAAAAAAAAAAAAAAAAAAAAAAAAAAAAAAAAAAAAAAAAAAAAAAAAAAAAAAAAAAAAAAAAAAAAAAAAAAAAAAAAAAAAAAAAAAAAAAAAAAAAAAAAAAAAAAAAAAAAAAAAAAAAAAAAAAAAAAAAAAAAAAAAAAAAAAAAAAAAAAAAAAAAAAAAAAAAAAAAAAAAAAAAAAAAAAAAAAAAAAAAAAAAAAAAAAAAAAAAAAAAAAAAAAAAAAAAAAAAAAAAAAAAAAAAAAAAAAAAAAAAAAAAAAAAAAAAAAAAAAAAAAAAAAAAAAAAAAAAAAAAAAAAAAAAAAAAAAAAAAAAAAAAAAAAAAAAAAAAAAAAAAAAAAAAAAAAAAAAAAAAAAAAAAAAAAAAAAAAAAAAAAAAAAAAAAAAAAAAAAAAAAAAAAAAAAAAAAAAAAAAAAAAAAAAAAAAAAAAAAAAAAAAAAAAAAAAAAAAAAAAAAAAAAAAAAAAAAAAAAAAAAAAAAAAAAAAAAAAAAAAAAAAAAAAAAAAAAAAAAAAAAAAAAAAAAAAAAAAAAAAAAAAAAAAAAAAAAAAAAAAAAAAAAAAAAAAAAAAAAAAAAAAAAAAAAAAAAAAAAAAAAAAAAAAAAAAAAAAAAAAAAAAAAAAAAAAAAAAAAAAAAAAAAAAAAAAAAAAAAAAAAAAAAAAAAAAAAAAAAAAAAAAAAAAAAAAAAAAAAAAAAAAAAAAAAAAAAAAAAAAAAAAAAAAAAAAAAAAAAAAAAAAAAAAAAAAAAAAAAAAAAAAAAAAAAAAAAAAAAAAAAAAAAAAAAAAAAAAAAAAAAAAAAAAAAAAAAAAAAAAAAAAAAAAAAAAAAAAAAAAAAAAAAAAAAAAAAAAAAAAAAAAAAAAAAAAAAAAAAAAAAAAAAAAAAAAAAAAAAAAAAAAAAAAAAAAAAAAAAAAAAAAAAAAAAAAAAAAAAAAAAAAAAAAAAAAAAAAAAAAAAAAAAAAAAAAAAAAAAAAAAAAAAAAAAAAAAAAAAAAAAAAAAAAAAAAAAAAAAAAAAAAAAAAAAAAAAAAAAAAAAAAAAAAAAAAAAAAAAAAAAAAAAAAAAAAAAAAAAAAAAAAAAAAAAAAAAAAAAAAAAAAAAAAAAAAAAAAAAAAAAAAAAAAAAAAAAAAAAAAAAAAAAP/EACoRAQEAAgECBQUAAgMBAAAAAAERITEAQVEgMGBh8BBQgZHRscFxobBA/9oACAEDAQE/EP8AzUXU9EKmI9SrGSOjxUxgXc0I3A6uRAPEcdETeSW+CRcKR463dDNWmchoxMTNUIW9dIARgSdPzcSSLZoxIg/Iw2m2EzLQ4eYZSahaEk8mjQ220Bknayk5Fo9MNA2QwI1RfMei6BchCCSOCVrz5z2/1OS/yF2n4znznt/qc+CfOD9c+c9v9TmZd9u9LPCZlj753v8A7CqpJgCgNfAd2mm8ysNyVFlc6JURqxMiVD4ZA8hw8YSag3jQDtyMOYoaoCAAnMvhHI+TmAyIwG4mnosMcYrPlvhDUWMaPBXGJ556Q8Kh821yOqVXLnakQIXiSHKeyIDE46FjOTw8MnBH0SUszQx0VUtiu/rZMoFuIPlgCYF0As4Vg/8AgEYNnkINTSQy5/NkheS7xkSH534hv9z+3Pz95YnFDCUhWBCh5MFY0JRB1UV9IpeRWT4YAprh/HBccyLqPQBX22rBgrwDqz0ZoCa5ohITJ4JFe8ff3R6ergTbzUJBrZtMpCcBw4+zQEQAYQUngEAtXMHoJA1UcJQLBNypsADAr0LChjhKoqJqzsDs5hyU/wAgoZMWJID5GalwI08WsszVZUZ9LsIVlEoiCK0nLY2kA7RgNCDE8B49SurRSAUuXzXp3/o07Az0E+APMXrMoxUrE524S7c2WExAgQMfQgDHShZY4Z4NTPImKQhyq/H3O5SpxaTSaqIDME5OT5AiBT1dF6KDYYHAGOkHJz2N353QfUZEvooYEyLE15lAz+p/Tv4+7wisofTFFpouVp5GSTIozsgKseSvpgiyGMFOEVD82UmrHFICFsQLD9aJuIJBdKYUaMCtkkLVBCnsjGp6CBjpX4tJW8FlcCKZ8kcS2XC8YpjilBgHgznQTUWG9Sq7A45BWQMEJALFUYBveI8wqEGr/QslI8EaKCcELYOhOAufoAIi3YKgPOFLK6vIO/gPGIK53SH6le0V6VQhs5rIegQx2yKyQbbkJjZYXgMAaJavLWi2gVZfIXcuxogEqAAqoAs5QVRWg0lHDRY0E5RsS9U2nUAUlzwFWCXJYj8YjZMXEimK/wACBzBI4lHDGE6OQBn2FciJuIXhA+CRzEkL36HKAMhUWuyBvtwC1Y7mWvs6sFUM8lkAOkIFcFa2MMttE1ExInQ4jYca2plSjlBQZQrQFXghxK5Fk1SgVU+ovhnDIJbUuWhch6ADHTRA2heAuHqNo1TytAGgfawH5T88qykLFBko4EEBpauIMEcmaG2xxF4OdL1RxvEujXIaVyLCDzs8GeWpGITFIPQJzDDeYImIC7agmjH/AAgLm93yJSZLAKRQGoKwVRxQonjRHoGl5QsEEyNUzAwGPhMtT0AmzIC6xA4nMhtcu0ELksLLDXkh4GZObDb92sYimNFwmNj3dZp8kXHjME1wHO1cWf1oALc4bAPQti8n14FRCEPeFaCkeb33Gc07TuCiKMgKNKXA5Eq91FcKQ5ab0jRdYDjZbkesloM4ILsOUr1aAoAFRAAVVend6dedXSVW6v7hBmYcArUWQNC5RKaarxTXHA44vcMo+Gj2efKsbg9bneLD7+GOGBFPsFf9XoY9L5U7wF0BYnUHiAOTurkrrorkdBjPBshib0aYd5jYVR4RXwD1wIBnoHDkiEdCVIAWpSe941c4QClpRYa64BWWoRzsFCZjc0SnKTgwTAfE1EYzmiZogQUFwJNlIRhMAALAO8331z5ASz0DZ1qT346yiXDI5DtwJUHgwLgAJOqTv/J6+gAx3aczt/0Uvxo6+TmMR30kQQnBEOaAbKAIRQczgSJCeorMLYRWAWUyjgLd4AOjBtACCiJwdV+UZwBahg4FKCAwA0BO2++seENpQJphWowJd2vDjCqFsUrDaY6d30AGOBlkCUTo6koixDmPKHI7dOaUZSh3JNRAiUAkQIIJhzI8eKwC0ML3ZDst2B4jS111E2M9yTuMj7+GOFgJkFU1EBwWgGVPLIBM4ngrtoz4UHmi93z+2dqksRFg41IGViGTCVDcJKBIKlJngIFqwZwWpeDalDNiWLwlxElFz0YgLAnvSLBoaBgWEdDeWXyQ8DFvNBk+7XMsGASYpUdiwAyIcH2QYGAiCII5nl60TMLMo0xRRYo5lNZ5YIGEEOM8Dv2JpFwByRGtEK4D1YgxYg8RQkA4EqyCqywd6BRsBtNK9K1HAxE7KIq8CjmGqEpxCVqzEaXdh3gA31UtoDg4OGNigrIqnug4AsgCP/P88Av1cgWsNig6wgk9AhjusNVgMmLbQIXLy2uukFcUhkWg8pm5CdKAg3EVdS3KzFpnPEge44Qs1xaLGCjT2OFPNpBYoGW1kuOU2wK/WBLKJ33P5yohIxNmRu50LKYQPqNjpAvaYjWFMvoIGOOp2LJXqTNwRypj5iG7Fcc/HNJd4CnjVM66ZwtYVQsz0dR+l3NSEdCcQhiEhWyfu1Qi1t8oKoegQx2KToTlpo3MTOKt5SaiZ0ptK1bl5jAgTCSpBImM/GeN0RCDcOsGFJltONH0NYPrrOgFD7LgqeWG/wBz+3Pz94HYDRsIdg/AP4Ze8OewaAkUDKF8omjUKpdAg/GQQz49UbIuLEAsCbUh9+DskEOi0QgmNoJfvIUAIJBKhJT8yDCjrN5b3f3SJPrly5Y5e4lO2QVy0Vv3R2UYGjurAWEBfLSR4AUtiHU2SF4mOIioQgAFEDSChQxXw3IApCzYjchegcUK1C+FAcKBVh5qxFcUD0EesFG9Dg1RORRlrlc8ot5b4JhgEpQmAGONkgTw1gKRZHCJJ4tvELaUr0zk06IJ6J4apLL1G3XDWCq5+Arm9iHykJJLh5HX2oziWoJxGE0HpENUm9x0Tucqzi34RSoVOurGsDJACoK7iP7lhEQZF6eJchiQoLaED7RRsQAA8EwqDQX0kGqBSZYgHqvaZt4GMNgTsU8tIzVnUqnLAgAuaQOMK0AgYw2OygrGXJGYLzJmTo5EdV9v2/T2+bRMri0aXfuVIusqJK+sIMCU3xKrGhuy3qFU5ecYLA56VPoqOkDrz5x8f19p84+P6+0+cfH9fafOPj+vtPnHx/X2nzj4/r7T5x8f19p84+P6+0+cfH9faHMcgNQMysZEgffWCia7gdxlmZwhpA/6NTR+S80ZzoBDL0jsNkzcy426AlUqTq9/83/zKf/EACwRAQEBAAIBAgUEAQQDAAAAAAERIQAxQTBRIGBhkfAQUHGBoUCwweGx0fH/2gAIAQIBAT8Q/wBtRHNLCYEv/SgFWcWCFQoyEqNzaKNeGBS4h1Sn1HtMbgzYPKfdgeKu23IgLF4b0OwN698Pvx8TEQwdpAdFA9CbxglgyfEFAdK4gYiMJQcZuMXYGUXGJgOQAUrdAOgJ6pD+LYKdbClAgnPxn8Yfbn4z+MPtz8Z/GH25+M/jD7c/Gfxh9uaVSfJR8qODb++YL/zAr4QSgkWFCGq4uSKhe3QyTxbSMj22xDsCp6KCN0Di6Ed7s9+Mm8oBRDynLEKDAYZBkV+c3eeaPyWhn5MlLXxBki+6jgc2WesVTomKFvVpxQttX4BhxQJwqBAtuunykkhcXUlell40CfJP5sQz7W32bRrIUzWPBXULTUnHKehga/6AJ9wlagJLZM2hxGRLKrB9AU/kfdUM8EF29xLAqxhHnnh89fCxhACSIL9CT+0PVibyTXSoN5GFSD4EB/nOpRBwvdHDU7hPJNG2gOH4/LfD6zF9lJLoIWaEsKUOxHx1EE4yaPJ3oQABET4EqZe5gRKElgpz8+1B4cD3C0l/IoqGeusKx8dwBDUz4g4qJdT6DISnoCdDTxbujzhK4CvOvD4OJ26eHBvKBakJwaDdtORfPwFpQzSU4BAQo8ZUmofAY0BydF+tEpYIUVlaz3HQ7/zFBSVQgoHX5ECGftC2rTxGOKoICegpKwQcJAPhwLBIgMfoe9UNEhPQFlgPgsea1Rx5obZV5LEPgKJCCgjKw0yvIBinyHQhnq4p0HXCMgIqUno72k8WkK9/PRTUpVPGJEoM6KGi/wAJgsboQUUjxl+AzLZ29uMdijwn4YggUhXrKZN1+QlEM9FbCELEmWF1Agnoib2qwUmC1muAN/C8n1eBpHiRoES3jgYRnFAUVhFGxQ4AYlYuAimzUgMuESGFFhkIhqrq+v0TiYHUgoI8Z2FU4jrIBxpxSDEkH6uqyKYoKFjTepo/ICGe42bAY1DQVeoUYx93mwVPAamKnfoa07EpsQBVABVDnYlw4cIuIpkL08SQqJdZNA1AoJGKC8VgLPsBBWJKFrxu7ViW6DjqMPUPBWyjWToTugHAJzK9ModLgK7T6TaZJSbF8DzpOJ2DC+iXe3C/AtOKxihKhBPCAB4acvHqO7Qsyi2ih5GAYB0AAAgpgi4cccfdjxBUhuKv6pvsaAE6ZV4D35BCGeys7Uh30sSqM/ofSEPL+TKArM6PPCIceaemCBgJROGIy/wqopthMmmcVPGT2F0mAVpJivKemiMB0CiQQgZwYowAqAhjtN0PHFbAE7cG/wDBnN5yA7BVHyAHlVkG9BBECFV1KeATIhXQwQe6uq1X4e5t+QOdgmY7OjcwZuszUrO7GWV7+QEM9PoAeRXTZLs8dtPRbZYoJ01EZIcqfhaSpYqSl6juns4+t7DoraksCGCpyoxS/iW3y9teFIdC+Vf0uJdChreA0wke3TdHDe7w1C1mVoQH/hwIcRAUABVXoA8/5+nt0ylUzBEbmUyIl7dP+Fhlc53CcDJkmOzGLuCOPhYFl7rxwGNQOvPyAhnqFwU/7IT93LPSWOskuJxApUaBBXDvPBf5GA6q4cCCraPERqn8OKuLP6VV+Qt7Xt4YNIWJdUEvADd65n02iHUQw0GYKs4xZV44wlAFgUgaJ0lAUe2sSWZVEZJiEygHuACWNl59iaoCoqqdUwG+55MweOXYVqy1WK2/AidVq1hHR/0vjf39DPF22Kd/cJU8WelmIQihXaw0WEY5p4g5APYM7KGvLe4C69TSH0ZwGcT0vCkWrybrsBJwHm2GUA1qItEVgXg1SIKrbPhLUqpTAwHrOv8A4qN4wf8ACffqp9ZYWfICGepIF8e31fYFmnivpQm8HCJmgaXceAEgAAAMCAJKhyPjrwKiqLH90v0Dz8SI4jJI+70wi3Zio/f0M+gULRpAn1JWGF2enTuglZ0JcLl8NHDd2418W8zQ6kGonBOF6KhmNr0A4i0joEx6odXOHI1ktSqNz3wgCfBNIdwkVMUPq+2iaUo869XX9G5j5AQz4UAqDsCBJ1LGgbxOAIlPHCgAAIhPTtXpKjECQ1wIk0H5lHwnYwTbWcNrNGgZ0ebmOpOECTGZEJ01e76U4+p1f55Nk1XWrCeJSoYAKIEwsQoGvY0ohsj6JoHPbVh80KAUAAYxmLSbfwqNragE6FX4HShhFKyHYM5lKF8goZ9VIqtloUblg9lfUIzScP8AhrXkCcJu0ee+gucm16Q4FwNh5B6oCSlsDiMCyKlJTsGPVBlvu1cIslTMHrVyfosCwZ1Y2cVcQEpJDKdMlZ1Xv4LnajAHDoSVHQvyChn5M1C6yAZrIvynqPIs25Cexj2tE9DSbRJvkf71eZio/TvWpYeqA1KIFAhUqVIkdPZ9TDHyEIZ+0TRG6JA+nIWBqs008IKAB6mtrbPMmhagKp9L8dctPiAydf6KQb2/oz76nzIhRbD+REpDPZVb4iCoqcvDBE4FId6Qa6FwgekiabvDVgR+uqT4xC+i26wD3SZrFiTgDqSVyFqCDDeeC9j/AFmKgyKER9QQoHFslELo9kgB+Oe3/D/L78/HPb/h/l9+fjnt/wAP8vvxo0C3UazWissj90drK0shUKI8X00kp3fSXoNhDN3k5oAAgIBEGgqYA1D4Z5SlOqa3pFI9lOVIT8eQFQFxSNPaD9FgPND4AaL5HIaziLWmoVMgWoensWnsM8lD7TTTr8R1z7B7ynEFvEc4H7dQyIWhUP5JEQ6a83rTQE1gMVG3/P77wWorHINeixClPA34ShiIgI/1CE6fR+//AKv3gi2ci8YgFApk7yKLycWFAYKiVMOUAWovnhDBdCD8d9lTaww6AUYFsIJMCHgNc9RCz5SQ6WRrGgQyZk9gnw7c0VrgKaESAyiOuIoAUFwtqc6BH2wZEbOwGzFPfE/kwpaQgvsnj9NYSHevs9/Fl8dMfrsHZbFCGOo9iG8BSYa53aA7FWnrMkb3dSwyFJdrr6VixYsWLFixYMkv9GKN85KY7++p0RZaVG7Evk33eHvYAt/zts930nAwt0EOum5/89mycWeADwAeTrys/wBsq//EACwQAQABAgQEBwADAQEBAAAAAAERITEAQVFhMHGB8CBAUJGhscHR4fEQYND/2gAIAQEAAT8Q/wDmXVBdRKtv209MsSOo5rrTre+JSEm+67+MbANVrfllG054qIP2O/3GoST+jMdu0gMyLtz3+41HU/tD483sI/Wuz3ljsUiubr7Y7FFec42r8YuKN1P9xIC4dCbPP70xcAD9jfrzxkTRFGdfa2SU2xqOp/aHx/4LNGn/ABGZ8VjDAUFqftngOQe8JPtzwDyKT7Y96Y+oA/YkytSc/wDghWrdXSgzPedsErtL1pKB5/mJmP8AWFCNIp8YgLrffk98jFAAR+odvnaCA/SaaR0ptjvz9x3H+Y7j/Mdx/mO/P3Hcf5juP8x35+478/cdx/mO4/zHcf5joNB5LD9HkeegEgfH+YnkJJEgikiKFpMQBDNQk0ByyVpopN8FRZIdOcxI61RRGuCaxfM0eykYtLiTmkglbwEl308D4ClVbSid1zxHGIr3SE55qJJrhMIJ3MoIMlSMow9zi3a3WRKKRvJbDheoCQGBIakImX0xMrSX5BJxuZMSY70H+9xHk9R1f9T4xGoXk4JFQhOQkPuB03EGGkoqSJqA9Sx0y1AIJQEiwkBFOoamDLXmu4pRhjJAp80Jzlv4TZlolFTYInDUycIJ7AxSAOlBqpbGJ1ZR8KBEIZqCpAYeh5RRAGCVUICNKkyAvTgKnSEQaIjCPrig2FQrH565OGyIKgONWmKTRGt4xLpWKxZ0y20+K4Nioz7patNZyeFQw6WKmVQfc6mWuGNDUFGdWXpVmhtnDgyJTlEmmmAErnVGeeM4i9WuKglfwHvaLeZRb3yfzje+T+cb3yfzje+T+cb3yfzje+T+cb3yfzje+T+cb3yfzje+T+cb3yfzje+T+fIbHl0LVStGEoga3cSOLWCABAArfBEu6tCGbiEoEiJhjjRYjPGBDqbjUgoDBVd3MUZ70hWqpBhCG+ymKgwYKaSePpSqb3WZ7yxCRJ7oRkkWQQusmhNRcbPiDNEg4yhIhoBUr2VHhCoGEUbY4SqfJmorBKIrlJIFKNVJKEMnHsFev85T/Pq2oIFXP996YvmqCmS5KGrbYE0wGr5CbmGDnVESQp5KhDGhQ2FI0zVfbB8CBjZkCklhawBmph8vIJpRInM3rWfUkT9LojwYwkmYGTQ4iMELRBiPEg3k6GD7knUoGaJIwzCnYQYKKTt1md4pZAHPdQsgBEZwQzEBszKA0BAnkszaTQkgDUbIakSCxgQtzy4q3URIsPBDq7OMyzTqBISfUvsG6N9YVu/tGyEpFVIXBuOGAps65WZDTVFRAgX8sD3LfVAG4oQ1DIzOosCABhgyA1KuUMD5xpkLJKEzQI0Qr6cif+wU6T9Zx/GAOsNHRHWVJYLhAqBAAClLu/8Ah5UH/RwPXWjcUmDl97ZR+WXbXQcMdDqtWYBWFiCxVIDKuoFS4AXyvo87wlNDSggka0xL3p9CxGWEyb6jBspJWY9VKpYaZUBQRiLK+gxrQICQIboUPMiNXKpCzBszRIbDiRFgiVIFlJi9wqsmKAhSC0pL9fR6YifpoUMKWyHESr8Z2se57nLXr5eNmEyfc+wkP8BgpOIRg6SUgQCvBmngmYEAU8Fwia0OQAJUjROV5dSeXyE4crChqaYdOWyATJ4qPUaXD03kKVFTpPS+AXzj5JEmoOwUm7IpTLgUEAMAVgGmaKqh52C94KAAiarYlrMqDh0Lij6JUaghI0Qt6UifnTD4utwPXABUAqKN4qj1FRQDoR5nleLuEtigXElBzD3En61n6bX8awSFR0bWgUqIgS6VWW84YakmfMtAfmdbuyChVIYQGLUEChLRl6Zchq7fpPyMLYFyKEGVA7HFgx6ACUZPK0VcywrMUUFIxJoMlSshpElUYT0kRA5OHIRQaURMLdFfNAbHQjQVRQvMFInASYcmHQZYGQmBE38ZGzWxuEvEKdTzZAWuQlAAIuEJEcD0uC20e8YDdVQBVIAtMZ+WyOlVUq0ApzT6EkiFYIsXDWQKqUmQOCQEJwrOb6MiqKyL6Mif6Bys8tueAoWBkkD1VeKiCPNz0TEIzy2SvFqcnxEpMVbCUN/VIkBKFtkK0AATKUhl82FkOLoIBkvQJGPkX0Htl/HpMdeexw9ViAqtAnCBoogb+S5oQEAiRZfRE+Ixkvz1KUbjRs4Incw1QAvIgSsmJsvoqJ+AnuO5csueLOwxUHEJhJ5WonEYMarWXYss0xEEjSKghMrVQxaCmE2yFpW+AFC/1TDi3k4d6bDVJIk4kIWg4tVPHLfDDTxEyWCE1UgSmZEw4gYi5Rwk1lFLEixapn1fXX23w4ICAlD2ZFBJAeUSxDZ4YC0Dsq4sFsdmqOqSeComUfSDayMQAqlYAAVSEEtBwA+mEjQUMgtRZRI8mKmYNZTMgE5qDOpiHZUnZYVmgwZK74DoOcvJy6/dsHQPoYmVgO74gd6ok+3zj74JHWaVxnKz/aZ7+2DIgdXgsCBDYB+sPTyLX0UATNCVLMa4HrNIRM4akQ/FQngwLNYKBokCEUzLzk4dn6yCKsZqqWsEYAPRET+gknKycjEMZobaMcQO47KaqSchgSQiEj3IgMJzZiZQf+iWHmGSsWdS7uIASsPgCNGMkO4XQHhCKds5t1y298LnCqMtSlmDAACJniagAAIrYE4EgEZcARDqET0AICAApAH/AF4yWgbJIkqiURuHFPhJhck0R0i5vpFh1CVMAkSIpQZkGvkzCMQQElJKQ2llWVVtoBVFIBTHepvfhUTlFoZF95VmMr6EL4BQQtRE1SFhqQkeAb1yqKsiM7tKaOMymoKLCoaIygbyNvRET+a63CLnOtEPQ4iEK9KwOElLURREs+Cq2TogipqhtzqcMx51IJG2hBq9PCgmqvc5xkYsf4kINl1ac1rLxAqol1AOis6tZ8GYvib93y64jigNag5BpKtxCFBVLIGoRAySKmLMejKQVqsSSVKkYcwwyPJGrGV0rayKusQZ3DFN2VAhoKTM1AsEEsjxodmi+nMDIjIskwQ1J02fnQIqUUCSRmI8COYlZAC4VjASzQFjQEohfz9c30NE/FzHMt09ZO2vEAuxH7ngaAZTVL7Vz4nIOYp8qPPHwP0+CQvYX2OnSZrbiwdZ/mr8j4Pk/wA4jkyHBfuVa2aprXiN7AKVowaiSA5oK1fRg6BoIRRzBJAMgEqqr4BlokK+63myATyE8QETUi1AlUBETKUw1LeLIFV1QSmVuvkJGps1cWVFJiSQTMYwIfKDo0thRmJkZIgVjxwUrhpFEXGqWLhnIehIn956o5EN0e1eJnP3yZfy8gSGHL+5agANjXwv7wnI9rPFYdDkj4AFeR4L3X7cHIX6jiEEMFJZAp5LqsGPgfp9FsEGqCEy0CWjIIhnyE61FRACppeoisqLELip7acnUgBWKsXoERHkYnVAhMo0ZgQCxDgBea3pQTAirfWpWK59xqKZNESBkyZenIgbYiuSMeabBK0Iw3OOSYaAJtMle5q6uO/6PgufE60B9kdzxPsomfQWp/D4KJ61WZCzzCvEFB5n6SWfYomuLHJ+vRK/t2ZtYYJb5e/krqtYZgW9SSyMlQUDyfRTHKYtq64vOmflgQpA0VEDgHp4VBUFhRRuzUB6ERP+tX2LXKeJBzkgC0MwoJmgCoY/JX37+LnGJU8x+XHf9HwfG0d2/HPiiP8ACF+J8LlariAPEklE0BJ1YExkCIj3Z5f1n6JHibDlCs0N+mghPIwQEQJBtctyrkgji4JMU/tHz18jtEGgTS8wNuRnic2AkBlFyNlmZtZYwW2M0Ko3ppEME9E4BQLxYhCZVbCWkTXBGJKKQ2+GYSd/z0FE/c9Hfyc91O3EFE46yjq5qrCogYOEqpPGMXCs4RI/52Iah3XLECJuy/D4wOU7mDYBx0MEGPJTLsxHmDENBNRTeoHsGByncwbAOOhggx5KZdmI8wYhoJqKb1A9gxv/AMUzrDIN8COaoVXNS0nQ5YCHTNpyBUU0MQxVFriMFEmE3oTGtYxB5qSShhihClQEPgfVquWfm9tJ4hF3hchK9V8Kk6txT+yizPtWv8+hJHwspJatzE6ZT08lStc0QypZNJVDKXGQbAVbllfE6RU6A1AWOUE1cOxrFPbmKIPM582vFVTPOcdDKG9XXimC2SjQziVlWQQQNfQUT/8A1FT+dp1OKDVpY1eVCMTAwIN+gKiCKBGRIRnjIQhCEIQhCO9/x5JBJpPZJ25+H4Piv9iCXf8AFH0ISe96QgzqRVAzqSX8kzKXBnopb/1woIR0C1u5jniInFSoYqxetrHOjik0VnoulJovGVMRZUohEUZDG4oN4cPGGWBxNoEzmBnLZ8L6KgASdCaV6oza5lEIqWXF2VEReVFDiBBw7qAEMWQFLmx4ygsCWFQ5aGxOIEMifNX0BE/SeUhIvoFqsCwtLjxXpNxHUE9kAhxA0qpCrQQuiQx54eBewegp8ry8KkQd5SklaZjxQ7L2LehjOAqq0qLTY1BF/Ij20xsHRQpGk1pOOUopXVNd+58PaJzmN7csAzYUvk/vWNSpNzld6FbwzhptGmq0qodLgXsPCeSe+RaiIxy1mkNKxFdmc4jxnRKBXJnRopMJmlwtD5CiGhLslyDYY1WjMVTCwkhzXfXHdYex3H/GgBEyogkYppUEu/bwMsuQzcZpvbPn6Aif9gSU3f8AN8SkeC8xSyNW1LQnGjxBiCnGlwfGIlI2lOTtUdEFCPB1kKhr50tffztEC/RFNFPlfC3XKub29z09IhHTLIW51WOvTySIicgqGSmKiyboZRqKs/4tWtuRjoyZW3vR/d8OvUOlJnk05++C5FowmtmtRvJrUwPEpmjTSLrcc+WKK9q5E7WZTLpwKieWK7YBTS+vNMGUqLmJk1lFNREYaFcBiRNaU7Q1543Emo+9Z/iPEOnvDDEFhaBnekV4CzmrIy2FVzbJqegon4uUcQJaIZnARJvHP2mGLCgPAmVLwhLdC8KmKMKxnPOKMmk9knbn4WXc6QH2enpLxCORGbTVC9M1POJJRYERm8BDO4aXiuIkGESlDlC0izrgE8sPipcZaAMJQMZV8NQbG+J2euLEV2fzN/EJRDMSOWtcivOmJBa0gIUyhClS2kDkVICMqebVQrWiS604RHSFVDMecDWUPQUT8v8AvGIEgoFBW6HkZXTCuNbCeOBAGETMfFRDwoGWiA4QF3NaEpXIEDIjXzNGgRBtgU+2nhNJiQ9ALi05/j6cklaLpaidhGSIpHljzLrTXRUnLSkxSuKApisuwNJdbCBbYuaab/vqNPquGMiIEWobc0t85HBaFoJuajurswaBJQMhNjINDHI9zxIeyC7nORnEIxCoMYLdWlZXm1oQMlc1KBLBuG21JMFVP5ataC2WnFDGlwFyVIrVWtKBdxcnMnshnTKNPQET/QA4ID79zAODQyefxMRidRvIjmHs4KIMzAxQo0xrTkwsgARuvM0QL9EU0U+V8IEQKVsTveZ9PSTdnf8AUD3EcpnyY3zuJpCUoIEmEu3YMo3NjXdlaVZyyweBRYR9AKTy3zhkKB+rO/8AFuB/YgBy/T3wauptOQIOgdb4vVyC6tITTZ7zGIUVd62KQQc7Qa2HAyFJDDzIHKQIzjxTMFcuNQ6kRQhYTAgoNxrMMwhqQLDGGuoTEQg68ldIYXI4Glo9P1pnnMRp6AifkU3QsJFzALnk6CHaoEUMJBsCKxhFWDVlJ/xPiiJsBQQj+a/nl6IF+iKaKfK+GdEtEmTJVBDoJbg7f664n9qie164GA9BD7x+tcFFasCH4JplniOcTIEtasTLEtKdodMZaU7Q6Y5fdS9st8ASERZsbddIxHOJkCWtWJliOcTIEtasTLE/tUT2vXHsCaIE6Z339CC/fWnrDVyffyVb5iuUmrIDbOmXiicyUfd/P+4HpZfQel6dHCYSdnbFBJyrtOBa+9bsw6KWnQMVHR785oDpJ2wFhZhK+C7kWrfxFzoRKzWtjl8+8qFoBdboBUlCoSsWhjSCEPVc8nJEkxhh6gITgQLkLEnW+Oa5Fu9Naa4/sUQad/ESEaDeKt8v8ovBj7p9Jq+SaZUdvQET/vQf73EYYsdmvnFVClPKfKAIaKBTaAk4vBhYQkawlMoeHv8AIUc+V+jwksQclEXtPqfYVfu/9+UXuPdYrSKqKQyIUkhYXI0Dv7wbOyWysEwNJYJzlwtwImCspMIb3YHmaM2DW0013tiSjmDr0rpyITaQxMp+RL2mhabxWNvHG2tmc6Ke4BeQ4c3ZS0vcL5gpEYjw9JXWBAWfYGCwUQBwRba1LeE7xGlEABzfsQmvBEPy+Kqpz6Hpl6Eif6iAEKv75w4VLQZbu0AWR8pQjYWIgzXSkqVN2Ij5vtIWSg5h6+VVEUen3v8AdOvqf4Ler2ilPOwyOGWAetpC1MnEQyc6ozQrq5gRNVjBIHQMOTlqaxJ1rOIhjDIPzCznF1ZwHk/8V6ds98dz3vf4t78COMdS7mZySHRkmOFPlQ7V9hKnoaJ/qOj/AIvziIb7GbBE+KEkTCf/AK73yyyxVFMPJS5HUMj91AgEVGvQFgJFYg8ovhFEliDkoi9p/wDFoQrVmw5SytnXfXEuoOaXpMP5eeIcEikgsRAh1iMAfAppY+ubGElDcwREVWrYzret8diKEaaRbXKdr4f44bzpDkSGymEoLqgRvw+66/RUT9m8g1JDTqI1BigMorYpmAQRN8nirlMeVVgiCjDUk6nWwmJApbxBTydEUen3v906+pp3Ur2+9reVVYmJWQQSJ0NUqlcUHDaU+/L5rik5aEIgiIyDKLUx+YvbXp+1jyAWmx1BV1iQWmkvD5w25s96Z/x6MifgHkhlCEVIwiQi3mMBqNgwYghYUCQAT0ibkFEypUTPkpaEkFpoU62QnGAdlaw+3EEJQSGpPkaJLEHJRF7T6n7FX8LStd8sLLKg3ZE31rlSaT5V0QcDGbWlg5hCHybxzXlfL5LQ4eylHlvalN/SET8mpBBaojEJcAuEHAoF2GHEkdkI8jF6jSKZwGi1gtXiUc+V+jwij0+9/unX1O5yPrFPY2OYTbOlc5isPlWZIBJrqGpiF1WTTChLSE01s0gqIfyKVB3SYaR5Gv8AbdZukaZoGOhwrf8A5pU588/SUT89THw6GQCQCBhK4aWNQzua4OBMBiGQrI8T/OxEEZfIIVeUwaCoQBIEEwfJm/rnmvkaIF+iKaKfK+qKDZcwq+5TS1/LyUGoimFJgUNVa2ATOUiHGUkQVkjUaJNuJkZUf0POn3ht4i3AMwVeRMtL0xNMCaG0im6ohOhuY5Mc8oLxxiJQ0JDhgHIC5cnoadGvpaJ/CXTR755dQPJEKHNfgQ5EAJtvkIdhkwCDuKxDCR5GiBfoiminyvhboEE2S0YTARkDiCBi6Ivmy2ywxhN1GX1H1p74Ywm6jL6j6098QQMXRF82W2WEqs5L7/XthjCbqMvqPrT3xBAxdEXzZbZYggYuiL5stssU5UGcXf8AnCVWcl9/r2xBAxdEXzZbZYkY6n5r+m2OogdC3/P56ERpefMruKFqHmGBEBkmQkvUQKVRpRjgex76RGnShByw9XZM2CN3+8R5dMJWV33E/kithDn6xoK84SLBipUF7MFQlktz4sIJWnV9JCPmueawQZPy7cq+mIn632RLCNImqkCNXv8AlOlHcWVN49WlVZxTZGCSwZrBhA8hRoEQbYFPtp4WKxI6fwOLTn+PpyRihqusXt62Uk1fMRyNYIQSKNKEow1ojFE0nWz75+DbEbF519/u+JDsIp39mlcNJAFas6kBySl7xiRgbRgeWz0SffDAIS/y1tJNMEjlChGcl1p+zlWf+tTiMntqhKTYmM4Iw8dxLzLcbMPwGUtZ8SgoExaKxd8FrhRAiIBShkFssuFQk55oJ6QVZr6Aif8AyqZgvvSHiJppppppppppx9A1K56DAEjIYwRSBn57n2uf8jOuvgAhQGgw/gNNHNSsF4ygySPEMHaEhzUILoZCJ8hRk0nsk7c/Cy7nSA+z09INQihQSERGRNSs1kwM4BotCIoSQjpRGfMEBnp1qSYCCoCykWy59u2kTlQ2nXdxpM2a3rO066Z4zV7j1pIp0KJ1xFjZDlmSmuSxO3gOisSAheoQRtabUMJCkRZFegTfIh3Zwi5Slq3kB0Z2xQsUKhWircaqcqFsgEVLuKmV9P8Av4KFydOfCong0IQCXeZXnmk+mIn6loFzyZqhjsmr/wBnK7dCW6FGIOKmV4Im6Btwbl5FRAvcLkNXqvhYYs9sT+yPqFN40VUuxLMaAHYRr5sAAtI63p7WUZTTHKzKLrJA5QtvaKQSkINyzNGkHMxRiqTwEzUpYur+Y9wRJlk86vLXx3OR9YAf99jSk1cGOYmRATVbXUrqy5z6YifvQhP5Mn5x2TV/7U/4UBfyvzwdRaqTYGqfLBIHEiuKburkwKRkotgIp3yi/XPf3/7bod1n2DfigXyBGghaubzYKeFpEBkcpSK2isdOL3gGg1/N/QzGwLVUUaVrEiyxNCHzBrDinomCLOU4MMq4LDS7TR/t2wbGWwSLVjL4nZx+YvbXp+1jhhFDo1SR7QMZtK8CEdNbqI0ETSpIgVa+mIn6lyZmWvUf3HZNXwFgiwJGYiVsggv8PNWl1X3fAf3EL/5XimNm70X97y8Eyt0vb+Di/wBMR8lK2zz9DqQUUo1d1xPzULI0hAZCB2mi08uKeUaUuao1S0pSIrxxBEz9a2oVc27je3Av0unkhyIidZRr6Aif3K+h2aW34jkwqyIi7lTHZNXwMK5S1DnabzDfiRJNLzBs6TRzxttvu3/ZwLYi01Ivi7aeKBfoiminyvh0sG1aT54ilxrhHbncYO2hiRD2rnnn/Z6JG5QoixAatwYCgo8wIqkwxDIa1oAFsmbxjzee2Babw0YmvjGdxhRiYC8ipNlRUwkmkR9XOb339BRP9yq0qMranc05hvR+OGYeBV0KXALe1Mdk1fA6ELN4r5PW/ENwMkQAZY1TFSg455KTHftmP+0r7FP4Jfb24hC3pznfPvw1H6rr/aniH2fz8MWOT9eiHHLWMQazFSswzfq4o8brKmTSGjXI2Y8wZo9HCFE5jI6RGXGFPLK2Yf3IXnS/iJ1bSCrNDBFSQRP0JEDsd/gntifAX/T3DPs4cLeLa2V83x2TV8GYv+RW/wAcTQ/nivvaJ6bY7hof9mXWllFJWFI2a0OKyreJmtjkV9czwfJ/nEqKy+cd7w4hAmFKCX94pmaJx8D9PotaYwEyVaRmZLk0pK+YAkYRqsjLq9OQJNOMaZuuYn2QfFDoQ3cAIGJVVLEOjqIagc5/30JE/wAyirT5+37w10pUZonR90Tw3Csvnnm+HZNXwMaoVSuifwqLxMpa3Jn5WKl9/fLM0yP+WC/tDva164jpYsvEfsKe/kED75P84UoSVlK7pB9COnEDMqDNYalEZUrT0aBCuv5XVtuYaFoO5XQ3GFLzoQ8uAAsFo2IIyKVImK1412key65zT48MqBxlFi7tUgD3zF22qEqCZVgpNAC3mUQfeDKGDaImu+O2v3HbX7jtr9x21+47a/cdtfuO2v3FhAsLZznUh+f+Zen7iMb0CDetKj5gbnhnKESunzykVWJMSlsEdmtfjwOblCrvQB+WJEzxAMkc3Zys2Ns8VI/Obftp/wC/dB+/064moNBYCtZiJGJIMiOHIzBlhlWapzgbeDMXxN+75dcULiDiwF7fU8QXIFoKvs1haATT0e09viQZCCCoRRBCcG6TGJSpN6otmSIlJ8tmqHyTQBvQKGyJceLrIdl+7fzi52iJeIW2WZvr4CQlWoqJGBHDyALvREWKephMIls1GBkEcp4cO4GgBGSQEgpMw+AgRIkJAvWqFl2I4lzTiFQCrpV563hMInCATWxBQaQUeJSBk9mFowhBJXJZEIp3yi/XPf3/AOhxRdAwholdAb04oQKXqioy4GGQrr6RCQgoK1STPVaNe7y8EBXENaSzlgMuUidOJ8n+cDnuf0005tfj/tcNBUTBUSLDKJhVQw0BKIX8/fM9FRYpYxlVoVwZtRM1MPEUHglRqtAkpadiCM/4ANvys4/zH+MRaHmMg9YxWwIxyzqICARrRpM4cTvZJzRBE3WFYkmkeCBFiUJUokrRslRDc4bETqAAiDBJSGAhEihKJ0LBAyoLAIW5iO/3ONNIkKbiFLvlgVwOVFuqspZovi1boWi0zgoQDIgVhfSaktEKWgU1jAQlREPLUqoMJiiqaQJ6TvjQ00M2035nW9OJNhJ5o/lhla3/ACuhYCQ4i8TNOVCsMLfdwICFBkE2Pr0ZFiljE8G6UgrqCmSeKupkCJLQoGVbW8SYyHyowkRUUqMwTjCtGxZEMwBSonPzMeAOx7WQFsvLRotxTkgaayky71MHm+ZFqbGd5OKvsMRi9KDdYAhgcwDUD6ae9/SntzIcmowEnQ5iJ5bSZXIINGE1oiZuTPFGFIc2sBpdTMxe0YbzRSoIQkhd6lpmKKF+aIzmWZUtZVVlq19HRYswTQew7FuU5YDYPlBGKAiYkgHm4unwSdEQTlVIIPgiEqj7DXj+6SpD2kFwsVYJRIPNPhHY5ZOCpAgowHpdeinTM10BTVQYIKeV5fTa1ZYo0IJrLDio8uMV4JnASkgFpiPf/wCRVz1WVVqyrNfSUWJCmClclyLdmKLPMngiSdOjUeHDB2HJ+/E9P5Fg8rAUIVQvMzdw710LakrcBnTMagbbOQrb00uvpqylAVkgTDJBhHsHANlhNJtQ5RJXyQC0AswoNK/oxlgMOUT9/bW3qyLECqIBEgJIiURIRhkwTvolCoJA66s+YwtWN4VFSKkgqysNgb+6qVOSrLA8UCIEKrflP7zAiQJkbRCs62XzCh0/j1kZwI2FsAFFOlEiGYlbW9PdOVVWYmhKhWETPJjAyRiuCuQkE1SXYo+TjzpvETW8W23tUPV0WI/bnacW4hEoQbN3BvQcfgSyLywLbHBBFEOemSGEVYcKWBsCeP8ABAxsWgF4TNIYyZwFadM1TKWllCLy0dZKLXB/BCLxIFBE21BQZlZQeoh4/wD0UCAs5H8Yg0iASpqRE02S6swGM26xPyYWhNql/IJUoSXLVyg2FVfL1dFicOB4i4SUZqXJKwrNBU9Lx0AgAqHylfmYwbEioJZNEoSTYlkwwRkoFwx2T7YPDiYIVqKMFLwFnxmPlhVxfKERHUvsAtAwBlMU5N8FXEIGEFlz1QPPnSRDN2bs3iP5wrRWoao2pVoKAEsrOK2CUh+JZ3uyzOPXwHM5LqaKN84JxcAA+rs+I9YRYu8TBlz1974a7k2VCG2E4lbi+hg6LEIVLgGg8gmwUO5c3UTMuphLg9cRKvFwZeQ4IGDJk2IQyOAAADjCelBRvDTRXIUJHc+kIM8GXzIBx3YCJiwChqmSC0JwkWAKWu/kBVKgClAEIACABAABFKW9WgAZ3K/3HOTPEF7hOuXZkTWrKgKAMKDEp68kApo16GeNSZQRkrCWZNdJ4t4LlRpuQUUiG/v5ul/NqEMhKxCQyMU8rJkyZMmTJkyZMmTJkyZMmTJk3LlVN2sAXoQfJLwKDAAV35ryiuAXjx+TFZCji9DAAMCUFQ0KoEgosgwF8cbMQodAbAbQk8JsUFZ2IbPNwaYb6NUWaXRgoZpSsAQptjCd6iwIBCmdTmZ4hGA4AAEeRsIADczzeeWCu6iOCMKRKZDiAbHARtIRUFTN0EqTA3InqBig0Gcw8IvayVATKmYSu2YCs0Q4VGbFpUoqKSqEcelEeMzCYEGAePwSwLgwAICAAPXHZxkSYRKjNNZG9ZMm3wxK36SITLkSmReMnNY1oKd88EqRcnl9rS6Y1i7/AC5+g5OCoWSZRK0YnnXLwf05c4tO9sVmg6U7xOl6xpFEFSlQO1wBH/TOYgjnKZpZTfarpTD08F3EsIEJpcsQPrvYIJkdGeVcSQQSet4FK0sVgmmEAwhX4aqJ3WXXEd1RX1ZpFrwVF8U4wJQvT9OIcRii9PjTPVW74US1JTVsnRpXBqJUSVJnMtUyUGUR3gEki4SJuWCBh4RwUEF15CpiVFnF1SoH1z/gDy/0RD3+ez7KFT0swpdiklSbxCuLXG1iNroViK4llSQXbBCu6aUdaGb2nW/euLjP6e/htJbTvgnP39wlpyUVhIm++K4RVX8qgz0cR8bASL1Fm6rQXHUEKBPfaYxzFK6zpUz7n/wXeTAOg3p9+tbfrIf4J31cdi/uJGq/TLP2PqcXFfeQ77ZdR0f8X5/+Zp//2Q==;" vertex="1" parent="8962rQQDY3VNNf6We3Pp-1">
          <mxGeometry x="100" y="118.5" width="50" height="50" as="geometry" />
        </mxCell>
        <mxCell id="5F5hi9juugYW_dB_1AY9-3" value="PHOTOS" style="rounded=1;fillColor=#F1F2F4;strokeColor=none;html=1;fontColor=#596780;align=left;fontSize=10;spacingLeft=10" vertex="1" parent="8962rQQDY3VNNf6We3Pp-1">
          <mxGeometry x="960" y="127" width="90" height="33" as="geometry" />
        </mxCell>
        <mxCell id="5F5hi9juugYW_dB_1AY9-5" value="" style="rounded=0;whiteSpace=wrap;html=1;shadow=1;sketch=0;strokeWidth=7;" vertex="1" parent="8962rQQDY3VNNf6We3Pp-1">
          <mxGeometry x="90" y="180" width="970" height="610" as="geometry" />
        </mxCell>
      </root>
    </mxGraphModel>
  </diagram>
</mxfile>
